<?xml version="1.0" encoding="UTF-8" standalone="no"?>
<!-- Created with Inkscape (http://www.inkscape.org/) -->

<svg
   xmlns:dc="http://purl.org/dc/elements/1.1/"
   xmlns:cc="http://creativecommons.org/ns#"
   xmlns:rdf="http://www.w3.org/1999/02/22-rdf-syntax-ns#"
   xmlns:svg="http://www.w3.org/2000/svg"
   xmlns="http://www.w3.org/2000/svg"
   xmlns:sodipodi="http://sodipodi.sourceforge.net/DTD/sodipodi-0.dtd"
   xmlns:inkscape="http://www.inkscape.org/namespaces/inkscape"
   width="306.25851mm"
   height="172.35326mm"
   viewBox="0 0 1085.168 610.70051"
   id="svg2"
   version="1.1"
   inkscape:version="0.91 r13725"
   sodipodi:docname="ddos_full_solution.svg">
  <defs
     id="defs4">
    <marker
       inkscape:stockid="Arrow1Lstart"
       orient="auto"
       refY="0"
       refX="0"
       id="Arrow1Lstart"
       style="overflow:visible"
       inkscape:isstock="true">
      <path
         id="path4231"
         d="M 0,0 5,-5 -12.5,0 5,5 0,0 Z"
         style="fill:#ff0000;fill-opacity:1;fill-rule:evenodd;stroke:#ff0000;stroke-width:1pt;stroke-opacity:1"
         transform="matrix(0.8,0,0,0.8,10,0)"
         inkscape:connector-curvature="0" />
    </marker>
    <marker
       inkscape:stockid="Arrow2Lend"
       orient="auto"
       refY="0"
       refX="0"
       id="Arrow2Lend"
       style="overflow:visible"
       inkscape:isstock="true">
      <path
         id="path4252"
         style="fill:#ff0000;fill-opacity:1;fill-rule:evenodd;stroke:#ff0000;stroke-width:0.625;stroke-linejoin:round;stroke-opacity:1"
         d="M 8.7185878,4.0337352 -2.2072895,0.01601326 8.7185884,-4.0017078 c -1.7454984,2.3720609 -1.7354408,5.6174519 -6e-7,8.035443 z"
         transform="matrix(-1.1,0,0,-1.1,-1.1,0)"
         inkscape:connector-curvature="0" />
    </marker>
    <marker
       inkscape:isstock="true"
       style="overflow:visible"
       id="marker4946"
       refX="0"
       refY="0"
       orient="auto"
       inkscape:stockid="Arrow2Lend">
      <path
         transform="matrix(-1.1,0,0,-1.1,-1.1,0)"
         d="M 8.7185878,4.0337352 -2.2072895,0.01601326 8.7185884,-4.0017078 c -1.7454984,2.3720609 -1.7354408,5.6174519 -6e-7,8.035443 z"
         style="fill:#000000;fill-opacity:1;fill-rule:evenodd;stroke:#000000;stroke-width:0.625;stroke-linejoin:round;stroke-opacity:1"
         id="path4948"
         inkscape:connector-curvature="0" />
    </marker>
    <marker
       inkscape:stockid="Arrow1Lend"
       orient="auto"
       refY="0"
       refX="0"
       id="Arrow1Lend"
       style="overflow:visible"
       inkscape:isstock="true">
      <path
         id="path4234"
         d="M 0,0 5,-5 -12.5,0 5,5 0,0 Z"
         style="fill:#000000;fill-opacity:1;fill-rule:evenodd;stroke:#000000;stroke-width:1pt;stroke-opacity:1"
         transform="matrix(-0.8,0,0,-0.8,-10,0)"
         inkscape:connector-curvature="0" />
    </marker>
  </defs>
  <sodipodi:namedview
     id="base"
     pagecolor="#ffffff"
     bordercolor="#666666"
     borderopacity="1.0"
     inkscape:pageopacity="0.0"
     inkscape:pageshadow="2"
     inkscape:zoom="1.1262862"
     inkscape:cx="264.06999"
     inkscape:cy="147.83102"
     inkscape:document-units="px"
     inkscape:current-layer="layer1"
     showgrid="false"
     inkscape:window-width="2511"
     inkscape:window-height="1555"
     inkscape:window-x="49"
     inkscape:window-y="1"
     inkscape:window-maximized="1"
     fit-margin-top="0"
     fit-margin-left="0"
     fit-margin-right="0"
     fit-margin-bottom="0" />
  <metadata
     id="metadata7">
    <rdf:RDF>
      <cc:Work
         rdf:about="">
        <dc:format>image/svg+xml</dc:format>
        <dc:type
           rdf:resource="http://purl.org/dc/dcmitype/StillImage" />
        <dc:title></dc:title>
      </cc:Work>
    </rdf:RDF>
  </metadata>
  <g
     inkscape:label="Layer 1"
     inkscape:groupmode="layer"
     id="layer1"
     transform="translate(51.590961,61.234376)">
    <g
       id="g4251"
       transform="matrix(0.86307128,0,0,0.86307128,29.644567,99.57751)">
      <path
         inkscape:export-ydpi="500"
         inkscape:export-xdpi="500"
         inkscape:export-filename="/Users/santannajj/Desktop/h.png"
         sodipodi:nodetypes="ccccc"
         inkscape:connector-curvature="0"
         id="path6201"
         d="m 270.55878,-4.9457805 0.0963,39.6952785 c -0.51069,3.041072 33.68883,20.554949 55.01457,-0.09635 l 0.57809,-40.947799 c -9.73594,-14.348301 -52.25507,-13.221214 -55.689,1.3488685 z"
         style="fill:#fce896;fill-opacity:1;fill-rule:evenodd;stroke:none;stroke-width:1px;stroke-linecap:butt;stroke-linejoin:miter;stroke-opacity:1" />
      <path
         inkscape:export-ydpi="500"
         inkscape:export-xdpi="500"
         inkscape:export-filename="/Users/santannajj/Desktop/h.png"
         inkscape:connector-curvature="0"
         id="path6199"
         d="m 294.37439,45.913907 c -7.0443,-0.447756 -13.2227,-1.867141 -17.73364,-4.073993 -2.40729,-1.177712 -3.72777,-2.078979 -5.19012,-3.542426 -1.47914,-1.480243 -2.28332,-2.924298 -2.511,-4.508982 -0.19065,-1.326924 -0.19006,-38.5665412 6.4e-4,-39.7642771 0.80676,-5.0673539 7.9641,-9.4401379 18.40888,-11.2469079 3.77278,-0.652634 5.86462,-0.812332 10.64018,-0.812332 4.77556,0 6.86741,0.159698 10.64018,0.812332 5.46198,0.944825 10.25566,2.658835 13.57306,4.853125 1.47739,0.977214 3.31189,2.8202323 3.92017,3.9383582 1.07978,1.9848439 0.99068,-0.027154 0.99068,22.3716648 l 0,19.984449 -0.3215,0.931136 c -1.86033,5.388049 -10.30386,9.507615 -22.13879,10.801424 -1.86659,0.20405 -8.49938,0.369529 -10.27873,0.256429 z m 7.5027,-3.056381 c 9.40319,-0.671753 17.5929,-3.311921 20.70691,-6.675419 0.41341,-0.446534 0.9264,-1.167763 1.14,-1.602736 l 0.38834,-0.790865 0.0448,-4.069288 0.0448,-4.069279 -1.06796,0.806159 c -4.22039,3.185815 -10.33821,5.198838 -18.62428,6.128182 -2.92419,0.327961 -10.11681,0.327961 -13.041,0 -8.35044,-0.936559 -14.82438,-3.091749 -18.82898,-6.268197 l -0.86342,-0.68487 0.0449,4.078646 0.0449,4.078647 0.38834,0.790865 c 0.21359,0.434973 0.72659,1.156202 1.14,1.602736 4.12465,4.455118 17.07521,7.490339 28.48243,6.675419 z m 0,-13.095604 c 9.40319,-0.671754 17.5929,-3.311921 20.70691,-6.675419 0.41341,-0.446534 0.9264,-1.167763 1.14,-1.602745 l 0.38834,-0.790865 0.0448,-4.069279 0.0448,-4.069288 -1.06796,0.806168 c -4.22039,3.185807 -10.33821,5.198838 -18.62428,6.128174 -2.92419,0.327969 -10.11681,0.327969 -13.041,0 -8.35044,-0.93656 -14.82438,-3.09175 -18.82898,-6.268199 l -0.86342,-0.684869 0.0449,4.078647 0.0449,4.078646 0.38834,0.790865 c 0.21359,0.434982 0.72659,1.156211 1.14,1.602745 4.12465,4.45511 17.07521,7.49033 28.48243,6.675419 z m 0,-13.095613 c 9.40319,-0.671753 17.5929,-3.311921 20.70691,-6.6754188 0.41341,-0.4465263 0.9264,-1.1677637 1.14,-1.6027366 0.38353,-0.7810796 0.38891,-0.8263368 0.43456,-3.6555347 0.0254,-1.5755652 0.0254,-3.0683694 0,-3.3173438 l -0.0462,-0.45267437 -0.81848,0.63899737 c -1.18166,0.922538 -2.11621,1.4996527 -3.74552,2.312933 -10.25613,5.1194598 -28.40052,5.6670804 -40.33937,1.2174782 -2.50501,-0.9336132 -5.25294,-2.4380818 -6.76111,-3.7016371 l -0.58155,-0.4872406 -0.0462,0.4624175 c -0.0255,0.2543198 -0.0255,1.7515046 0,3.3270698 0.0457,2.8291979 0.0511,2.8744551 0.43457,3.6555347 0.21359,0.4349729 0.72659,1.1562103 1.14,1.6027366 4.12465,4.4551188 17.07521,7.4903388 28.48243,6.6754188 z M 301.05861,5.0695715 c 9.26528,-0.5507715 17.40288,-2.9620236 21.09645,-6.2510858 1.41652,-1.2613863 2.16661,-3.0143682 1.90208,-4.4452982 -0.18806,-1.017339 -0.55062,-1.6779232 -1.46006,-2.6602263 -2.91537,-3.1489442 -9.81126,-5.5279952 -19.08305,-6.5835812 -1.96755,-0.223997 -9.08185,-0.223997 -11.04941,0 -7.63878,0.869664 -13.57052,2.596192 -17.18711,5.0025851 -1.35409,0.9009854 -2.58352,2.1896882 -3.03983,3.1863882 -0.41356,0.9033507 -0.46193,2.1138782 -0.124,3.1038408 1.43719,4.21031944 11.19678,7.96273 22.46534,8.6375745 2.69831,0.1615938 3.89567,0.1634041 6.47959,0.00982 z"
         style="fill:#000000;stroke:#000000;stroke-width:0.85390931" />
    </g>
    <rect
       style="fill:#ffffff;fill-opacity:1;stroke:#000000;stroke-width:1.52199996;stroke-miterlimit:4;stroke-dasharray:4.566, 1.522;stroke-dashoffset:0;stroke-opacity:1"
       id="rect4238"
       width="114.12558"
       height="81.352631"
       x="227.01274"
       y="215.38672"
       inkscape:export-filename="/Users/santannajj/Desktop/d.png"
       inkscape:export-xdpi="500"
       inkscape:export-ydpi="500" />
    <rect
       style="fill:#ff0000;fill-opacity:0.17352941;stroke:#000000;stroke-width:2.16017175;stroke-miterlimit:4;stroke-dasharray:4.32034357, 2.16017179;stroke-dashoffset:0;stroke-opacity:1"
       id="rect5306"
       width="747.83704"
       height="42.210045"
       x="-39.449512"
       y="506.17599" />
    <path
       style="fill:#000000"
       d="m 331.68436,432.0309 c -14.48522,-2.91644 -45.91709,-18.1893 -55.1962,-26.82001 l -8.00174,-7.44266 -6.59237,5.25675 c -16.01375,12.76933 -23.44989,14.86025 -52.84926,14.86025 -35.92623,0 -48.18408,-4.31826 -68.7421,-24.21672 -19.62627,-18.99662 -28.42207,-36.16109 -28.42207,-55.46401 l 0,-14.66148 -12.418222,-4.80701 c -14.51935,-5.62028 -28.74256,-18.47476 -36.04814,-32.57921 -7.45724,-14.3972 -7.39491,-42.73313 0.12619,-57.41537 10.60487,-20.70187 39.456042,-40.89158 58.434152,-40.89158 5.11745,0 5.39826,-0.82981 6.45661,-19.07877 0.84898,-14.63856 2.53533,-21.96753 7.24589,-31.49121 7.76694,-15.703 26.89271,-32.79222 42.08677,-37.605375 12.90204,-4.087063 39.80272,-4.815656 49.31607,-1.335637 3.6323,1.328672 6.83719,2.143062 7.12197,1.809702 0.28482,-0.333367 2.26155,-5.697571 4.39279,-11.920437 7.40331,-21.616432 19.6575,-34.221335 43.16402,-44.399454 13.41214,-5.807356 35.12602,-5.633881 48.55838,0.38792 15.20901,6.818275 35.30012,27.662385 41.27854,42.825671 0.12608,0.320309 6.08555,-2.780696 13.24278,-6.891139 16.34864,-9.389102 32.23773,-13.085605 50.30276,-11.702597 18.26643,1.3984 31.30683,7.886522 47.42333,23.59503 13.39028,13.051316 18.82468,23.975836 21.62709,43.475956 l 1.41012,9.81196 11.75661,0.16841 c 6.4661,0.0924 20.50136,2.95027 31.18943,6.35052 17.19545,5.47054 21.08427,7.75608 33.77621,19.85087 19.33922,18.42928 26.25442,32.96669 27.52474,57.86365 0.56168,11.00879 -0.13899,21.99714 -1.68821,26.47403 -4.49731,12.99646 -15.85641,27.11337 -30.873,38.36837 -13.49808,10.11696 -14.4708,11.45507 -15.92448,21.90628 -2.49349,17.92695 -9.95932,37.57592 -18.44206,48.53669 -10.21342,13.19698 -32.51785,25.30611 -52.67952,28.59989 -13.23951,2.1629 -16.70419,1.89473 -32.39142,-2.50699 -14.05869,-3.94474 -17.90424,-4.35922 -19.25912,-2.07599 -10.58397,17.8368 -27.77942,31.74559 -48.72008,39.40803 -13.33565,4.87972 -43.07149,6.79908 -58.18656,3.7558 z m 58.04415,-10.87142 c 6.24712,-2.53562 15.16107,-7.10476 19.80879,-10.15369 8.76432,-5.74949 24.69976,-25.78608 24.69976,-31.05662 0,-3.50859 6.60109,-8.77343 11.12617,-8.87386 2.00458,-0.0443 2.69808,1.4855 1.93494,4.26879 -1.02016,3.72067 0.93205,4.96309 13.71515,8.72872 12.4626,3.67119 17.11555,4.05099 28.39829,2.31801 33.84852,-5.19888 54.43439,-26.41152 61.48241,-63.35429 1.48716,-7.79505 3.10505,-16.28407 3.59534,-18.86441 0.51746,-2.72347 5.0531,-7.01764 10.81191,-10.2364 19.14542,-10.70078 33.84979,-30.55707 36.76644,-49.64826 1.75702,-11.50041 -3.04227,-36.84115 -9.08967,-47.99445 -2.15228,-3.96941 -9.69304,-12.72954 -16.75733,-19.46698 -10.86829,-10.36538 -15.65643,-13.14304 -31.12583,-18.05644 -12.42107,-3.94517 -23.12776,-5.80664 -33.39863,-5.80664 l -15.11701,0 -1.10769,-14.71789 C 494.13323,120.46413 488.10373,108.28347 473.9657,94.799627 460.47333,81.931578 447.27385,76.511453 429.14419,76.394429 408.08659,76.258583 380.25787,86.5374 374.65596,96.520396 c -3.8322,6.829164 -7.71817,4.686824 -11.90832,-6.564961 -4.8386,-12.992987 -21.80348,-31.515355 -34.54237,-37.713531 -20.94603,-10.19144 -54.80852,-2.617257 -69.98079,15.652916 -7.69918,9.271217 -16.02955,29.861523 -16.02955,39.62046 0,4.05745 -1.18507,6.19996 -3.42931,6.19996 -1.88616,0 -3.42935,-1.03128 -3.42935,-2.2917 0,-4.24174 -16.79822,-9.0319 -31.99146,-9.12259 -18.73752,-0.11189 -31.49825,5.00912 -46.03294,18.47351 -17.17509,15.91033 -22.44553,33.53157 -19.68456,65.81354 0.49491,5.78622 -0.18813,6.44829 -7.45697,7.22831 -20.0369,2.15017 -32.150772,7.348 -44.439542,19.06818 -13.99,13.34267 -19.57449,26.11793 -19.57449,44.77928 0,15.11694 10.27587,36.48222 21.45931,44.61756 8.18469,5.95391 31.686562,16.39432 36.904352,16.39432 4.84336,0 4.13926,3.81182 -1.20826,6.5413 -5.62522,2.87121 -5.88001,10.2721 -0.90388,26.25328 4.33549,13.92365 12.61021,25.96628 27.3919,39.86489 14.67423,13.79755 30.5699,19.48861 57.62138,20.62988 19.35865,0.81669 22.32945,0.38696 33.56529,-4.8559 6.77978,-3.16354 15.45221,-9.14675 19.27204,-13.29603 3.81984,-4.14924 7.46981,-7.54409 8.11103,-7.54409 0.64123,0 5.35954,4.33908 10.4851,9.64235 11.15354,11.54029 41.04152,26.35853 59.36142,29.43094 17.50594,2.93594 38.09208,1.26431 51.51252,-4.18279 z"
       id="path4944"
       inkscape:connector-curvature="0"
       inkscape:export-filename="/Users/santannajj/Desktop/j.png"
       inkscape:export-xdpi="500"
       inkscape:export-ydpi="500" />
    <g
       id="g5242"
       transform="matrix(0.62078617,0,0,0.62078617,53.676144,132.78613)"
       inkscape:export-filename="/Users/santannajj/Desktop/d.png"
       inkscape:export-xdpi="500"
       inkscape:export-ydpi="500">
      <path
         style="fill:#000000"
         d="m 355.11956,237.5592 c -0.62887,-0.5093 -6.269,-8.64348 -12.53361,-18.07597 -6.26461,-9.4325 -11.4623,-17.23486 -11.55039,-17.33858 -0.0881,-0.10387 -1.32138,0.19693 -2.74061,0.66813 -9.42616,3.12952 -20.46155,1.57282 -28.91071,-4.07834 -4.96398,-3.32012 -8.88156,-7.94025 -11.49053,-13.5512 -2.4059,-5.17424 -3.17839,-8.61158 -3.17839,-14.143 0,-12.43411 7.173,-24.03114 18.22187,-29.46046 10.20458,-5.0144 19.80793,-5.0144 30.01251,0 8.34498,4.10065 14.85074,12.10415 17.15152,21.10008 1.19573,4.67528 1.39212,10.9931 0.47793,15.37582 -0.93826,4.49827 -4.3115,11.13171 -7.67976,15.10215 l -3.08322,3.63449 11.573,17.39738 c 10.2489,15.40687 11.57302,17.64284 11.57302,19.54286 0,2.9041 -1.83784,4.78109 -4.66511,4.76453 -1.11876,-0.006 -2.54865,-0.42861 -3.17752,-0.93789 z m -26.93974,-44.71467 c 2.38965,-1.18102 5.07339,-3.06844 6.72778,-4.73155 13.9071,-13.98017 6.2177,-37.45783 -13.34659,-40.75047 -9.76721,-1.6438 -20.47494,3.80071 -24.93674,12.6795 -6.81653,13.56467 -0.47779,28.92926 14.07701,34.12144 2.05802,0.73415 3.95216,0.92186 8.09488,0.80215 4.9889,-0.14415 5.7164,-0.3086 9.38366,-2.12107 z"
         id="path5141"
         inkscape:connector-curvature="0" />
      <path
         inkscape:connector-curvature="0"
         id="path5240"
         d="m 319.1085,192.12501 c -0.17733,-0.15846 -0.26371,-0.32161 -0.29232,-0.55209 -0.0366,-0.29526 0.0146,-0.41493 0.52563,-1.22689 2.39348,-3.80312 3.74935,-7.59843 4.34973,-12.17561 0.16732,-1.27564 0.32607,-3.53332 0.32746,-4.6572 9.4e-4,-0.73982 0.12789,-1.05521 0.50287,-1.24912 0.33974,-0.17569 0.71717,-0.0964 1.01342,0.21277 0.30466,0.318 0.33559,0.75364 0.20739,2.9213 -0.34413,5.81888 -1.77163,10.67045 -4.49231,15.26776 -0.34372,0.58081 -0.75728,1.19732 -0.91901,1.37002 -0.24929,0.26619 -0.34559,0.31399 -0.6326,0.31399 -0.25376,0 -0.40157,-0.0563 -0.59026,-0.22493 z m -4.62568,-0.13495 c -0.19913,-0.19914 -0.27809,-0.35162 -0.27809,-0.53703 0,-0.33096 0.0786,-0.4741 0.69807,-1.27058 1.11201,-1.42986 2.44968,-3.70837 3.17401,-5.40644 0.35627,-0.83521 0.79331,-2.06197 1.08094,-3.03414 0.27305,-0.92293 0.50537,-1.19231 1.02828,-1.19231 0.29572,0 0.3874,0.0448 0.62759,0.30693 0.2569,0.28033 0.27699,0.33826 0.23176,0.6683 -0.0666,0.48597 -0.80463,2.72048 -1.24822,3.77927 -0.45905,1.09567 -1.32672,2.76385 -1.99864,3.84256 -0.63206,1.01474 -1.97075,2.81856 -2.22276,2.99507 -0.0993,0.0695 -0.32326,0.12646 -0.49769,0.12646 -0.25163,0 -0.37461,-0.0575 -0.59525,-0.27809 z m 10.06863,-1.1897 c -0.25941,-0.10618 -0.45294,-0.36901 -0.50417,-0.68473 -0.0395,-0.24344 0.0404,-0.47801 0.48434,-1.42106 1.70059,-3.61282 2.68475,-7.36158 3.09872,-11.80336 0.12658,-1.35817 0.12009,-6.54165 -0.01,-7.80304 -0.0505,-0.49039 -0.14601,-1.1254 -0.21228,-1.41114 -0.79173,-3.41388 -3.48805,-6.29901 -6.93982,-7.42578 -1.15596,-0.37734 -1.9427,-0.49007 -3.40102,-0.48729 -1.16359,0.002 -1.47638,0.0322 -2.26978,0.21763 -0.50611,0.11829 -1.26951,0.36431 -1.69643,0.54671 -0.97754,0.41765 -1.27107,0.42721 -1.64473,0.0535 -0.33386,-0.33386 -0.37287,-0.72446 -0.1062,-1.06347 0.33707,-0.42852 1.84,-1.02885 3.42696,-1.36888 1.23088,-0.26372 3.49893,-0.26275 4.74395,0.002 2.4703,0.52539 4.46759,1.56799 6.20303,3.23805 1.86289,1.79269 2.99246,3.81196 3.50134,6.2591 0.39759,1.91204 0.43068,7.24346 0.065,10.46941 -0.48192,4.25092 -1.67365,8.43694 -3.3583,11.79626 -0.44315,0.88366 -0.81054,1.1194 -1.38081,0.886 z m -15.87765,-0.2824 c -0.33941,-0.15195 -0.52169,-0.42887 -0.52169,-0.79254 0,-0.41688 0.18253,-0.61155 1.24322,-1.32587 1.02769,-0.69209 2.21453,-1.70014 2.74348,-2.33019 0.42973,-0.51185 0.7786,-0.65159 1.19373,-0.47814 0.35362,0.14776 0.56138,0.45011 0.56138,0.817 0,0.39959 -0.0638,0.48643 -1.0923,1.48769 -0.9684,0.94272 -1.82248,1.62872 -2.83549,2.2775 -0.68578,0.43921 -0.93343,0.50524 -1.29233,0.34455 z m 20.69521,-2.12676 c -0.35123,-0.35123 -0.35522,-0.56499 -0.0271,-1.45441 0.88036,-2.3865 1.64927,-5.92659 1.95984,-9.02318 0.28179,-2.8096 0.23138,-8.2942 -0.0943,-10.26492 -0.46684,-2.82457 -1.88715,-5.51741 -3.96894,-7.52488 -0.44318,-0.42736 -0.95937,-0.9139 -1.14708,-1.0812 -0.18771,-0.16729 -0.36604,-0.38212 -0.39628,-0.47741 -0.16993,-0.53538 0.28727,-1.14053 0.86168,-1.14053 0.26332,0 0.41579,0.0803 0.91389,0.48125 2.20266,1.77308 4.00819,4.39139 4.92611,7.14367 0.7073,2.12074 0.87141,3.63001 0.88294,8.12008 0.009,3.34929 -0.13962,5.24836 -0.6352,8.13832 -0.47541,2.77231 -1.62696,6.71154 -2.08617,7.13637 -0.36309,0.33592 -0.82071,0.31546 -1.18934,-0.0532 z m -25.44777,-1.07369 c -0.26457,-0.26458 -0.28503,-0.31908 -0.24687,-0.65766 0.0555,-0.49207 0.19516,-0.62498 0.98629,-0.93836 4.43844,-1.75813 7.13636,-4.79258 7.98866,-8.98512 0.23646,-1.16317 0.32333,-2.52055 0.32614,-5.09628 10e-4,-1.24636 0.0407,-2.36999 0.0916,-2.61735 0.049,-0.23839 0.23279,-0.73434 0.40834,-1.10211 0.96508,-2.02183 3.26758,-2.99147 5.43243,-2.28774 1.561,0.50744 2.73232,1.74767 3.10112,3.28358 0.14531,0.60514 0.32355,3.97582 0.28258,5.34385 l -0.0302,1.00886 -0.26711,0.23847 c -0.36942,0.32981 -0.81401,0.3298 -1.18341,-2e-5 l -0.26712,-0.2385 -0.0179,-0.92704 c -0.01,-0.50988 -0.0609,-1.8288 -0.11351,-2.93096 -0.11481,-2.40647 -0.18052,-2.65609 -0.88445,-3.36002 -0.58693,-0.58693 -1.18089,-0.83015 -2.05135,-0.83998 -1.0457,-0.0118 -1.86111,0.48051 -2.3794,1.43664 l -0.27867,0.51408 -0.0531,3.06721 c -0.0292,1.68696 -0.0962,3.36166 -0.1489,3.72154 -0.79855,5.45346 -3.71562,9.10785 -9.0386,11.32321 -1.00914,0.42 -1.27325,0.42696 -1.65651,0.0437 z m -2.80326,-2.87718 c -0.2311,-0.0841 -0.56459,-0.45613 -0.61513,-0.68623 -0.0664,-0.30221 0.16442,-0.78528 0.44212,-0.92539 0.11765,-0.0593 0.52676,-0.21058 0.90914,-0.33607 1.9441,-0.63797 3.57743,-1.72102 4.39732,-2.91584 0.35894,-0.52307 0.79598,-1.42666 0.9827,-2.03176 0.35372,-1.1463 0.44015,-2.09283 0.50409,-5.52046 0.0601,-3.22369 0.0642,-3.28224 0.2789,-3.99051 0.54371,-1.79377 1.63459,-3.31859 3.23171,-4.51725 2.50363,-1.879 5.66532,-2.34642 8.60555,-1.27222 2.25798,0.82494 4.17158,2.73649 4.98226,4.97691 0.31042,0.8579 0.51901,2.03351 0.47341,2.66818 -0.03,0.41751 -0.0698,0.51386 -0.29569,0.71568 -0.64399,0.57541 -1.48532,0.0884 -1.48532,-0.85972 0,-0.53399 -0.20693,-1.52712 -0.43674,-2.09607 -0.61754,-1.52889 -1.89603,-2.85566 -3.42055,-3.54973 -1.04168,-0.47424 -1.59459,-0.58197 -2.97236,-0.57915 -1.42529,0.003 -1.87281,0.0992 -3.0563,0.65727 -1.55214,0.73195 -2.77258,1.88834 -3.48412,3.30128 -0.54948,1.09111 -0.55398,1.12478 -0.6194,4.62712 -0.0638,3.41692 -0.15024,4.32996 -0.53569,5.66006 -0.90749,3.13155 -3.00201,5.18216 -6.53875,6.40169 -0.94638,0.32632 -1.10845,0.35907 -1.34715,0.27221 z m 13.69201,-0.46591 c -0.38316,-0.38316 -0.36498,-0.6426 0.12131,-1.73133 0.51306,-1.14867 0.85716,-2.23258 1.10786,-3.48975 0.29622,-1.48546 0.37396,-2.53914 0.37396,-5.06886 0,-2.44449 0.0346,-2.68898 0.41852,-2.95789 0.10473,-0.0734 0.33314,-0.13338 0.50757,-0.13338 0.25344,0 0.3747,0.0575 0.60361,0.28646 l 0.28647,0.28647 -0.0396,2.96478 c -0.0409,3.05993 -0.0976,3.71643 -0.46298,5.35596 -0.40331,1.80993 -1.30594,4.1076 -1.77566,4.52002 -0.39612,0.3478 -0.77144,0.33711 -1.14104,-0.0325 z m 20.01579,-0.74894 c -0.42791,-0.36006 -0.4359,-0.45473 -0.17371,-2.05728 0.40261,-2.46073 0.5028,-3.69731 0.54867,-6.77165 0.0461,-3.09044 -0.0589,-5.98319 -0.2628,-7.23861 -0.81052,-4.99076 -3.89461,-9.54859 -8.26033,-12.20755 -2.07237,-1.26219 -4.2021,-2.0525 -6.70653,-2.48872 -0.62613,-0.10906 -1.28781,-0.14267 -2.82183,-0.14336 -2.17635,-9.4e-4 -2.73171,0.0642 -4.58036,0.53757 -3.13374,0.80243 -6.47761,2.81431 -8.64694,5.20253 -1.53189,1.68648 -1.52941,1.68437 -1.92323,1.63156 -0.47155,-0.0632 -0.79895,-0.42095 -0.79895,-0.87294 0,-0.26244 0.0716,-0.41111 0.38321,-0.79619 2.73296,-3.37681 6.44133,-5.80417 10.53605,-6.8965 2.15453,-0.57475 4.80406,-0.79356 6.95714,-0.57454 4.65588,0.47362 8.87639,2.47114 12.176,5.7628 3.18599,3.17829 5.07537,7.11445 5.61806,11.70416 0.0735,0.62144 0.10751,2.17724 0.11001,5.03022 0.004,4.26653 -0.0395,5.06079 -0.41177,7.56578 -0.35803,2.40907 -0.47928,2.70559 -1.14266,2.79455 -0.27901,0.0374 -0.37351,0.009 -0.60003,-0.18183 z m -36.13583,-1.95541 c -0.27249,-0.11852 -0.51649,-0.487 -0.51649,-0.78 0,-0.27174 0.22797,-0.64135 0.47169,-0.76477 0.12295,-0.0623 0.81245,-0.28566 1.53222,-0.49644 2.33067,-0.68252 3.4906,-1.40824 4.02576,-2.51877 0.33175,-0.68841 0.43356,-1.15059 0.50517,-2.29336 0.0569,-0.90766 0.0733,-0.97496 0.29409,-1.20542 0.29495,-0.30786 0.67261,-0.38648 1.01241,-0.21076 0.47495,0.2456 0.53055,0.42499 0.47814,1.54271 -0.0564,1.20257 -0.26189,2.0572 -0.71762,2.98452 -0.58724,1.19492 -1.79647,2.20869 -3.38956,2.84166 -0.65834,0.26157 -3.12946,1.01966 -3.31259,1.01624 -0.0675,-0.001 -0.23992,-0.0533 -0.38322,-0.11561 z m -0.14843,-3.8959 c -0.43979,-0.25623 -0.59576,-0.89259 -0.31648,-1.29132 0.15953,-0.22776 0.58368,-0.41852 0.93056,-0.41852 0.31411,0 0.78982,-0.24016 1.07877,-0.5446 0.45054,-0.4747 0.47465,-0.63549 0.47465,-3.16565 0,-3.3134 0.16526,-4.64409 0.8242,-6.63646 2.28364,-6.9048 9.37974,-11.65887 16.54807,-11.08648 1.8418,0.14707 3.87835,0.59857 5.14027,1.1396 0.71306,0.30571 0.90656,0.98414 0.42428,1.48753 -0.34784,0.36307 -0.51185,0.35932 -1.69381,-0.0387 -4.94701,-1.66591 -10.19048,-0.75239 -14.14731,2.46477 -1.97947,1.60944 -3.68943,4.02866 -4.50628,6.37542 -0.62852,1.80569 -0.7867,3.11766 -0.7887,6.54157 -0.001,1.94826 -0.0203,2.2828 -0.15626,2.71944 -0.43796,1.40717 -1.70305,2.4459 -3.06671,2.51797 -0.35076,0.0185 -0.6466,-0.007 -0.74525,-0.0646 z m -0.74528,-3.34025 c -0.095,-0.0405 -0.25143,-0.17364 -0.34761,-0.29592 -0.16977,-0.21582 -0.17489,-0.29367 -0.17489,-2.66088 0,-2.63471 0.0845,-3.61183 0.45892,-5.30965 0.4282,-1.9415 1.48614,-4.68674 1.93402,-5.01858 0.46946,-0.34783 1.13547,-0.12275 1.35669,0.45848 0.10559,0.27744 0.093,0.32743 -0.31661,1.25261 -0.71344,1.61165 -1.07746,2.80505 -1.40053,4.59155 -0.14607,0.80772 -0.18267,1.41547 -0.22425,3.72427 l -0.0497,2.75904 -0.24944,0.2493 c -0.26754,0.26742 -0.69264,0.37504 -0.9866,0.24978 z m 7.57493,-3.0893 c -0.24879,-0.0905 -0.57193,-0.46947 -0.62033,-0.72744 -0.0742,-0.39545 0.10625,-1.92295 0.33864,-2.86679 0.37301,-1.51496 1.01135,-2.90623 1.90425,-4.15035 0.60055,-0.83677 1.8212,-2.1263 2.13624,-2.2568 0.35998,-0.14911 0.77133,-0.0439 1.02987,0.26333 0.18339,0.21794 0.21181,0.31574 0.17826,0.61335 -0.0356,0.31581 -0.1246,0.44135 -0.82348,1.16158 -1.12678,1.1612 -1.88935,2.38088 -2.40667,3.84927 -0.30994,0.87974 -0.41335,1.38306 -0.54604,2.65751 -0.11372,1.09222 -0.17061,1.22643 -0.59512,1.40387 -0.27658,0.11562 -0.39371,0.12594 -0.59562,0.0525 z"
         style="fill:#000000" />
    </g>
    <path
       inkscape:connector-curvature="0"
       id="path5256"
       d="m 384.84277,274.56547 c -0.28857,-0.19446 -0.68377,-0.58966 -0.87823,-0.87823 -0.351,-0.52086 -0.35356,-0.564 -0.35356,-5.95941 0,-6.12992 0.009,-6.18539 1.14027,-6.93397 l 0.62518,-0.41373 13.08442,0 13.08441,0 0.66176,0.43792 c 1.09356,0.72365 1.10377,0.78754 1.10377,6.90671 0,6.10935 -0.01,6.16997 -1.1824,6.84186 l -0.60581,0.3473 -13.07757,0.002 -13.07758,0.002 -0.52466,-0.35356 z m 32.38787,0.0942 c -0.65089,-0.32078 -1.07578,-0.86154 -1.28371,-1.63379 -0.10394,-0.38602 -0.14679,-2.46836 -0.11711,-5.69421 0.0437,-4.75886 0.0667,-5.11955 0.3577,-5.61362 0.40009,-0.67925 0.95792,-1.0895 1.7225,-1.26683 0.92007,-0.21339 24.95327,-0.19047 25.80744,0.0246 0.82553,0.20787 1.71682,1.10848 1.85813,1.87756 0.052,0.28306 0.0734,2.87122 0.0477,5.75151 -0.0451,5.03159 -0.0597,5.25405 -0.37219,5.67562 -0.17891,0.24131 -0.55662,0.59619 -0.83935,0.78862 l -0.51406,0.34987 -13.07758,-0.004 c -11.74382,-0.002 -13.12978,-0.0293 -13.58939,-0.25579 z m 32.15376,-0.0905 c -0.28273,-0.19243 -0.66044,-0.5473 -0.83936,-0.78862 -0.31253,-0.42155 -0.32712,-0.64403 -0.37218,-5.67562 -0.0259,-2.88027 -0.004,-5.46845 0.0477,-5.75151 0.052,-0.28305 0.34003,-0.78635 0.64005,-1.11845 0.81853,-0.906 1.29683,-0.9648 7.36726,-0.90563 5.15535,0.0502 5.2152,0.0545 5.79707,0.41632 0.32337,0.20104 0.72571,0.6356 0.8941,0.96565 0.28724,0.56303 0.30617,0.93554 0.30617,6.02571 0,5.38584 -0.002,5.42941 -0.35357,5.95022 -0.19446,0.28857 -0.58966,0.68377 -0.87823,0.87823 -0.52236,0.35202 -0.54994,0.35357 -6.30977,0.35357 -5.74343,0 -5.78885,-0.002 -6.2992,-0.34987 z m -64.43709,-17.72915 c -0.33404,-0.19102 -0.75389,-0.54476 -0.93298,-0.78609 -0.31392,-0.42303 -0.32721,-0.63614 -0.37013,-5.93923 -0.0498,-6.15301 -0.039,-6.22979 0.98755,-7.01307 l 0.58729,-0.44811 5.68794,-0.0431 c 5.65219,-0.0429 5.69234,-0.0409 6.38704,0.31099 0.46159,0.23383 0.8173,0.56545 1.04704,0.97612 0.34153,0.61051 0.34795,0.72103 0.34795,5.98662 0,5.26558 -0.006,5.3761 -0.34795,5.98661 -0.22926,0.40983 -0.58439,0.74133 -1.04111,0.97185 -0.6804,0.34343 -0.795,0.34982 -6.21922,0.34731 -5.43137,-0.002 -5.53645,-0.009 -6.13342,-0.34987 z m 17.62894,0.002 c -0.45672,-0.23053 -0.81185,-0.56203 -1.04111,-0.97186 -0.34152,-0.6105 -0.34795,-0.72103 -0.34795,-5.98662 0,-5.26558 0.006,-5.3761 0.34795,-5.9866 0.22926,-0.40983 0.58439,-0.74133 1.04111,-0.97186 l 0.69317,-0.34986 12.80051,0 c 13.91633,0 13.37445,-0.0334 14.21437,0.87494 0.68005,0.73542 0.75137,1.34605 0.75137,6.43338 0,5.08735 -0.0713,5.69797 -0.75137,6.43338 -0.83992,0.90832 -0.29804,0.87497 -14.21437,0.87497 l -12.80051,0 -0.69317,-0.34987 z m 32.50414,0.17517 c -0.21377,-0.0852 -0.55278,-0.30822 -0.75339,-0.49551 -0.79539,-0.74263 -0.80166,-0.79489 -0.80166,-6.68517 0,-5.45275 0.004,-5.50971 0.34987,-6.0189 0.19243,-0.28274 0.5474,-0.66045 0.78882,-0.83936 0.43624,-0.32327 0.52009,-0.32552 13.5282,-0.36306 l 13.08922,-0.0378 0.60737,0.34876 c 0.33405,0.19182 0.75389,0.54633 0.93298,0.78779 0.31665,0.42694 0.32562,0.59668 0.32562,6.16958 0,5.57289 -0.009,5.74265 -0.32562,6.16958 -0.17909,0.24146 -0.59893,0.59531 -0.93298,0.78633 l -0.60737,0.3473 -12.9062,-0.007 c -8.19419,-0.005 -13.0481,-0.0639 -13.29486,-0.16228 z m -49.54675,-17.69791 c -0.70551,-0.17146 -1.38033,-0.70188 -1.67025,-1.31284 -0.21793,-0.45925 -0.25241,-1.27446 -0.25241,-5.96668 0,-5.39542 0.002,-5.43857 0.35356,-5.95941 0.19446,-0.28857 0.59136,-0.68492 0.882,-0.88079 l 0.52844,-0.35611 13.2293,0.0414 c 12.8265,0.0401 13.2414,0.0506 13.62686,0.34359 1.03733,0.78843 0.99745,0.53141 1.04635,6.74555 0.0432,5.49481 0.0357,5.66251 -0.27996,6.17314 -0.17841,0.2887 -0.58327,0.68586 -0.89967,0.8826 l -0.57528,0.3577 -12.7507,0.0251 c -7.01289,0.0138 -12.97009,-0.0282 -13.23824,-0.0933 z m 32.30565,-0.01 c -0.68533,-0.1618 -1.26578,-0.60453 -1.65181,-1.25989 -0.29505,-0.50091 -0.31099,-0.80765 -0.31099,-5.98172 l 0,-5.45374 0.41373,-0.6252 c 0.80039,-1.20944 -0.0824,-1.14028 14.55331,-1.14028 l 13.05408,0 0.51406,0.34987 c 0.28273,0.19243 0.66045,0.5473 0.83935,0.78861 0.31254,0.42156 0.32713,0.64404 0.37219,5.67563 0.0257,2.88027 0.004,5.46845 -0.0477,5.7515 -0.14131,0.76907 -1.03259,1.66968 -1.85813,1.87755 -0.8081,0.20349 -25.0211,0.22003 -25.87813,0.0177 z m 32.11227,-0.0665 c -0.78954,-0.28871 -1.46657,-0.95369 -1.66687,-1.63722 -0.10209,-0.34826 -0.14364,-2.50442 -0.11317,-5.86531 0.0463,-5.10943 0.0608,-5.33155 0.3735,-5.75338 0.17892,-0.24131 0.55662,-0.5962 0.83937,-0.78863 0.51035,-0.34733 0.55577,-0.34987 6.29918,-0.34987 5.75984,0 5.78742,0.001 6.30978,0.35358 0.28857,0.19446 0.68377,0.58966 0.87823,0.87822 0.35098,0.52082 0.35357,0.56438 0.35357,5.95024 0,5.09016 -0.019,5.46268 -0.30616,6.02569 -0.16839,0.33007 -0.57073,0.76462 -0.8941,0.96566 -0.58462,0.36347 -0.61879,0.36575 -6.03032,0.4031 -4.37266,0.0302 -5.56045,-0.005 -6.04302,-0.18208 z"
       style="fill:#000000;stroke:#000000"
       inkscape:export-filename="/Users/santannajj/Desktop/e.png"
       inkscape:export-xdpi="500"
       inkscape:export-ydpi="500" />
    <text
       xml:space="preserve"
       style="font-style:normal;font-weight:normal;font-size:15px;line-height:125%;font-family:sans-serif;letter-spacing:0px;word-spacing:0px;fill:#000000;fill-opacity:1;stroke:none;stroke-width:1px;stroke-linecap:butt;stroke-linejoin:miter;stroke-opacity:1"
       x="231.2487"
       y="293.28778"
       id="text5262"
       sodipodi:linespacing="125%"
       inkscape:export-filename="/Users/santannajj/Desktop/d.png"
       inkscape:export-xdpi="500"
       inkscape:export-ydpi="500"><tspan
         sodipodi:role="line"
         id="tspan5264"
         x="231.2487"
         y="293.28778">S-IDS</tspan></text>
    <text
       sodipodi:linespacing="125%"
       id="text5266"
       y="294.17566"
       x="293.88336"
       style="font-style:normal;font-weight:normal;font-size:15px;line-height:125%;font-family:sans-serif;letter-spacing:0px;word-spacing:0px;fill:#000000;fill-opacity:1;stroke:none;stroke-width:1px;stroke-linecap:butt;stroke-linejoin:miter;stroke-opacity:1"
       xml:space="preserve"
       inkscape:export-filename="/Users/santannajj/Desktop/d.png"
       inkscape:export-xdpi="500"
       inkscape:export-ydpi="500"><tspan
         y="294.17566"
         x="293.88336"
         id="tspan5268"
         sodipodi:role="line">A-IDS</tspan></text>
    <g
       id="g5274"
       transform="matrix(0.62078617,0,0,0.62078617,50.91153,119.98414)"
       style="fill:#ff0000"
       inkscape:export-filename="/Users/santannajj/Desktop/d.png"
       inkscape:export-xdpi="500"
       inkscape:export-ydpi="500">
      <path
         inkscape:connector-curvature="0"
         id="path5248"
         d="m 448.05495,259.61167 c -0.62887,-0.5093 -6.269,-8.64348 -12.53361,-18.07597 -6.26461,-9.4325 -11.4623,-17.23486 -11.55039,-17.33858 -0.0881,-0.10387 -1.32138,0.19693 -2.74061,0.66813 -9.42616,3.12952 -20.46155,1.57282 -28.91071,-4.07834 -4.96398,-3.32012 -8.88156,-7.94025 -11.49053,-13.5512 -2.4059,-5.17424 -3.17839,-8.61158 -3.17839,-14.143 0,-12.43411 7.173,-24.03114 18.22187,-29.46046 10.20458,-5.0144 19.80793,-5.0144 30.01251,0 8.34498,4.10065 14.85074,12.10415 17.15152,21.10008 1.19573,4.67528 1.39212,10.9931 0.47793,15.37582 -0.93826,4.49827 -4.3115,11.13171 -7.67976,15.10215 l -3.08322,3.63449 11.573,17.39738 c 10.2489,15.40687 11.57302,17.64284 11.57302,19.54286 0,2.9041 -1.83784,4.78109 -4.66511,4.76453 -1.11876,-0.006 -2.54865,-0.42861 -3.17752,-0.93789 z M 421.11521,214.897 c 2.38965,-1.18102 5.07339,-3.06844 6.72778,-4.73155 13.9071,-13.98017 6.2177,-37.45783 -13.34659,-40.75047 -9.76721,-1.6438 -20.47494,3.80071 -24.93674,12.6795 -6.81653,13.56467 -0.47779,28.92926 14.07701,34.12144 2.05802,0.73415 3.95216,0.92186 8.09488,0.80215 4.9889,-0.14415 5.7164,-0.3086 9.38366,-2.12107 z"
         style="fill:#ff0000" />
      <text
         sodipodi:linespacing="125%"
         id="text5270"
         y="208.06781"
         x="401.83133"
         style="font-style:normal;font-weight:normal;font-size:45.25013351px;line-height:125%;font-family:sans-serif;letter-spacing:0px;word-spacing:0px;fill:#ff0000;fill-opacity:1;stroke:none;stroke-width:1px;stroke-linecap:butt;stroke-linejoin:miter;stroke-opacity:1"
         xml:space="preserve"><tspan
           y="208.06781"
           x="401.83133"
           id="tspan5272"
           sodipodi:role="line">!</tspan></text>
    </g>
    <text
       xml:space="preserve"
       style="font-style:normal;font-weight:normal;font-size:15px;line-height:125%;font-family:sans-serif;letter-spacing:0px;word-spacing:0px;fill:#000000;fill-opacity:1;stroke:none;stroke-width:1px;stroke-linecap:butt;stroke-linejoin:miter;stroke-opacity:1"
       x="423.14371"
       y="295.07086"
       id="text5279"
       sodipodi:linespacing="125%"
       inkscape:export-filename="/Users/santannajj/Desktop/e.png"
       inkscape:export-xdpi="500"
       inkscape:export-ydpi="500"><tspan
         sodipodi:role="line"
         id="tspan5281"
         x="423.14371"
         y="295.07086"
         style="font-style:normal;font-variant:normal;font-weight:normal;font-stretch:normal;font-size:15px;line-height:125%;font-family:sans-serif;-inkscape-font-specification:'sans-serif, Normal';text-align:center;writing-mode:lr-tb;text-anchor:middle">Web Application</tspan><tspan
         sodipodi:role="line"
         x="423.14371"
         y="313.82086"
         id="tspan4278"
         style="font-style:normal;font-variant:normal;font-weight:normal;font-stretch:normal;font-size:15px;line-height:125%;font-family:sans-serif;-inkscape-font-specification:'sans-serif, Normal';text-align:center;writing-mode:lr-tb;text-anchor:middle">Firewall</tspan></text>
    <g
       id="g5894"
       transform="translate(-132.22529,59.076099)"
       inkscape:export-filename="/Users/santannajj/Desktop/f.png"
       inkscape:export-xdpi="500"
       inkscape:export-ydpi="500">
      <path
         inkscape:connector-curvature="0"
         id="path4666"
         d="m 684.36764,234.56384 c -0.53116,-0.18701 -1.20871,-0.67834 -1.92619,-1.39677 -1.71826,-1.72053 -1.71549,-1.70545 -1.71549,-9.33449 l 0,-6.43154 -10.10566,0 c -5.55811,0 -10.10565,0.0415 -10.10565,0.0922 0,0.0507 1.27003,2.63122 2.8223,5.7345 1.55226,3.10328 2.8223,5.6838 2.8223,5.7345 0,0.0507 -5.24401,0.0922 -11.65337,0.0922 -6.40935,0 -11.65336,-0.0415 -11.65336,-0.0922 0,-0.0507 1.27003,-2.63122 2.8223,-5.7345 1.55226,-3.10328 2.82229,-5.6838 2.82229,-5.7345 0,-0.0507 -6.13073,-0.0922 -13.62385,-0.0922 -15.75346,0 -14.70056,0.1093 -16.52534,-1.71549 -1.87485,-1.87484 -1.71548,0.6722 -1.71548,-27.41793 0,-28.09582 -0.15924,-25.55195 1.71548,-27.40535 1.93248,-1.9105 -1.84374,-1.73 36.17105,-1.72897 37.98671,7.3e-4 34.2615,-0.17592 36.13228,1.71638 1.5975,1.61588 1.73009,2.10917 1.72897,6.43277 l -7.3e-4,3.50512 6.43155,0 c 7.63554,0 7.622,-0.002 9.32043,1.71548 1.89946,1.9213 1.72987,-1.05212 1.72987,30.33128 0,31.38339 0.16959,28.40997 -1.72987,30.33127 -1.76968,1.79005 -1.22166,1.71788 -12.91659,1.70111 -8.65957,-0.0124 -10.13949,-0.0537 -10.84708,-0.30287 z m 12.44701,-6.03709 c 0.8503,-0.56059 1.20688,-1.26546 1.20688,-2.38569 0,-1.12022 -0.35658,-1.82509 -1.20688,-2.38568 -0.70823,-0.46693 -2.33573,-0.46693 -3.04397,0 -0.85029,0.56059 -1.20687,1.26546 -1.20687,2.38568 0,1.12023 0.35658,1.8251 1.20687,2.38569 0.35112,0.23148 0.84646,0.34317 1.52199,0.34317 0.67553,0 1.17086,-0.11169 1.52198,-0.34317 z m 0,-11.65337 c 0.8503,-0.56059 1.20688,-1.26546 1.20688,-2.38569 0,-1.12022 -0.35658,-1.82509 -1.20688,-2.38568 -0.70823,-0.46693 -2.33573,-0.46693 -3.04397,0 -0.85029,0.56059 -1.20687,1.26546 -1.20687,2.38568 0,1.12023 0.35658,1.8251 1.20687,2.38569 0.35112,0.23149 0.84646,0.34317 1.52199,0.34317 0.67553,0 1.17086,-0.11168 1.52198,-0.34317 z M 680.72596,190.5761 c 0,-17.51084 -0.12017,-16.24568 1.71549,-18.06046 1.15746,-1.1443 2.35121,-1.73075 3.51942,-1.72898 l 0.59177,7.4e-4 0,-2.91335 0,-2.91334 -32.04676,0 -32.04676,0 0,20.39339 0,20.3934 29.13342,0 29.13342,0 0,-15.17157 z m 23.30673,0.60486 0,-2.91334 -8.74002,0 -8.74003,0 0,2.91334 0,2.91334 8.74003,0 8.74002,0 0,-2.91334 z m 0,-11.65337 0,-2.91334 -8.74002,0 -8.74003,0 0,2.91334 0,2.91335 8.74003,0 8.74002,0 0,-2.91335 z"
         style="fill:#000000" />
      <path
         inkscape:connector-curvature="0"
         id="path5518"
         d="m 654.15344,204.7714 c -0.0664,-0.0664 -0.12082,-0.51127 -0.12082,-0.9885 0,-0.86451 -0.002,-0.86804 -0.67957,-0.96519 -4.68469,-0.67217 -7.63172,-2.03122 -10.39361,-4.79312 -2.75965,-2.75964 -4.1247,-5.71813 -4.79139,-10.38437 -0.0952,-0.66615 -0.10165,-0.67066 -1.0407,-0.72488 -0.80593,-0.0465 -0.94493,-0.10786 -0.94493,-0.41699 0,-0.30912 0.139,-0.37046 0.94493,-0.41699 0.93905,-0.0542 0.94553,-0.0587 1.0407,-0.72488 0.49912,-3.49342 1.18427,-5.50191 2.62668,-7.69995 2.828,-4.30951 6.91105,-6.77412 12.3771,-7.47107 l 0.86079,-0.10976 0,-0.90068 c 0,-0.66864 0.0768,-0.93015 0.29804,-1.01506 0.44481,-0.17068 0.82394,0.46154 0.75164,1.25342 l -0.0616,0.67462 0.81981,0.10361 c 5.41043,0.68378 9.5168,3.16866 12.33611,7.46492 1.44241,2.19804 2.12756,4.20653 2.62668,7.69995 0.0952,0.66616 0.10165,0.67067 1.0407,0.72488 0.80593,0.0465 0.94493,0.10787 0.94493,0.41699 0,0.30913 -0.139,0.37047 -0.94493,0.41699 -0.93905,0.0542 -0.94553,0.0587 -1.0407,0.72488 -0.49912,3.49342 -1.18427,5.50191 -2.62668,7.69995 -1.75736,2.67799 -3.78201,4.46532 -6.62335,5.84697 -1.59172,0.774 -4.16559,1.52413 -5.25539,1.53164 -1.07822,0.007 -1.29011,0.14799 -1.21342,0.80493 0.10899,0.93361 -0.46965,1.70907 -0.93102,1.24769 z m -0.12082,-6.01209 0,-1.96484 -1.4381,-0.28332 c -2.14571,-0.42273 -3.66138,-1.24283 -5.2701,-2.85154 -1.60872,-1.60872 -2.42882,-3.12439 -2.85155,-5.2701 l -0.28332,-1.43811 -1.98572,0 -1.98571,0 0.12437,1.04202 c 0.69524,5.82457 4.82534,10.71388 10.28473,12.17533 1.5175,0.40623 1.99563,0.49633 2.81644,0.53072 l 0.58896,0.0247 0,-1.96484 z m 4.34663,1.40974 c 5.47215,-1.51641 9.55641,-6.36816 10.24961,-12.17563 l 0.12437,-1.04202 -1.98571,0 -1.98572,0 -0.28332,1.43811 c -0.42273,2.14571 -1.24283,3.66138 -2.85155,5.2701 -1.59927,1.59927 -3.12377,2.42869 -5.22479,2.84262 l -1.3928,0.27439 0,1.99205 0,1.99204 1.02648,-0.11613 c 0.56457,-0.0639 1.61011,-0.27786 2.32343,-0.47553 z m -4.34663,-7.39843 0,-1.79203 -0.61339,-0.11508 c -1.37975,-0.25884 -3.03987,-1.91896 -3.29872,-3.29871 l -0.11507,-0.6134 -1.79204,0 c -1.76967,0 -1.79203,0.005 -1.79203,0.43396 0,1.70183 1.55695,4.38533 3.27686,5.64786 1.00532,0.73797 2.96415,1.51657 3.83604,1.52476 l 0.49835,0.005 0,-1.79203 z m 2.93705,1.43281 c 2.36023,-0.729 4.48998,-2.85404 5.21593,-5.20439 0.20041,-0.64884 0.36438,-1.375 0.36438,-1.61368 0,-0.42854 -0.0224,-0.43396 -1.79204,-0.43396 l -1.79203,0 -0.11507,0.6134 c -0.25485,1.35845 -1.91712,3.03952 -3.25341,3.29021 l -0.56809,0.10658 0,1.80053 c 0,2.09288 -0.0497,2.05597 1.94033,1.44131 z m -12.4968,-9.59623 c 0.42037,-2.13373 1.24516,-3.65885 2.85328,-5.27603 1.59316,-1.60213 3.06701,-2.40183 5.26374,-2.85606 l 1.44273,-0.29833 0,-1.97552 0,-1.97552 -1.07179,0.12126 c -6.62389,0.74941 -11.81908,5.96022 -12.61834,12.65628 l -0.12437,1.04202 1.98571,0 1.98572,0 0.28332,-1.4381 z m 5.64764,0.8247 c 0.25885,-1.37974 1.91897,-3.03987 3.29872,-3.29871 l 0.61339,-0.11507 0,-1.79204 c 0,-1.76967 -0.005,-1.79203 -0.43396,-1.79203 -0.91482,0 -2.82485,0.75191 -3.87636,1.52599 -0.59563,0.43847 -1.42036,1.26839 -1.83273,1.84426 -0.73034,1.01992 -1.4682,2.93317 -1.4682,3.80704 0,0.42854 0.0224,0.43396 1.79203,0.43396 l 1.79204,0 0.11507,-0.6134 z m 12.42947,0.17944 c 0,-0.87387 -0.73786,-2.78712 -1.4682,-3.80704 -0.96658,-1.34981 -2.58897,-2.54058 -4.09541,-3.00588 -2.00885,-0.62047 -1.95703,-0.65849 -1.95703,1.43616 l 0,1.80054 0.56809,0.10657 c 1.33629,0.25069 2.99856,1.93176 3.25341,3.29021 l 0.11507,0.6134 1.79203,0 c 1.76968,0 1.79204,-0.005 1.79204,-0.43396 z m 6.07888,-0.60806 c -0.79674,-6.67495 -5.99511,-11.90572 -12.57304,-12.65138 l -1.02648,-0.11637 0,1.96663 0,1.96663 1.41096,0.30899 c 2.18779,0.4791 3.63024,1.26987 5.2049,2.85339 1.60812,1.61718 2.43291,3.1423 2.85328,5.27603 l 0.28332,1.4381 1.98572,0 1.98571,0 -0.12437,-1.04202 z"
         style="fill:#ff0000" />
    </g>
    <g
       id="g4274"
       transform="translate(-12,0)"
       inkscape:export-filename="/Users/santannajj/Desktop/c.png"
       inkscape:export-xdpi="500"
       inkscape:export-ydpi="500">
      <path
         inkscape:connector-curvature="0"
         id="path5683"
         d="m 128.25232,276.61486 c -0.28857,-0.19446 -0.68377,-0.58966 -0.87823,-0.87823 -0.351,-0.52086 -0.35356,-0.564 -0.35356,-5.95941 0,-6.12992 0.009,-6.18539 1.14027,-6.93397 l 0.62518,-0.41373 13.08442,0 13.08441,0 0.66176,0.43792 c 1.09356,0.72365 1.10377,0.78754 1.10377,6.90671 0,6.10935 -0.01,6.16997 -1.1824,6.84186 l -0.60581,0.3473 -13.07757,0.002 -13.07758,0.002 -0.52466,-0.35356 z m 32.38787,0.0942 c -0.65089,-0.32078 -1.07578,-0.86154 -1.28371,-1.63379 -0.10394,-0.38602 -0.14679,-2.46836 -0.11711,-5.69421 0.0437,-4.75886 0.0667,-5.11955 0.3577,-5.61362 0.40009,-0.67925 0.95792,-1.0895 1.7225,-1.26683 0.92007,-0.21339 24.95327,-0.19047 25.80744,0.0246 0.82553,0.20787 1.71682,1.10848 1.85813,1.87756 0.052,0.28306 0.0734,2.87122 0.0477,5.75151 -0.0451,5.03159 -0.0597,5.25405 -0.37219,5.67562 -0.17891,0.24131 -0.55662,0.59619 -0.83935,0.78862 l -0.51406,0.34987 -13.07758,-0.004 c -11.74382,-0.002 -13.12978,-0.0293 -13.58939,-0.25579 z m 32.15376,-0.0905 c -0.28273,-0.19243 -0.66044,-0.5473 -0.83936,-0.78862 -0.31253,-0.42155 -0.32712,-0.64403 -0.37218,-5.67562 -0.0259,-2.88027 -0.004,-5.46845 0.0477,-5.75151 0.052,-0.28305 0.34003,-0.78635 0.64005,-1.11845 0.81853,-0.906 1.29683,-0.9648 7.36726,-0.90563 5.15535,0.0502 5.2152,0.0545 5.79707,0.41632 0.32337,0.20104 0.72571,0.6356 0.8941,0.96565 0.28724,0.56303 0.30617,0.93554 0.30617,6.02571 0,5.38584 -0.002,5.42941 -0.35357,5.95022 -0.19446,0.28857 -0.58966,0.68377 -0.87823,0.87823 -0.52236,0.35202 -0.54994,0.35357 -6.30977,0.35357 -5.74343,0 -5.78885,-0.002 -6.2992,-0.34987 z m -64.43709,-17.72915 c -0.33404,-0.19102 -0.75389,-0.54476 -0.93298,-0.78609 -0.31392,-0.42303 -0.32721,-0.63614 -0.37013,-5.93923 -0.0498,-6.15301 -0.039,-6.22979 0.98755,-7.01307 l 0.58729,-0.44811 5.68794,-0.0431 c 5.65219,-0.0429 5.69234,-0.0409 6.38704,0.31099 0.46159,0.23383 0.8173,0.56545 1.04704,0.97612 0.34153,0.61051 0.34795,0.72103 0.34795,5.98662 0,5.26558 -0.006,5.3761 -0.34795,5.98661 -0.22926,0.40983 -0.58439,0.74133 -1.04111,0.97185 -0.6804,0.34343 -0.795,0.34982 -6.21922,0.34731 -5.43137,-0.002 -5.53645,-0.009 -6.13342,-0.34987 z m 17.62894,0.002 c -0.45672,-0.23053 -0.81185,-0.56203 -1.04111,-0.97186 -0.34152,-0.6105 -0.34795,-0.72103 -0.34795,-5.98662 0,-5.26558 0.006,-5.3761 0.34795,-5.9866 0.22926,-0.40983 0.58439,-0.74133 1.04111,-0.97186 l 0.69317,-0.34986 12.80051,0 c 13.91633,0 13.37445,-0.0334 14.21437,0.87494 0.68005,0.73542 0.75137,1.34605 0.75137,6.43338 0,5.08735 -0.0713,5.69797 -0.75137,6.43338 -0.83992,0.90832 -0.29804,0.87497 -14.21437,0.87497 l -12.80051,0 -0.69317,-0.34987 z m 32.50414,0.17517 c -0.21377,-0.0852 -0.55278,-0.30822 -0.75339,-0.49551 -0.79539,-0.74263 -0.80166,-0.79489 -0.80166,-6.68517 0,-5.45275 0.004,-5.50971 0.34987,-6.0189 0.19243,-0.28274 0.5474,-0.66045 0.78882,-0.83936 0.43624,-0.32327 0.52009,-0.32552 13.5282,-0.36306 l 13.08922,-0.0378 0.60737,0.34876 c 0.33405,0.19182 0.75389,0.54633 0.93298,0.78779 0.31665,0.42694 0.32562,0.59668 0.32562,6.16958 0,5.57289 -0.009,5.74265 -0.32562,6.16958 -0.17909,0.24146 -0.59893,0.59531 -0.93298,0.78633 l -0.60737,0.3473 -12.9062,-0.007 c -8.19419,-0.005 -13.0481,-0.0639 -13.29486,-0.16228 z m -49.54675,-17.69791 c -0.70551,-0.17146 -1.38033,-0.70188 -1.67025,-1.31284 -0.21793,-0.45925 -0.25241,-1.27446 -0.25241,-5.96668 0,-5.39542 0.002,-5.43857 0.35356,-5.95941 0.19446,-0.28857 0.59136,-0.68492 0.882,-0.88079 l 0.52844,-0.35611 13.2293,0.0414 c 12.8265,0.0401 13.2414,0.0506 13.62686,0.34359 1.03733,0.78843 0.99745,0.53141 1.04635,6.74555 0.0432,5.49481 0.0357,5.66251 -0.27996,6.17314 -0.17841,0.2887 -0.58327,0.68586 -0.89967,0.8826 l -0.57528,0.3577 -12.7507,0.0251 c -7.01289,0.0138 -12.97009,-0.0282 -13.23824,-0.0933 z m 32.30565,-0.01 c -0.68533,-0.1618 -1.26578,-0.60453 -1.65181,-1.25989 -0.29505,-0.50091 -0.31099,-0.80765 -0.31099,-5.98172 l 0,-5.45374 0.41373,-0.6252 c 0.80039,-1.20944 -0.0824,-1.14028 14.55331,-1.14028 l 13.05408,0 0.51406,0.34987 c 0.28273,0.19243 0.66045,0.5473 0.83935,0.78861 0.31254,0.42156 0.32713,0.64404 0.37219,5.67563 0.0257,2.88027 0.004,5.46845 -0.0477,5.7515 -0.14131,0.76907 -1.03259,1.66968 -1.85813,1.87755 -0.8081,0.20349 -25.0211,0.22003 -25.87813,0.0177 z m 32.11227,-0.0665 c -0.78954,-0.28871 -1.46657,-0.95369 -1.66687,-1.63722 -0.10209,-0.34826 -0.14364,-2.50442 -0.11317,-5.86531 0.0463,-5.10943 0.0608,-5.33155 0.3735,-5.75338 0.17892,-0.24131 0.55662,-0.5962 0.83937,-0.78863 0.51035,-0.34733 0.55577,-0.34987 6.29918,-0.34987 5.75984,0 5.78742,0.001 6.30978,0.35358 0.28857,0.19446 0.68377,0.58966 0.87823,0.87822 0.35098,0.52082 0.35357,0.56438 0.35357,5.95024 0,5.09016 -0.019,5.46268 -0.30616,6.02569 -0.16839,0.33007 -0.57073,0.76462 -0.8941,0.96566 -0.58462,0.36347 -0.61879,0.36575 -6.03032,0.4031 -4.37266,0.0302 -5.56045,-0.005 -6.04302,-0.18208 z"
         style="fill:#000000;stroke:#000000" />
      <path
         inkscape:connector-curvature="0"
         id="path5681"
         d="m 167.20257,267.88164 c -1.51385,-0.23063 -2.55406,-0.54572 -3.70048,-1.1209 -3.4002,-1.70597 -5.98005,-4.94675 -6.73593,-8.46158 -0.17151,-0.79756 -0.17534,-2.36829 -0.007,-3.06654 0.16373,-0.68101 0.81825,-2.35152 1.2624,-3.22195 0.47784,-0.93647 1.20146,-1.99994 2.06424,-3.03371 1.31161,-1.57156 2.01203,-2.81291 2.38452,-4.22603 0.16133,-0.61205 0.19969,-0.94017 0.20212,-1.72842 0.001,-0.53511 -0.0359,-1.12961 -0.0833,-1.3211 -0.0475,-0.19148 -0.0678,-0.36661 -0.0451,-0.38917 0.0688,-0.0684 0.77616,0.78239 1.09841,1.3211 0.45015,0.75254 0.76713,1.57911 0.95589,2.49267 0.14797,0.71613 0.16348,0.98111 0.12752,2.17748 -0.0225,0.74917 -0.0635,1.44969 -0.091,1.55672 -0.044,0.17097 -0.0151,0.15681 0.23825,-0.11676 0.41595,-0.44918 1.08707,-1.49621 1.43516,-2.23899 1.48023,-3.15875 0.99664,-6.47142 -1.40749,-9.64157 -0.27154,-0.35806 -0.90494,-1.07009 -1.40755,-1.5823 -0.50262,-0.51221 -0.90165,-0.94347 -0.88676,-0.95838 0.0499,-0.0499 1.00627,0.14384 2.04788,0.4148 3.53753,0.92027 6.67647,2.74416 8.65785,5.03068 3.29433,3.80168 4.14458,8.87013 2.562,15.27246 -0.1259,0.50932 -0.21756,0.93738 -0.20368,0.95125 0.0878,0.0879 0.80277,-0.39662 1.27056,-0.86099 1.18191,-1.17328 1.81618,-3.2274 1.82315,-5.90447 0.003,-1.11416 0.004,-1.114 0.63722,0.1402 2.11296,4.18282 2.04684,8.58076 -0.1808,12.02543 -0.63446,0.98107 -1.22327,1.68702 -2.14351,2.56992 -2.06355,1.97983 -4.34535,3.26038 -6.72166,3.77221 -0.56879,0.12252 -2.67151,0.2212 -3.15235,0.14794 z"
         style="fill:#ff0000;stroke:#ffff00;stroke-width:0.66412276" />
    </g>
    <text
       sodipodi:linespacing="125%"
       id="text5685"
       y="292.92337"
       x="126.47557"
       style="font-style:normal;font-weight:normal;font-size:15px;line-height:125%;font-family:sans-serif;letter-spacing:0px;word-spacing:0px;fill:#000000;fill-opacity:1;stroke:none;stroke-width:1px;stroke-linecap:butt;stroke-linejoin:miter;stroke-opacity:1"
       xml:space="preserve"
       inkscape:export-filename="/Users/santannajj/Desktop/c.png"
       inkscape:export-xdpi="500"
       inkscape:export-ydpi="500"><tspan
         y="292.92337"
         x="126.47557"
         id="tspan5687"
         sodipodi:role="line">Network</tspan><tspan
         y="311.67337"
         x="126.47557"
         sodipodi:role="line"
         id="tspan4739">Firewall</tspan></text>
    <path
       style="fill:#000000"
       d="m -22.201632,409.76263 -0.53824,-0.42338 0,-28.9924 0,-28.99241 26.1473603,0 26.1473697,0 0,28.91438 0,28.91438 -0.50141,0.5014 -0.50141,0.50141 -25.1077197,0 c -25.0914803,0 -25.1080603,-2.1e-4 -25.6459503,-0.42338 z M 7.2479183,394.94287 c 3.1121597,-0.81061 5.2901197,-2.06348 7.5965397,-4.3699 2.34273,-2.34273 3.54408,-4.45414 4.42934,-7.7847 0.47743,-1.79618 0.46601,-5.52503 -0.0227,-7.43137 -1.2775,-4.98253 -4.53879,-8.89468 -9.21662,-11.05597 -2.1968197,-1.01499 -3.9047298,-1.36861 -6.6269197,-1.37209 -2.92447004,-0.004 -4.48248,0.36661 -7.34891,1.74681 -1.9084405,0.91892 -2.3517005,1.24296 -4.0982405,2.99594 -1.72778,1.73417 -2.0812998,2.2181 -3.0027498,4.11048 -0.57442,1.17969 -1.20547,2.78837 -1.40234,3.57483 -0.48815,1.9502 -0.4839,5.63692 0.009,7.55822 1.72971,6.74624 7.2968798,11.61832 14.2093403,12.43526 1.17687,0.13909 4.2560599,-0.0901 5.47463,-0.40751 z m -7.00422004,-3.05095 c -2.31172996,-0.58144 -4.13590996,-1.6562 -6.03591046,-3.5562 -2.69549,-2.69549 -3.86794,-5.4841 -3.86794,-9.19971 0,-3.7156 1.17245,-6.50422 3.86794,-9.1997 2.6954905,-2.69549 5.48410046,-3.86794 9.1997005,-3.86794 3.71605,0 6.50485,1.17263 9.1988997,3.86794 1.36886,1.3695 1.91238,2.09415 2.53317,3.3773 0.43471,0.89853 0.832,2.00304 0.88288,2.45447 0.0865,0.76796 0.0418,0.85352 -0.69469,1.32957 -1.08585,0.70181 -1.48221,1.82377 -1.02716,2.90752 0.19437,0.46288 0.60953,0.93662 1.04705,1.19477 0.87943,0.51887 0.94197,1.12434 0.27878,2.6987 -1.51989,3.60807 -4.55575,6.48734 -8.1333997,7.71387 -1.7290001,0.59275 -5.43549,0.73561 -7.24932004,0.27941 z m -3.09454996,-6.73067 c 0.0564,-0.14688 -0.14285,-0.94216 -0.4427,-1.76728 -0.4897,-1.3476 -0.54516,-1.7808 -0.54516,-4.25796 0,-2.47715 0.0555,-2.91036 0.54516,-4.25795 0.55499,-1.52721 0.56419,-1.9558 0.0463,-2.15454 -0.49115,-0.18847 -0.85845,0.0762 -1.5057405,1.08489 -2.0614,3.21241 -2.04681,7.77783 0.0341,10.67569 0.3484805,0.48529 0.7209705,0.94001 0.8277805,1.01051 0.27982,0.1847 0.92023,-0.0205 1.04028,-0.33336 z m -19.8890203,-41.47645 0,-6.03544 0.50141,-0.50141 0.50141,-0.5014 8.48675,0 8.4867498,0 0,6.29171 c 0,4.62118 -0.0651,6.35679 -0.24514,6.53684 -0.18302,0.18302 -2.46039,0.24513 -8.9881498,0.24513 l -8.74303,0 0,-6.03543 z m 14.1107798,0.53568 c 0.75527,-0.75527 0.75527,-1.31891 0,-2.07419 l -0.59712,-0.59712 -4.5254998,0 -4.52551,0 -0.59712,0.59712 c -0.32841,0.32841 -0.59711,0.79511 -0.59711,1.0371 0,0.24198 0.2687,0.70868 0.59711,1.03709 l 0.59712,0.59712 4.52551,0 4.5254998,0 0.59712,-0.59712 z m 5.7448705,5.25462 c -0.18004,-0.18005 -0.24513,-1.91566 -0.24513,-6.53684 l 0,-6.29171 15.8406997,0 15.84069,0 0.50141,0.5014 0.50141,0.50141 0,6.03544 0,6.03543 -16.09697,0 c -12.2474997,0 -16.1555997,-0.0586 -16.3421097,-0.24513 z m 18.3440097,-4.42302 c 0.28089,-0.2055 0.64048,-0.74069 0.79909,-1.18931 0.26172,-0.74018 0.25227,-0.88974 -0.10216,-1.61571 -0.54557,-1.11761 -1.66079,-1.6581 -2.74872,-1.33215 -1.46649,0.43937 -2.1402,1.90576 -1.48842,3.23964 0.68322,1.39819 2.29674,1.80726 3.54018,0.89753 z m 8.17105,0 c 0.28088,-0.2055 0.64048,-0.74069 0.7991,-1.18931 0.26172,-0.74018 0.25226,-0.88974 -0.10217,-1.61571 -0.54557,-1.11761 -1.6608,-1.6581 -2.74871,-1.33215 -1.46649,0.43937 -2.14022,1.90576 -1.48842,3.23964 0.68321,1.39819 2.29673,1.80726 3.54018,0.89753 z"
       id="path5882"
       inkscape:connector-curvature="0"
       inkscape:export-filename="/Users/santannajj/Desktop/i.png"
       inkscape:export-xdpi="500"
       inkscape:export-ydpi="500" />
    <text
       xml:space="preserve"
       style="font-style:normal;font-variant:normal;font-weight:normal;font-stretch:normal;font-size:15px;line-height:125%;font-family:sans-serif;-inkscape-font-specification:'sans-serif, Normal';text-align:center;letter-spacing:0px;word-spacing:0px;writing-mode:lr-tb;text-anchor:middle;fill:#000000;fill-opacity:1;stroke:none;stroke-width:1px;stroke-linecap:butt;stroke-linejoin:miter;stroke-opacity:1"
       x="1.302658"
       y="424.74655"
       id="text5884"
       sodipodi:linespacing="125%"
       inkscape:export-filename="/Users/santannajj/Desktop/i.png"
       inkscape:export-xdpi="500"
       inkscape:export-ydpi="500"><tspan
         sodipodi:role="line"
         id="tspan5886"
         x="1.302658"
         y="424.74655">Third-Party</tspan><tspan
         sodipodi:role="line"
         x="1.302658"
         y="443.49655"
         id="tspan4264">Scrubber</tspan></text>
    <g
       id="g4268"
       inkscape:export-filename="/Users/santannajj/Desktop/b.png"
       inkscape:export-xdpi="500"
       inkscape:export-ydpi="500">
      <g
         transform="matrix(1.3465387,0,0,1.3465387,-206.82905,170.68882)"
         id="g5289">
        <path
           style="fill:#ffffff;fill-opacity:1;stroke:none;stroke-width:2.7019484;stroke-miterlimit:4;stroke-dasharray:none;stroke-dashoffset:0;stroke-opacity:1"
           id="path5287"
           sodipodi:type="arc"
           sodipodi:cx="203.67149"
           sodipodi:cy="58.51366"
           sodipodi:rx="23.648874"
           sodipodi:ry="23.648785"
           sodipodi:start="0"
           sodipodi:end="6.2123773"
           sodipodi:open="true"
           d="M 227.32037,58.51366 A 23.648874,23.648785 0 0 1 204.0901,82.15874 23.648874,23.648785 0 0 1 180.03744,59.350747 23.648874,23.648785 0 0 1 202.41619,34.898216 23.648874,23.648785 0 0 1 227.26111,56.840536" />
        <path
           style="fill:#000000"
           d="m 197.72078,82.987172 c -1.15465,-0.27647 -3.59514,-1.23947 -5.42332,-2.14 -2.75023,-1.35471 -3.84037,-2.15372 -6.31572,-4.62907 -2.47791,-2.47792 -3.27253,-3.56266 -4.62659,-6.31572 -2.04097,-4.149696 -2.69169,-6.899634 -2.69829,-11.402981 -0.0104,-7.042038 2.31107,-12.632212 7.32972,-17.650856 5.023,-5.023014 10.59627,-7.334886 17.68235,-7.334886 7.08608,0 12.65935,2.311872 17.68236,7.334886 5.02301,5.023014 7.33488,10.596286 7.33488,17.682363 0,7.0751 -2.29849,12.607954 -7.34772,17.687194 -5.00619,5.03593 -10.70515,7.34305 -18.0194,7.29482 -1.92441,-0.0127 -4.44363,-0.24928 -5.59827,-0.52575 z m 12.86737,-2.88853 c 5.92219,-2.10309 10.63634,-6.14146 13.14164,-11.257783 1.87122,-3.821411 2.50714,-6.406361 2.50714,-10.191299 0,-4.109093 -0.47513,-6.178314 -2.27678,-9.915612 -3.88534,-8.05965 -11.36005,-12.760115 -20.29122,-12.760115 -8.93117,0 -16.40588,4.700465 -20.29122,12.760115 -1.80165,3.737298 -2.27678,5.806519 -2.27678,9.915612 0,3.784938 0.63592,6.369888 2.50714,10.191299 2.91834,5.959833 9.27926,10.734813 16.03711,12.038663 2.14634,0.41411 8.94384,-0.0709 10.94297,-0.78088 z m -9.29627,-0.61869 c -0.13592,-0.13593 -0.24714,-2.42521 -0.24714,-5.0873 l 0,-4.840164 -1.74945,0 c -0.9622,0 -1.74946,-0.083 -1.74946,-0.184465 0,-0.322385 6.10059,-7.513149 6.3741,-7.513149 0.34534,0 5.66421,6.913997 5.81029,7.552775 0.0847,0.370406 -0.28651,0.494733 -1.47717,0.494733 l -1.59029,0 -0.0974,4.81101 -0.0973,4.811 -2.46453,0.10135 c -1.3555,0.0557 -2.57574,-0.01 -2.71166,-0.14579 z m -8.64453,-16.915686 0,-1.739857 -4.98595,-0.09708 -4.98596,-0.09708 0,-2.624187 0,-2.624187 4.81101,-0.09735 4.81101,-0.09734 0,-1.564642 c 0,-0.891231 0.16334,-1.564634 0.37951,-1.564634 0.20873,0 2.02084,1.271035 4.02693,2.824526 2.54487,1.970719 3.56713,2.965272 3.38182,3.290153 -0.26674,0.467648 -6.99534,6.131521 -7.28415,6.131521 -0.0848,0 -0.15422,-0.782934 -0.15422,-1.739848 z m 18.24658,-1.258165 c -1.95312,-1.63612 -3.54459,-3.166042 -3.53659,-3.399815 0.0148,-0.430242 6.13438,-5.328955 7.13848,-5.714259 0.44399,-0.170378 0.54458,0.08696 0.54458,1.393089 l 0,1.602074 4.81101,0.09734 4.81101,0.09735 0.10219,2.711661 0.10219,2.71166 -4.9132,0 -4.9132,0 0,1.553863 c 0,0.85462 -0.13394,1.636647 -0.29766,1.737827 -0.16372,0.101189 -1.89568,-1.15467 -3.84881,-2.79079 z m -7.2759,-6.366943 c -0.22044,-0.141384 -1.69512,-1.831571 -3.27706,-3.75597 l -2.87626,-3.498921 1.78052,-0.10543 1.78052,-0.105429 0.097,-4.967997 0.097,-4.967998 2.62419,0 2.62419,0 0.0973,4.811007 0.0974,4.811015 1.56464,0 c 0.9148,0 1.56463,0.161577 1.56463,0.389035 0,0.29442 -5.5322,7.679719 -5.73281,7.653109 -0.0222,-0.0026 -0.22076,-0.121036 -0.44119,-0.262421 z"
           id="path4563"
           inkscape:connector-curvature="0" />
      </g>
      <path
         style="fill:#ff0000"
         d="m 67.858638,263.7557 c -0.0531,-0.0531 -0.0967,-0.40918 -0.0967,-0.79112 0,-0.69188 -0.001,-0.69471 -0.54387,-0.77246 -3.74925,-0.53795 -6.10781,-1.62562 -8.3182,-3.83602 -2.2086,-2.20859 -3.30107,-4.57632 -3.83464,-8.3108 -0.0762,-0.53313 -0.0813,-0.53674 -0.83288,-0.58014 -0.64501,-0.0372 -0.75625,-0.0863 -0.75625,-0.33372 0,-0.2474 0.11124,-0.29648 0.75625,-0.33372 0.75153,-0.0434 0.75671,-0.047 0.83288,-0.58014 0.39946,-2.79584 0.9478,-4.40327 2.10218,-6.16241 2.2633,-3.44897 5.53104,-5.42145 9.90562,-5.97923 l 0.68891,-0.0878 0,-0.72083 c 0,-0.53513 0.0615,-0.74442 0.23853,-0.81237 0.35598,-0.1366 0.65941,0.36937 0.60155,1.00313 l -0.0493,0.53991 0.65611,0.0829 c 4.33006,0.54725 7.61647,2.53594 9.87282,5.97431 1.15438,1.75914 1.70272,3.36657 2.10217,6.16241 0.0762,0.53314 0.0813,0.53675 0.8329,0.58014 0.64499,0.0372 0.75624,0.0863 0.75624,0.33372 0,0.24741 -0.11125,0.2965 -0.75624,0.33372 -0.75155,0.0434 -0.75673,0.047 -0.8329,0.58014 -0.39945,2.79585 -0.94779,4.40328 -2.10217,6.16241 -1.40645,2.14325 -3.02682,3.57368 -5.30079,4.67944 -1.27388,0.61944 -3.3338,1.21979 -4.20599,1.2258 -0.86292,0.005 -1.03249,0.11844 -0.97112,0.6442 0.0872,0.74718 -0.37587,1.3678 -0.74511,0.99855 z m -0.0967,-4.81159 0,-1.57249 -1.15094,-0.22675 c -1.71725,-0.33832 -2.93026,-0.99466 -4.21775,-2.28214 -1.28749,-1.28749 -1.94383,-2.50051 -2.28215,-4.21776 l -0.22675,-1.15094 -1.58921,0 -1.5892,0 0.0995,0.83395 c 0.55641,4.6615 3.86181,8.57451 8.23106,9.74413 1.21448,0.32511 1.59714,0.39722 2.25405,0.42475 l 0.47135,0.0197 0,-1.5725 z m 3.47868,1.12824 c 4.37947,-1.21361 7.64817,-5.09655 8.20295,-9.74437 l 0.0995,-0.83395 -1.5892,0 -1.58921,0 -0.22674,1.15094 c -0.33832,1.71725 -0.99466,2.93027 -2.28215,4.21776 -1.27993,1.27993 -2.50001,1.94372 -4.1815,2.275 l -1.11468,0.2196 0,1.59427 0,1.59426 0.82151,-0.0929 c 0.45184,-0.0512 1.28861,-0.22238 1.85948,-0.38058 z m -3.47868,-5.9211 0,-1.43419 -0.49091,-0.0921 c -1.10424,-0.20716 -2.43286,-1.53578 -2.64002,-2.64002 l -0.0921,-0.49091 -1.4342,0 c -1.4163,0 -1.4342,0.004 -1.4342,0.3473 0,1.36201 1.24606,3.50966 2.62254,4.52008 0.80457,0.59062 2.37226,1.21374 3.07005,1.2203 l 0.39884,0.004 0,-1.43419 z m 2.35057,1.14671 c 1.88894,-0.58343 3.59341,-2.28414 4.1744,-4.16517 0.1604,-0.51928 0.29163,-1.10044 0.29163,-1.29146 0,-0.34296 -0.0179,-0.3473 -1.43421,-0.3473 l -1.43419,0 -0.0921,0.49091 c -0.20396,1.0872 -1.53431,2.43258 -2.60377,2.63322 l -0.45465,0.0853 0,1.441 c 0,1.67497 -0.0398,1.64543 1.55288,1.15351 z m -10.00141,-7.68004 c 0.33643,-1.70766 0.99652,-2.92824 2.28353,-4.2225 1.27503,-1.28222 2.45458,-1.92223 4.21267,-2.28576 l 1.15464,-0.23876 0,-1.58104 0,-1.58105 -0.85777,0.097 c -5.30122,0.59977 -9.45902,4.77007 -10.09869,10.12906 l -0.0995,0.83394 1.5892,0 1.58921,0 0.22675,-1.15094 z m 4.51991,0.66002 c 0.20716,-1.10423 1.53578,-2.43286 2.64002,-2.64002 l 0.49091,-0.0921 0,-1.43421 c 0,-1.41629 -0.004,-1.43419 -0.34731,-1.43419 -0.73215,0 -2.26078,0.60176 -3.10232,1.22128 -0.47669,0.35091 -1.13674,1.01511 -1.46677,1.47599 -0.5845,0.81626 -1.17503,2.34747 -1.17503,3.04684 0,0.34297 0.0179,0.34731 1.4342,0.34731 l 1.4342,0 0.0921,-0.49092 z m 9.94753,0.14361 c 0,-0.69937 -0.59052,-2.23058 -1.17503,-3.04684 -0.77357,-1.08028 -2.072,-2.03327 -3.27764,-2.40566 -1.60771,-0.49657 -1.56624,-0.52701 -1.56624,1.14938 l 0,1.44101 0.45465,0.0853 c 1.06946,0.20063 2.39981,1.54602 2.60377,2.63321 l 0.0921,0.49092 1.43419,0 c 1.41631,0 1.43421,-0.004 1.43421,-0.34731 z m 4.86503,-0.48663 c -0.63765,-5.34209 -4.79799,-9.52837 -10.06243,-10.12514 l -0.82151,-0.0931 0,1.57393 0,1.57392 1.12922,0.2473 c 1.75092,0.38343 2.90534,1.0163 4.16557,2.28362 1.28701,1.29426 1.9471,2.51484 2.28354,4.2225 l 0.22674,1.15094 1.58921,0 1.5892,0 -0.0995,-0.83394 z"
         id="path5888"
         inkscape:connector-curvature="0" />
    </g>
    <g
       id="g4267"
       transform="matrix(0.85204431,0,0,0.85204431,37.089966,48.325493)">
      <path
         inkscape:export-ydpi="500"
         inkscape:export-xdpi="500"
         inkscape:export-filename="/Users/santannajj/Desktop/g.png"
         inkscape:connector-curvature="0"
         id="path5997"
         d="m 265.39182,138.4026 7.79984,-10.71942 41.27418,0.41229 0.24374,41.39346 -8.44983,10.63697 -41.11168,0.32983 z"
         style="fill:#fce896;fill-opacity:1;fill-rule:evenodd;stroke:#000000;stroke-width:3.75;stroke-linecap:butt;stroke-linejoin:miter;stroke-miterlimit:4;stroke-dasharray:none;stroke-opacity:1" />
      <path
         inkscape:export-ydpi="500"
         inkscape:export-xdpi="500"
         inkscape:export-filename="/Users/santannajj/Desktop/g.png"
         inkscape:connector-curvature="0"
         id="path5995"
         d="m 264.55983,159.43792 0,-21.28438 4.2229,-5.35576 4.2229,-5.35577 20.90631,0 20.90632,0 -7.5e-4,21.19841 -7.4e-4,21.1984 -4.24047,5.42566 -4.24072,5.42564 -20.88765,0.0161 -20.88766,0.0161 0,-21.28438 z m 40.97502,0.004 0,-20.30498 -20.16739,0 -20.16739,0 0,20.30498 0,20.30499 20.16739,0 20.16739,0 0,-20.30499 z m 4.93772,14.60195 3.70545,-4.72842 0,-20.18986 c 0,-11.23523 -0.12165,-20.05298 -0.27429,-19.88123 -0.15087,0.16975 -1.8795,2.32875 -3.84141,4.79777 l -3.56711,4.48915 0,20.1205 c 0,11.06627 0.0611,20.1205 0.13595,20.1205 0.0747,0 1.8034,-2.12779 3.84141,-4.72841 z m -0.89013,-40.66624 c 2.08742,-2.63158 3.8433,-4.89762 3.90199,-5.03564 0.0587,-0.13802 -8.89333,-0.25095 -19.8934,-0.25095 l -20.0001,0 -3.65187,4.62953 c -2.00853,2.54625 -3.76092,4.81228 -3.89421,5.03564 -0.19284,0.32317 3.8403,0.4061 19.74998,0.4061 l 19.99233,0 3.79528,-4.78468 z"
         style="fill:#ffff00;stroke:#000000;stroke-width:3.75;stroke-miterlimit:4;stroke-dasharray:none" />
    </g>
    <text
       xml:space="preserve"
       style="font-style:normal;font-weight:normal;font-size:15px;line-height:125%;font-family:sans-serif;letter-spacing:0px;word-spacing:0px;fill:#000000;fill-opacity:1;stroke:none;stroke-width:1px;stroke-linecap:butt;stroke-linejoin:miter;stroke-opacity:1"
       x="625.50836"
       y="-14.21222"
       id="text6299"
       sodipodi:linespacing="125%"
       inkscape:export-filename="/Users/santannajj/Desktop/m.png"
       inkscape:export-xdpi="500"
       inkscape:export-ydpi="500"><tspan
         sodipodi:role="line"
         id="tspan6301"
         x="625.50836"
         y="-14.21222"
         style="font-style:normal;font-variant:normal;font-weight:bold;font-stretch:normal;font-family:sans-serif;-inkscape-font-specification:'sans-serif Bold'">Enrichments</tspan></text>
    <text
       xml:space="preserve"
       style="font-style:normal;font-weight:normal;font-size:15px;line-height:125%;font-family:sans-serif;text-align:center;letter-spacing:0px;word-spacing:0px;text-anchor:middle;fill:#000000;fill-opacity:1;stroke:none;stroke-width:1px;stroke-linecap:butt;stroke-linejoin:miter;stroke-opacity:1"
       x="333.87076"
       y="521.56531"
       id="text4177"
       sodipodi:linespacing="125%"><tspan
         sodipodi:role="line"
         x="336.25845"
         y="521.56531"
         id="tspan5294"
         style="font-style:italic;font-variant:normal;font-weight:normal;font-stretch:normal;font-family:sans-serif;-inkscape-font-specification:'sans-serif Italic';text-align:center;text-anchor:middle">*For detecting, preventing, monitoring, tracking, remediating threats, moving target defense in: </tspan><tspan
         sodipodi:role="line"
         x="336.25845"
         y="540.31531"
         style="font-style:italic;font-variant:normal;font-weight:normal;font-stretch:normal;font-family:sans-serif;-inkscape-font-specification:'sans-serif Italic';text-align:center;text-anchor:middle"
         id="tspan5304">Internet/networks, IoT, Mobile, and Cloud. </tspan></text>
    <text
       xml:space="preserve"
       style="font-style:normal;font-weight:normal;font-size:15px;line-height:125%;font-family:sans-serif;letter-spacing:0px;word-spacing:0px;fill:#000000;fill-opacity:1;stroke:none;stroke-width:1px;stroke-linecap:butt;stroke-linejoin:miter;stroke-opacity:1"
       x="35.964828"
       y="587.94678"
       id="text4180"
       sodipodi:linespacing="125%"><tspan
         sodipodi:role="line"
         x="35.964828"
         y="587.94678"
         id="tspan4188" /></text>
    <g
       transform="matrix(1.3465387,0,0,1.3465387,-289.87567,170.68882)"
       id="g4193"
       inkscape:export-filename="/Users/santannajj/Desktop/a.png"
       inkscape:export-xdpi="500"
       inkscape:export-ydpi="500">
      <path
         style="fill:#ffffff;fill-opacity:1;stroke:none;stroke-width:2.7019484;stroke-miterlimit:4;stroke-dasharray:none;stroke-dashoffset:0;stroke-opacity:1"
         id="path4195"
         sodipodi:type="arc"
         sodipodi:cx="203.67149"
         sodipodi:cy="58.51366"
         sodipodi:rx="23.648874"
         sodipodi:ry="23.648785"
         sodipodi:start="0"
         sodipodi:end="6.2123773"
         sodipodi:open="true"
         d="M 227.32037,58.51366 A 23.648874,23.648785 0 0 1 204.0901,82.15874 23.648874,23.648785 0 0 1 180.03744,59.350747 23.648874,23.648785 0 0 1 202.41619,34.898216 23.648874,23.648785 0 0 1 227.26111,56.840536" />
      <path
         style="fill:#000000"
         d="m 197.72078,82.987172 c -1.15465,-0.27647 -3.59514,-1.23947 -5.42332,-2.14 -2.75023,-1.35471 -3.84037,-2.15372 -6.31572,-4.62907 -2.47791,-2.47792 -3.27253,-3.56266 -4.62659,-6.31572 -2.04097,-4.149696 -2.69169,-6.899634 -2.69829,-11.402981 -0.0104,-7.042038 2.31107,-12.632212 7.32972,-17.650856 5.023,-5.023014 10.59627,-7.334886 17.68235,-7.334886 7.08608,0 12.65935,2.311872 17.68236,7.334886 5.02301,5.023014 7.33488,10.596286 7.33488,17.682363 0,7.0751 -2.29849,12.607954 -7.34772,17.687194 -5.00619,5.03593 -10.70515,7.34305 -18.0194,7.29482 -1.92441,-0.0127 -4.44363,-0.24928 -5.59827,-0.52575 z m 12.86737,-2.88853 c 5.92219,-2.10309 10.63634,-6.14146 13.14164,-11.257783 1.87122,-3.821411 2.50714,-6.406361 2.50714,-10.191299 0,-4.109093 -0.47513,-6.178314 -2.27678,-9.915612 -3.88534,-8.05965 -11.36005,-12.760115 -20.29122,-12.760115 -8.93117,0 -16.40588,4.700465 -20.29122,12.760115 -1.80165,3.737298 -2.27678,5.806519 -2.27678,9.915612 0,3.784938 0.63592,6.369888 2.50714,10.191299 2.91834,5.959833 9.27926,10.734813 16.03711,12.038663 2.14634,0.41411 8.94384,-0.0709 10.94297,-0.78088 z m -9.29627,-0.61869 c -0.13592,-0.13593 -0.24714,-2.42521 -0.24714,-5.0873 l 0,-4.840164 -1.74945,0 c -0.9622,0 -1.74946,-0.083 -1.74946,-0.184465 0,-0.322385 6.10059,-7.513149 6.3741,-7.513149 0.34534,0 5.66421,6.913997 5.81029,7.552775 0.0847,0.370406 -0.28651,0.494733 -1.47717,0.494733 l -1.59029,0 -0.0974,4.81101 -0.0973,4.811 -2.46453,0.10135 c -1.3555,0.0557 -2.57574,-0.01 -2.71166,-0.14579 z m -8.64453,-16.915686 0,-1.739857 -4.98595,-0.09708 -4.98596,-0.09708 0,-2.624187 0,-2.624187 4.81101,-0.09735 4.81101,-0.09734 0,-1.564642 c 0,-0.891231 0.16334,-1.564634 0.37951,-1.564634 0.20873,0 2.02084,1.271035 4.02693,2.824526 2.54487,1.970719 3.56713,2.965272 3.38182,3.290153 -0.26674,0.467648 -6.99534,6.131521 -7.28415,6.131521 -0.0848,0 -0.15422,-0.782934 -0.15422,-1.739848 z m 18.24658,-1.258165 c -1.95312,-1.63612 -3.54459,-3.166042 -3.53659,-3.399815 0.0148,-0.430242 6.13438,-5.328955 7.13848,-5.714259 0.44399,-0.170378 0.54458,0.08696 0.54458,1.393089 l 0,1.602074 4.81101,0.09734 4.81101,0.09735 0.10219,2.711661 0.10219,2.71166 -4.9132,0 -4.9132,0 0,1.553863 c 0,0.85462 -0.13394,1.636647 -0.29766,1.737827 -0.16372,0.101189 -1.89568,-1.15467 -3.84881,-2.79079 z m -7.2759,-6.366943 c -0.22044,-0.141384 -1.69512,-1.831571 -3.27706,-3.75597 l -2.87626,-3.498921 1.78052,-0.10543 1.78052,-0.105429 0.097,-4.967997 0.097,-4.967998 2.62419,0 2.62419,0 0.0973,4.811007 0.0974,4.811015 1.56464,0 c 0.9148,0 1.56463,0.161577 1.56463,0.389035 0,0.29442 -5.5322,7.679719 -5.73281,7.653109 -0.0222,-0.0026 -0.22076,-0.121036 -0.44119,-0.262421 z"
         id="path4197"
         inkscape:connector-curvature="0" />
    </g>
    <text
       sodipodi:linespacing="125%"
       id="text4201"
       y="206.72989"
       x="-53.063129"
       style="font-style:normal;font-weight:normal;font-size:15px;line-height:125%;font-family:sans-serif;letter-spacing:0px;word-spacing:0px;fill:#000000;fill-opacity:1;stroke:none;stroke-width:1px;stroke-linecap:butt;stroke-linejoin:miter;stroke-opacity:1"
       xml:space="preserve"
       inkscape:export-filename="/Users/santannajj/Desktop/a.png"
       inkscape:export-xdpi="500"
       inkscape:export-ydpi="500"><tspan
         y="206.72989"
         x="-53.063129"
         id="tspan4203"
         sodipodi:role="line">Flowspec</tspan></text>
    <text
       xml:space="preserve"
       style="font-style:normal;font-weight:normal;font-size:15px;line-height:125%;font-family:sans-serif;text-align:start;letter-spacing:0px;word-spacing:0px;text-anchor:start;fill:#000000;fill-opacity:1;stroke:none;stroke-width:1px;stroke-linecap:butt;stroke-linejoin:miter;stroke-opacity:1"
       x="349.90045"
       y="173.35762"
       id="text4205"
       sodipodi:linespacing="125%"
       inkscape:export-filename="/Users/santannajj/Desktop/g.png"
       inkscape:export-xdpi="500"
       inkscape:export-ydpi="500"><tspan
         sodipodi:role="line"
         x="352.50787"
         y="173.35762"
         id="tspan5229"
         style="font-style:normal;font-variant:normal;font-weight:bold;font-stretch:normal;font-size:15px;line-height:125%;font-family:sans-serif;-inkscape-font-specification:'sans-serif Bold';text-align:center;writing-mode:lr-tb;text-anchor:middle">DDoS </tspan><tspan
         sodipodi:role="line"
         x="349.90045"
         y="192.10762"
         style="font-style:normal;font-variant:normal;font-weight:bold;font-stretch:normal;font-size:15px;line-height:125%;font-family:sans-serif;-inkscape-font-specification:'sans-serif Bold';text-align:center;writing-mode:lr-tb;text-anchor:middle"
         id="tspan4396">Dissector</tspan></text>
    <text
       sodipodi:linespacing="125%"
       id="text4211"
       y="118.43772"
       x="350.909"
       style="font-style:normal;font-weight:normal;font-size:15px;line-height:125%;font-family:sans-serif;text-align:center;letter-spacing:0px;word-spacing:0px;text-anchor:middle;fill:#000000;fill-opacity:1;stroke:none;stroke-width:1px;stroke-linecap:butt;stroke-linejoin:miter;stroke-opacity:1"
       xml:space="preserve"
       inkscape:export-filename="/Users/santannajj/Desktop/h.png"
       inkscape:export-xdpi="500"
       inkscape:export-ydpi="500"><tspan
         y="118.43772"
         x="350.909"
         sodipodi:role="line"
         id="tspan5269"
         style="font-weight:bold">DDoSDB</tspan></text>
    <text
       xml:space="preserve"
       style="font-style:normal;font-weight:normal;font-size:15px;line-height:125%;font-family:sans-serif;letter-spacing:0px;word-spacing:0px;fill:#000000;fill-opacity:1;stroke:none;stroke-width:1px;stroke-linecap:butt;stroke-linejoin:miter;stroke-opacity:1"
       x="-26.402534"
       y="497.17682"
       id="text4221"
       sodipodi:linespacing="125%"
       inkscape:export-filename="/Users/santannajj/Desktop/l.png"
       inkscape:export-xdpi="500"
       inkscape:export-ydpi="500"><tspan
         sodipodi:role="line"
         id="tspan4223"
         x="-26.402534"
         y="497.17682">Communicating Upstream Provider via IETF DDoS Open Threat Signaling (DOTS) </tspan></text>
    <path
       style="fill:none;fill-rule:evenodd;stroke:#000000;stroke-width:1px;stroke-linecap:butt;stroke-linejoin:miter;stroke-opacity:1"
       d="m 605.56574,476.80652 -653.350309,0"
       id="path4225"
       inkscape:connector-curvature="0"
       sodipodi:nodetypes="cc"
       inkscape:export-filename="/Users/santannajj/Desktop/l.png"
       inkscape:export-xdpi="500"
       inkscape:export-ydpi="500" />
    <text
       sodipodi:linespacing="125%"
       id="text4764"
       y="32.383015"
       x="547.21979"
       style="font-style:normal;font-weight:normal;font-size:15px;line-height:125%;font-family:sans-serif;letter-spacing:0px;word-spacing:0px;fill:#000000;fill-opacity:1;stroke:none;stroke-width:1px;stroke-linecap:butt;stroke-linejoin:miter;stroke-opacity:1"
       xml:space="preserve"
       inkscape:export-filename="/Users/santannajj/Desktop/m.png"
       inkscape:export-xdpi="500"
       inkscape:export-ydpi="500"><tspan
         y="32.383015"
         x="547.21979"
         id="tspan4766"
         sodipodi:role="line"
         style="text-align:start;text-anchor:start">- IP2ASn (TeamCymru)</tspan><tspan
         y="51.133015"
         x="547.21979"
         sodipodi:role="line"
         style="text-align:start;text-anchor:start"
         id="tspan4414">- IP2Geolocation (Maxmind)</tspan><tspan
         y="69.883011"
         x="547.21979"
         sodipodi:role="line"
         style="text-align:start;text-anchor:start"
         id="tspan4366">- Passive monitoring </tspan><tspan
         y="88.633011"
         x="547.21979"
         sodipodi:role="line"
         style="text-align:start;text-anchor:start"
         id="tspan4557">   + Hoscotch, </tspan><tspan
         y="107.38301"
         x="547.21979"
         sodipodi:role="line"
         style="text-align:start;text-anchor:start"
         id="tspan4559">   + Ampot, ShadowServer, SPIN, CAIDA Telescope, DNSDB, pDNS)</tspan><tspan
         y="126.13301"
         x="547.21979"
         sodipodi:role="line"
         style="text-align:start;text-anchor:start"
         id="tspan4380">- DNS info (OpenIntel, ENTRADA)</tspan><tspan
         y="144.88301"
         x="547.21979"
         sodipodi:role="line"
         style="text-align:start;text-anchor:start"
         id="tspan4390">- Port scanners (Shodan, Censys)</tspan></text>
    <text
       xml:space="preserve"
       style="font-style:normal;font-weight:normal;font-size:15px;line-height:125%;font-family:sans-serif;letter-spacing:0px;word-spacing:0px;fill:#000000;fill-opacity:1;stroke:none;stroke-width:1px;stroke-linecap:butt;stroke-linejoin:miter;stroke-opacity:1"
       x="283.45312"
       y="314.59677"
       id="text4252"
       sodipodi:linespacing="125%"
       inkscape:export-filename="/Users/santannajj/Desktop/d.png"
       inkscape:export-xdpi="500"
       inkscape:export-ydpi="500"><tspan
         sodipodi:role="line"
         x="283.45312"
         y="314.59677"
         id="tspan4256"
         style="font-style:normal;font-variant:normal;font-weight:normal;font-stretch:normal;font-size:15px;line-height:125%;font-family:sans-serif;-inkscape-font-specification:'sans-serif, Normal';text-align:center;writing-mode:lr-tb;text-anchor:middle">Intrusion Detection/</tspan><tspan
         sodipodi:role="line"
         x="283.45312"
         y="333.34677"
         id="tspan4260"
         style="font-style:normal;font-variant:normal;font-weight:normal;font-stretch:normal;font-size:15px;line-height:125%;font-family:sans-serif;-inkscape-font-specification:'sans-serif, Normal';text-align:center;writing-mode:lr-tb;text-anchor:middle">Prevention System</tspan></text>
    <g
       transform="matrix(1.3697075,0,0,1.3697075,-114.31227,-34.904542)"
       id="g4326">
      <path
         style="fill:#fce896;fill-opacity:1;fill-rule:evenodd;stroke:none;stroke-width:1px;stroke-linecap:butt;stroke-linejoin:miter;stroke-opacity:1"
         d="m 270.55878,-4.9457805 0.0963,39.6952785 c -0.51069,3.041072 33.68883,20.554949 55.01457,-0.09635 l 0.57809,-40.947799 c -9.73594,-14.348301 -52.25507,-13.221214 -55.689,1.3488685 z"
         id="path4328"
         inkscape:connector-curvature="0"
         sodipodi:nodetypes="ccccc"
         inkscape:export-filename="/Users/santannajj/Desktop/h.png"
         inkscape:export-xdpi="500"
         inkscape:export-ydpi="500" />
      <path
         style="fill:#000000;stroke:#000000;stroke-width:0.85390931"
         d="m 294.37439,45.913907 c -7.0443,-0.447756 -13.2227,-1.867141 -17.73364,-4.073993 -2.40729,-1.177712 -3.72777,-2.078979 -5.19012,-3.542426 -1.47914,-1.480243 -2.28332,-2.924298 -2.511,-4.508982 -0.19065,-1.326924 -0.19006,-38.5665412 6.4e-4,-39.7642771 0.80676,-5.0673539 7.9641,-9.4401379 18.40888,-11.2469079 3.77278,-0.652634 5.86462,-0.812332 10.64018,-0.812332 4.77556,0 6.86741,0.159698 10.64018,0.812332 5.46198,0.944825 10.25566,2.658835 13.57306,4.853125 1.47739,0.977214 3.31189,2.8202323 3.92017,3.9383582 1.07978,1.9848439 0.99068,-0.027154 0.99068,22.3716648 l 0,19.984449 -0.3215,0.931136 c -1.86033,5.388049 -10.30386,9.507615 -22.13879,10.801424 -1.86659,0.20405 -8.49938,0.369529 -10.27873,0.256429 z m 7.5027,-3.056381 c 9.40319,-0.671753 17.5929,-3.311921 20.70691,-6.675419 0.41341,-0.446534 0.9264,-1.167763 1.14,-1.602736 l 0.38834,-0.790865 0.0448,-4.069288 0.0448,-4.069279 -1.06796,0.806159 c -4.22039,3.185815 -10.33821,5.198838 -18.62428,6.128182 -2.92419,0.327961 -10.11681,0.327961 -13.041,0 -8.35044,-0.936559 -14.82438,-3.091749 -18.82898,-6.268197 l -0.86342,-0.68487 0.0449,4.078646 0.0449,4.078647 0.38834,0.790865 c 0.21359,0.434973 0.72659,1.156202 1.14,1.602736 4.12465,4.455118 17.07521,7.490339 28.48243,6.675419 z m 0,-13.095604 c 9.40319,-0.671754 17.5929,-3.311921 20.70691,-6.675419 0.41341,-0.446534 0.9264,-1.167763 1.14,-1.602745 l 0.38834,-0.790865 0.0448,-4.069279 0.0448,-4.069288 -1.06796,0.806168 c -4.22039,3.185807 -10.33821,5.198838 -18.62428,6.128174 -2.92419,0.327969 -10.11681,0.327969 -13.041,0 -8.35044,-0.93656 -14.82438,-3.09175 -18.82898,-6.268199 l -0.86342,-0.684869 0.0449,4.078647 0.0449,4.078646 0.38834,0.790865 c 0.21359,0.434982 0.72659,1.156211 1.14,1.602745 4.12465,4.45511 17.07521,7.49033 28.48243,6.675419 z m 0,-13.095613 c 9.40319,-0.671753 17.5929,-3.311921 20.70691,-6.6754188 0.41341,-0.4465263 0.9264,-1.1677637 1.14,-1.6027366 0.38353,-0.7810796 0.38891,-0.8263368 0.43456,-3.6555347 0.0254,-1.5755652 0.0254,-3.0683694 0,-3.3173438 l -0.0462,-0.45267437 -0.81848,0.63899737 c -1.18166,0.922538 -2.11621,1.4996527 -3.74552,2.312933 -10.25613,5.1194598 -28.40052,5.6670804 -40.33937,1.2174782 -2.50501,-0.9336132 -5.25294,-2.4380818 -6.76111,-3.7016371 l -0.58155,-0.4872406 -0.0462,0.4624175 c -0.0255,0.2543198 -0.0255,1.7515046 0,3.3270698 0.0457,2.8291979 0.0511,2.8744551 0.43457,3.6555347 0.21359,0.4349729 0.72659,1.1562103 1.14,1.6027366 4.12465,4.4551188 17.07521,7.4903388 28.48243,6.6754188 z M 301.05861,5.0695715 c 9.26528,-0.5507715 17.40288,-2.9620236 21.09645,-6.2510858 1.41652,-1.2613863 2.16661,-3.0143682 1.90208,-4.4452982 -0.18806,-1.017339 -0.55062,-1.6779232 -1.46006,-2.6602263 -2.91537,-3.1489442 -9.81126,-5.5279952 -19.08305,-6.5835812 -1.96755,-0.223997 -9.08185,-0.223997 -11.04941,0 -7.63878,0.869664 -13.57052,2.596192 -17.18711,5.0025851 -1.35409,0.9009854 -2.58352,2.1896882 -3.03983,3.1863882 -0.41356,0.9033507 -0.46193,2.1138782 -0.124,3.1038408 1.43719,4.21031944 11.19678,7.96273 22.46534,8.6375745 2.69831,0.1615938 3.89567,0.1634041 6.47959,0.00982 z"
         id="path4330"
         inkscape:connector-curvature="0"
         inkscape:export-filename="/Users/santannajj/Desktop/h.png"
         inkscape:export-xdpi="500"
         inkscape:export-ydpi="500" />
    </g>
    <text
       inkscape:export-ydpi="500"
       inkscape:export-xdpi="500"
       inkscape:export-filename="/Users/santannajj/Desktop/h.png"
       xml:space="preserve"
       style="font-style:normal;font-weight:normal;font-size:22.70048904px;line-height:125%;font-family:sans-serif;text-align:center;letter-spacing:0px;word-spacing:0px;text-anchor:middle;fill:#000000;fill-opacity:1;stroke:none;stroke-width:1px;stroke-linecap:butt;stroke-linejoin:miter;stroke-opacity:1"
       x="400.36295"
       y="-5.9736543"
       id="text4332"
       sodipodi:linespacing="125%"><tspan
         style="font-weight:bold"
         id="tspan4334"
         sodipodi:role="line"
         x="400.36295"
         y="-5.9736543">DDoSDB*</tspan></text>
    <text
       xml:space="preserve"
       style="font-style:normal;font-weight:normal;font-size:15px;line-height:125%;font-family:sans-serif;letter-spacing:0px;word-spacing:0px;fill:#000000;fill-opacity:1;stroke:none;stroke-width:1px;stroke-linecap:butt;stroke-linejoin:miter;stroke-opacity:1"
       x="654.26874"
       y="228.94368"
       id="text4422"
       sodipodi:linespacing="125%"><tspan
         sodipodi:role="line"
         id="tspan4424"
         x="654.26874"
         y="228.94368"> </tspan></text>
    <g
       id="g4534"
       transform="translate(934.04322,-68.366283)">
      <path
         d="m -316.17737,50.037098 a 35.071014,35.071014 0 0 1 -34.45022,35.06552 35.071014,35.071014 0 0 1 -35.66983,-33.824125 35.071014,35.071014 0 0 1 33.18743,-36.262967 35.071014,35.071014 0 0 1 36.84474,32.540338"
         sodipodi:open="true"
         sodipodi:end="6.2123773"
         sodipodi:start="0"
         sodipodi:ry="35.071014"
         sodipodi:rx="35.071014"
         sodipodi:cy="50.037098"
         sodipodi:cx="-351.24838"
         sodipodi:type="arc"
         id="path4528"
         style="fill:#999999;fill-opacity:1;stroke:#000000;stroke-width:2;stroke-miterlimit:4;stroke-dasharray:none;stroke-dashoffset:0;stroke-opacity:1" />
      <text
         sodipodi:linespacing="125%"
         id="text4530"
         y="70.720634"
         x="-378.89151"
         style="font-style:normal;font-weight:normal;font-size:65.98220825px;line-height:125%;font-family:sans-serif;letter-spacing:0px;word-spacing:0px;fill:#000000;fill-opacity:1;stroke:none;stroke-width:1px;stroke-linecap:butt;stroke-linejoin:miter;stroke-opacity:1"
         xml:space="preserve"><tspan
           y="70.720634"
           x="-378.89151"
           id="tspan4532"
           sodipodi:role="line">+</tspan></text>
    </g>
    <g
       transform="matrix(0.85204431,0,0,0.85204431,-180.43912,243.65773)"
       id="g4539">
      <path
         style="fill:#fce896;fill-opacity:1;fill-rule:evenodd;stroke:#000000;stroke-width:3.75;stroke-linecap:butt;stroke-linejoin:miter;stroke-miterlimit:4;stroke-dasharray:none;stroke-opacity:1"
         d="m 265.39182,138.4026 7.79984,-10.71942 41.27418,0.41229 0.24374,41.39346 -8.44983,10.63697 -41.11168,0.32983 z"
         id="path4541"
         inkscape:connector-curvature="0"
         inkscape:export-filename="/Users/santannajj/Desktop/g.png"
         inkscape:export-xdpi="500"
         inkscape:export-ydpi="500" />
      <path
         style="fill:#ffff00;stroke:#000000;stroke-width:3.75;stroke-miterlimit:4;stroke-dasharray:none"
         d="m 264.55983,159.43792 0,-21.28438 4.2229,-5.35576 4.2229,-5.35577 20.90631,0 20.90632,0 -7.5e-4,21.19841 -7.4e-4,21.1984 -4.24047,5.42566 -4.24072,5.42564 -20.88765,0.0161 -20.88766,0.0161 0,-21.28438 z m 40.97502,0.004 0,-20.30498 -20.16739,0 -20.16739,0 0,20.30498 0,20.30499 20.16739,0 20.16739,0 0,-20.30499 z m 4.93772,14.60195 3.70545,-4.72842 0,-20.18986 c 0,-11.23523 -0.12165,-20.05298 -0.27429,-19.88123 -0.15087,0.16975 -1.8795,2.32875 -3.84141,4.79777 l -3.56711,4.48915 0,20.1205 c 0,11.06627 0.0611,20.1205 0.13595,20.1205 0.0747,0 1.8034,-2.12779 3.84141,-4.72841 z m -0.89013,-40.66624 c 2.08742,-2.63158 3.8433,-4.89762 3.90199,-5.03564 0.0587,-0.13802 -8.89333,-0.25095 -19.8934,-0.25095 l -20.0001,0 -3.65187,4.62953 c -2.00853,2.54625 -3.76092,4.81228 -3.89421,5.03564 -0.19284,0.32317 3.8403,0.4061 19.74998,0.4061 l 19.99233,0 3.79528,-4.78468 z"
         id="path4543"
         inkscape:connector-curvature="0"
         inkscape:export-filename="/Users/santannajj/Desktop/g.png"
         inkscape:export-xdpi="500"
         inkscape:export-ydpi="500" />
    </g>
    <path
       style="fill:none;fill-opacity:1;stroke:#b3b3b3;stroke-width:2;stroke-miterlimit:4;stroke-dasharray:4, 2;stroke-dashoffset:0;stroke-opacity:1"
       id="path4545"
       sodipodi:type="arc"
       sodipodi:cx="22.990437"
       sodipodi:cy="386.98523"
       sodipodi:rx="81.684387"
       sodipodi:ry="81.684387"
       sodipodi:start="0"
       sodipodi:end="6.2123773"
       sodipodi:open="true"
       d="M 104.67482,386.98523 A 81.684387,81.684387 0 0 1 24.436338,468.65682 81.684387,81.684387 0 0 1 -58.642763,389.87658 81.684387,81.684387 0 0 1 18.654544,305.416 81.684387,81.684387 0 0 1 104.47014,381.20615" />
    <rect
       style="fill:none;fill-opacity:1;stroke:#b3b3b3;stroke-width:1.83232236;stroke-miterlimit:4;stroke-dasharray:3.66464484, 1.83232242;stroke-dashoffset:0;stroke-opacity:1"
       id="rect4547"
       width="415.69263"
       height="191.06055"
       x="543.20062"
       y="-58.811264" />
    <path
       style="fill:none;fill-rule:evenodd;stroke:#000000;stroke-width:1px;stroke-linecap:butt;stroke-linejoin:miter;stroke-opacity:1"
       d="m 423.42152,452.68788 0,23.08472"
       id="path4549"
       inkscape:connector-curvature="0" />
    <path
       inkscape:connector-curvature="0"
       id="path4551"
       d="m 423.42152,452.68788 0,23.08472"
       style="fill:none;fill-rule:evenodd;stroke:#000000;stroke-width:1px;stroke-linecap:butt;stroke-linejoin:miter;stroke-opacity:1" />
    <path
       style="fill:none;fill-rule:evenodd;stroke:#000000;stroke-width:1px;stroke-linecap:butt;stroke-linejoin:miter;stroke-opacity:1"
       d="m 423.42152,452.68788 0,23.08472"
       id="path4553"
       inkscape:connector-curvature="0" />
  </g>
</svg>
