<svg xmlns="http://www.w3.org/2000/svg" viewBox="0 0 1149.83 177.8"><defs><style>.cls-1,.cls-2{fill:#09344f;}.cls-1{stroke:#09344f;stroke-miterlimit:10;}.cls-3{fill:#00d4c0;}</style></defs><title>nomoreddos</title><g id="&#x421;&#x43B;&#x43E;&#x439;_2" data-name="&#x421;&#x43B;&#x43E;&#x439; 2"><g id="Layer_1" data-name="Layer 1"><path class="cls-1" d="M309.3,63.2H272.9l-6,13.1H252.7L283.9,6.8h14.3l31.2,69.5H315.1ZM291.1,21.4,278.2,51H304Z"></path><path class="cls-1" d="M369.5,76.3V50.7c0-7.5-4.1-13.1-11.8-13.1-7.5,0-12.5,6.3-12.5,13.7v25h-12V27.2H344l.8,6.7c5-4.9,9.9-7.4,16.1-7.4,11.5,0,20.8,8.6,20.8,24V76.2H369.5Z"></path><path class="cls-1" d="M407,13.6V27.5h13.5V37.9H406.9V59.1c0,4.7,2.6,7,6.4,7a13.94,13.94,0,0,0,5.9-1.5l3.4,10.3a27.16,27.16,0,0,1-10,2.1C402,77.4,395,71.3,395,59.1V37.9h-9.1V27.5H395V14.9Z"></path><path class="cls-1" d="M442.8,13.6c0,9.4-14.3,9.4-14.3,0S442.8,4.1,442.8,13.6ZM429.6,27.2V76.4h12.1V27.2Z"></path><path class="cls-1" d="M452.1,38.4h36.7V49.5H452.1Z"></path><path class="cls-1" d="M560.2,41c.3,17.6-10.4,35.4-34.8,35.4H498.1V6.8h27.3C549.3,6.8,559.9,23.8,560.2,41ZM511.1,63.7h14.3c15.8,0,22.1-11.5,21.8-22.8-.3-10.8-6.7-21.7-21.8-21.7H511.1Z"></path><path class="cls-1" d="M630,41c.3,17.6-10.4,35.4-34.8,35.4H567.9V6.8h27.3C619.1,6.8,629.7,23.8,630,41ZM580.9,63.7h14.3c15.8,0,22.1-11.5,21.8-22.8-.3-10.8-6.7-21.7-21.8-21.7H580.9Z"></path><path class="cls-1" d="M687.4,51.9c0,14.1-9.6,25.5-25.5,25.5S636.5,66,636.5,51.9s9.7-25.5,25.3-25.5S687.4,37.9,687.4,51.9Zm-38.8,0c0,7.5,4.5,14.4,13.3,14.4s13.3-7,13.3-14.4S670,37.4,661.9,37.4C653.2,37.4,648.6,44.6,648.6,51.9Z"></path><path class="cls-1" d="M739.6,23.6c-2.4-4-8.9-7.7-16.5-7.7-9.7,0-14.4,4.1-14.4,9.2,0,6.1,7.2,7.7,15.5,8.7,14.5,1.8,28,5.6,28,22.2,0,15.5-13.7,22.2-29.2,22.2-14.2,0-25.1-4.4-30.3-17.1l10.9-5.7c3.1,7.6,11.1,11,19.6,11,8.2,0,16-2.9,16-10.4,0-6.6-6.9-9.2-16.1-10.2-14.2-1.7-27.3-5.5-27.3-21.1,0-14.3,14.1-20.2,26.9-20.3,10.8,0,22.1,3.1,27.3,13.8Z"></path><path class="cls-1" d="M760.9,38.4h36.7V49.5H760.9Z"></path><path class="cls-1" d="M869.1,67.6c-7.2,7.1-16.4,10.3-26.4,10.3-25.8,0-36.8-17.8-36.9-35.9S817.5,5.3,842.7,5.3a36,36,0,0,1,25.5,10.6l-8.7,8.4a23.81,23.81,0,0,0-16.8-6.6c-16.8,0-24,12.5-23.9,24.1s6.8,23.5,23.9,23.5a25.53,25.53,0,0,0,17.5-7.1Z"></path><path class="cls-1" d="M923.3,51.9c0,14.1-9.6,25.5-25.5,25.5S872.4,66,872.4,51.9s9.7-25.5,25.3-25.5S923.3,37.9,923.3,51.9Zm-38.9,0c0,7.5,4.5,14.4,13.3,14.4s13.3-7,13.3-14.4-5.2-14.5-13.3-14.5C889,37.4,884.4,44.6,884.4,51.9Z"></path><path class="cls-1" d="M970.4,27.4H982v49H970.6l-.6-7.2c-2.8,5.8-10.4,8.5-15.9,8.6-14.5.1-25.2-8.8-25.2-26,0-16.9,11.2-25.7,25.5-25.6,6.6,0,12.8,3.1,15.6,7.9ZM941,51.8c0,9.3,6.5,14.9,14.5,14.9,19.1,0,19.1-29.7,0-29.7C947.5,37,941,42.5,941,51.8Z"></path><path class="cls-1" d="M1004.3,6.9V76.3h-12V6.9Z"></path><path class="cls-1" d="M1028.2,13.6c0,9.4-14.3,9.4-14.3,0S1028.2,4.1,1028.2,13.6Zm-13.3,13.6V76.4H1027V27.2Z"></path><path class="cls-1" d="M1055.1,13.6V27.5h13.5V37.9H1055V59.1c0,4.7,2.6,7,6.4,7a13.94,13.94,0,0,0,5.9-1.5l3.4,10.3a27.16,27.16,0,0,1-10,2.1c-10.6.4-17.6-5.7-17.6-17.9V37.9H1034V27.5h9.1V14.9Z"></path><path class="cls-1" d="M1090.8,13.6c0,9.4-14.3,9.4-14.3,0S1090.8,4.1,1090.8,13.6Zm-13.2,13.6V76.4h12.1V27.2Z"></path><path class="cls-1" d="M1111,56.2c.8,6.1,6.1,10.4,14.6,10.4,4.5,0,10.3-1.7,13.1-4.6l7.7,7.6c-5.2,5.4-13.6,7.9-21.1,7.9-16.9,0-26.9-10.4-26.9-26.1,0-14.9,10.1-25.6,26-25.6,16.4,0,26.6,10.1,24.7,30.3H1111Zm26.6-10.1c-.8-6.4-5.8-9.5-12.7-9.5-6.6,0-11.9,3.2-13.7,9.5Z"></path><path class="cls-2" d="M286.5,116.3h9.9v52.4h-6.1v.1l-27.5-35.3v35.3h-9.9V116.5h8l25.6,32.4Z"></path><path class="cls-2" d="M341.3,150.3c0,10.6-7.2,19.2-19.2,19.2S303,160.9,303,150.3s7.3-19.2,19-19.2S341.3,139.8,341.3,150.3Zm-29.2,0c0,5.6,3.4,10.8,10,10.8s10-5.2,10-10.8-3.9-10.9-10-10.9C315.5,139.4,312.1,144.8,312.1,150.3Z"></path><path class="cls-2" d="M408.9,130.8l-17,22.7H390l-16.7-22.8v38h-9.9V116.5h11.4L391.2,139l16.4-22.5h11.3v52.3H409v-38Z"></path><path class="cls-2" d="M463.9,150.3c0,10.6-7.2,19.2-19.2,19.2s-19.1-8.6-19.1-19.2,7.3-19.2,19-19.2S463.9,139.8,463.9,150.3Zm-29.2,0c0,5.6,3.4,10.8,10,10.8s10-5.2,10-10.8-3.9-10.9-10-10.9C438.1,139.4,434.7,144.8,434.7,150.3Z"></path><path class="cls-2" d="M478.6,131.9l.7,4.3c2.8-4.6,6.6-5.2,10.4-5.2a14.07,14.07,0,0,1,9.5,3.5l-4.1,7.9a9.08,9.08,0,0,0-6.6-2.4c-4.8,0-9.2,2.5-9.2,9.3v19.4h-9.1V131.9Z"></path><path class="cls-2" d="M510.3,153.5c.6,4.6,4.6,7.8,11,7.8,3.4,0,7.8-1.3,9.9-3.4l5.8,5.8c-3.9,4-10.2,6-15.8,6-12.7,0-20.2-7.8-20.2-19.6,0-11.2,7.6-19.3,19.6-19.3,12.3,0,20,7.6,18.6,22.8H510.3Zm20.1-7.5c-.6-4.8-4.3-7.2-9.6-7.2-4.9,0-9,2.4-10.3,7.2Z"></path><path class="cls-2" d="M607.9,142.1c.2,13.2-7.8,26.6-26.1,26.6H561.3V116.4h20.5C599.7,116.4,607.6,129.2,607.9,142.1ZM571,159.2h10.8c11.9,0,16.6-8.7,16.4-17.2-.2-8.1-5-16.3-16.4-16.3H571Z"></path><path class="cls-2" d="M660.4,142.1c.2,13.2-7.8,26.6-26.1,26.6H613.8V116.4h20.5C652.2,116.4,660.1,129.2,660.4,142.1Zm-36.9,17.1h10.8c11.9,0,16.6-8.7,16.4-17.2-.2-8.1-5-16.3-16.4-16.3H623.5Z"></path><path class="cls-2" d="M703.5,150.3c0,10.6-7.2,19.2-19.2,19.2s-19.1-8.6-19.1-19.2,7.3-19.2,19-19.2S703.5,139.8,703.5,150.3Zm-29.2,0c0,5.6,3.4,10.8,10,10.8s10-5.2,10-10.8-3.9-10.9-10-10.9C677.8,139.4,674.3,144.8,674.3,150.3Z"></path><path class="cls-2" d="M742.7,129c-1.8-3-6.7-5.8-12.4-5.8-7.3,0-10.8,3.1-10.8,6.9,0,4.6,5.4,5.8,11.7,6.6,10.9,1.3,21.1,4.2,21.1,16.7,0,11.7-10.3,16.7-22,16.7-10.7,0-18.9-3.3-22.8-12.8l8.2-4.3c2.3,5.8,8.4,8.3,14.7,8.3s12-2.2,12-7.8c0-4.9-5.2-6.9-12.1-7.7-10.7-1.3-20.5-4.1-20.5-15.8,0-10.8,10.6-15.2,20.2-15.2,8.1,0,16.6,2.3,20.5,10.4Z"></path><rect class="cls-3" width="107.9" height="88.9"></rect><rect class="cls-2" y="88.9" width="107.9" height="88.9"></rect><rect class="cls-3" x="107.9" y="88.9" width="107.9" height="88.9"></rect><rect class="cls-2" x="107.9" width="107.9" height="88.9"></rect><path class="cls-3" d="M161.5,17a60.2,60.2,0,0,0-50.6,27.5A60.44,60.44,0,0,0,161.5,72a60.2,60.2,0,0,0,50.6-27.5A60.3,60.3,0,0,0,161.5,17Zm0,49.2a21.7,21.7,0,1,1,21.7-21.7A21.68,21.68,0,0,1,161.5,66.2Z"></path><circle class="cls-3" cx="161.5" cy="44.5" r="13"></circle><circle class="cls-2" cx="53.9" cy="44.5" r="8.6"></circle><path class="cls-2" d="M53.9,65.6A21.1,21.1,0,1,1,75,44.5,21.17,21.17,0,0,1,53.9,65.6Zm0-35.7A14.6,14.6,0,1,0,68.5,44.5,14.62,14.62,0,0,0,53.9,29.9Z"></path><path class="cls-3" d="M22.3,116.2v52.2H85.6V116.2Zm31.6,38a11.9,11.9,0,1,1,11.9-11.9A11.86,11.86,0,0,1,53.9,154.2Z"></path><path class="cls-3" d="M53.9,101.6A14.47,14.47,0,0,1,68.3,116h6.5A20.9,20.9,0,0,0,33,116h6.5A14.53,14.53,0,0,1,53.9,101.6Z"></path><path class="cls-2" d="M200.2,133.4a38.7,38.7,0,1,0-38.7,38.7h.3A38.8,38.8,0,0,0,200.2,133.4Zm-6.7-3.3h-8.9c-.9-11.3-4.9-20.7-10.7-26.4A32.19,32.19,0,0,1,193.5,130.1Zm-35.2-24.7v24.7h-13C146.4,118,151.7,108.1,158.3,105.4Zm0,31.2v28.2c-7.2-3-12.8-14.5-13.2-28.2Zm6.5,28.3V136.6h13.5C177.9,150.5,172.2,162.2,164.8,164.9Zm0-34.8V105.3c6.7,2.5,12.2,12.5,13.3,24.8Zm-15.2-26.6c-5.9,5.6-10,15.2-10.9,26.6h-9.2A32.43,32.43,0,0,1,149.6,103.5Zm-20.1,33.1h9c.2,9.5,2.6,18,6.5,24.3A32.34,32.34,0,0,1,129.5,136.6Zm49.1,24c3.7-6.2,6.1-14.6,6.3-24h8.7A32.41,32.41,0,0,1,178.6,160.6Z"></path><path class="cls-2" d="M92.3,41.2H86.1a32.48,32.48,0,0,0-29-29V6H50.6v6.2a32.48,32.48,0,0,0-29,29H15.4v6.5h6.2a32.48,32.48,0,0,0,29,29v6.2h6.5V76.7a32.48,32.48,0,0,0,29-29h6.2ZM53.9,70.3A25.9,25.9,0,1,1,79.8,44.4,25.91,25.91,0,0,1,53.9,70.3Z"></path></g></g></svg>