<?xml version="1.0" encoding="UTF-8" standalone="no"?>
<!-- Created with Inkscape (http://www.inkscape.org/) -->

<svg
   xmlns:dc="http://purl.org/dc/elements/1.1/"
   xmlns:cc="http://creativecommons.org/ns#"
   xmlns:rdf="http://www.w3.org/1999/02/22-rdf-syntax-ns#"
   xmlns:svg="http://www.w3.org/2000/svg"
   xmlns="http://www.w3.org/2000/svg"
   xmlns:sodipodi="http://sodipodi.sourceforge.net/DTD/sodipodi-0.dtd"
   xmlns:inkscape="http://www.inkscape.org/namespaces/inkscape"
   width="354.89273mm"
   height="359.74756mm"
   viewBox="0 0 1257.494 1274.6961"
   id="svg2"
   version="1.1"
   inkscape:version="0.91 r13725"
   sodipodi:docname="logo.svg">
  <defs
     id="defs4" />
  <sodipodi:namedview
     id="base"
     pagecolor="#ffffff"
     bordercolor="#666666"
     borderopacity="1.0"
     inkscape:pageopacity="0.0"
     inkscape:pageshadow="2"
     inkscape:zoom="0.70147692"
     inkscape:cx="606.35585"
     inkscape:cy="522.8407"
     inkscape:document-units="px"
     inkscape:current-layer="layer1"
     showgrid="false"
     fit-margin-top="0"
     fit-margin-left="0"
     fit-margin-right="0"
     fit-margin-bottom="0"
     inkscape:window-width="1721"
     inkscape:window-height="972"
     inkscape:window-x="65"
     inkscape:window-y="23"
     inkscape:window-maximized="0" />
  <metadata
     id="metadata7">
    <rdf:RDF>
      <cc:Work
         rdf:about="">
        <dc:format>image/svg+xml</dc:format>
        <dc:type
           rdf:resource="http://purl.org/dc/dcmitype/StillImage" />
        <dc:title></dc:title>
      </cc:Work>
    </rdf:RDF>
  </metadata>
  <g
     inkscape:label="Layer 1"
     inkscape:groupmode="layer"
     id="layer1"
     transform="translate(-54.492485,705.10489)">
    <rect
       style="fill:#000000;fill-opacity:1;stroke:none;stroke-width:3.72519994;stroke-miterlimit:1;stroke-dasharray:11.17560033, 11.17560032999999997;stroke-dashoffset:0;stroke-opacity:1"
       id="rect4211"
       width="1175.8436"
       height="521.57874"
       x="108.10188"
       y="-687.41486" />
    <text
       xml:space="preserve"
       style="font-style:normal;font-weight:normal;font-size:111.94644928px;line-height:125%;font-family:sans-serif;letter-spacing:0px;word-spacing:0px;fill:#000000;fill-opacity:1;stroke:none;stroke-width:1px;stroke-linecap:butt;stroke-linejoin:miter;stroke-opacity:1"
       x="1161.1093"
       y="2471.5381"
       id="text7278"
       sodipodi:linespacing="125%"
       inkscape:export-xdpi="90"
       inkscape:export-ydpi="90"><tspan
         sodipodi:role="line"
         id="tspan7280"
         x="1161.1093"
         y="2471.5381" /></text>
    <text
       xml:space="preserve"
       style="font-style:normal;font-weight:normal;font-size:111.94644928px;line-height:125%;font-family:sans-serif;letter-spacing:0px;word-spacing:0px;fill:#000000;fill-opacity:1;stroke:none;stroke-width:1px;stroke-linecap:butt;stroke-linejoin:miter;stroke-opacity:1"
       x="1198.8037"
       y="2541.186"
       id="text7282"
       sodipodi:linespacing="125%"
       inkscape:export-xdpi="90"
       inkscape:export-ydpi="90"><tspan
         sodipodi:role="line"
         id="tspan7284"
         x="1198.8037"
         y="2541.186" /></text>
    <path
       d="m -120.30266,458.75339 a 31.246111,31.045185 0 0 1 -31.11332,31.0449 31.246111,31.045185 0 0 1 -31.37777,-30.78103 31.246111,31.045185 0 0 1 30.84662,-31.30653 31.246111,31.045185 0 0 1 31.63996,30.51493"
       sodipodi:open="true"
       sodipodi:end="6.2661858"
       sodipodi:start="0"
       sodipodi:ry="31.045185"
       sodipodi:rx="31.246111"
       sodipodi:cy="458.75339"
       sodipodi:cx="-151.54877"
       sodipodi:type="arc"
       id="path4661"
       style="fill:none;fill-opacity:1;stroke:#ffffff;stroke-width:5.00000048;stroke-miterlimit:4;stroke-dasharray:none;stroke-dashoffset:0;stroke-opacity:1"
       transform="scale(-1,-1)"
       inkscape:export-filename="/Users/santannajj/Desktop/a.png"
       inkscape:export-xdpi="90"
       inkscape:export-ydpi="90" />
    <path
       style="fill:#4ba4d9;fill-opacity:1"
       d="m 144.21662,-435.27701 c -2.32682,-0.33021 -5.65057,-1.5775 -7.62973,-2.86324 -1.73983,-1.13023 -2.90395,-3.18609 -4.03293,-7.12251 -0.85864,-2.99426 -0.80436,-4.00238 0.25836,-4.78187 0.38232,-0.28056 0.60861,-0.31985 1.385,-0.24061 0.51039,0.0521 1.9881,0.20271 3.28381,0.33469 4.91389,0.50056 8.74943,0.62834 16.15711,0.53831 7.22791,-0.0879 8.79925,-0.16979 13.63936,-0.71117 1.3507,-0.15109 2.61468,-0.22838 2.80866,-0.17178 0.54153,0.15784 1.21617,0.90063 1.34905,1.48498 0.14675,0.64614 -0.10926,2.05043 -0.79143,4.3397 -1.09268,3.66714 -2.25797,5.54636 -4.14396,6.68292 -2.44161,1.47116 -5.87299,2.53988 -8.24551,2.56807 -1.71833,0.0203 -2.02264,-0.11045 -3.68645,-1.58519 -1.32309,-1.17274 -2.18266,-1.54144 -3.15585,-1.35374 -0.77616,0.14969 -1.24766,0.44566 -2.43786,1.53017 -0.54975,0.50087 -1.1922,1.00485 -1.42777,1.11997 -0.61296,0.29951 -2.11428,0.4038 -3.32986,0.2313 z m 1.77285,-5.47765 c 0.7946,-0.47495 1.4253,-1.41893 1.56512,-2.34282 0.0811,-0.53733 0.0388,-0.68056 -0.32875,-1.10771 -0.54927,-0.63786 -1.54608,-0.96049 -3.66471,-1.18596 -2.26937,-0.24153 -4.23232,0.0411 -4.73107,0.6814 -0.58453,0.75026 0.13629,2.61188 1.32473,3.4215 1.63972,1.11692 4.43182,1.37228 5.83468,0.53359 z m 15.92048,0.0378 c 1.76439,-0.79306 2.8405,-2.07779 2.8405,-3.39086 0,-0.50264 -0.0717,-0.64604 -0.4292,-0.8609 -1.41637,-0.85086 -6.57559,-0.5427 -7.90925,0.47244 -1.2352,0.94009 -0.19045,3.36549 1.77003,4.109 0.66489,0.25215 2.86694,0.0574 3.72792,-0.32968 z m -14.64909,-12.24818 c -11.51792,-0.29321 -21.92447,-2.34047 -23.27411,-4.5787 -0.30607,-0.50762 -0.26025,-1.16189 0.10927,-1.56395 1.05919,-1.15196 4.53404,-2.36414 8.71607,-3.04062 0.87109,-0.14089 1.29312,-0.28417 1.37619,-0.46718 0.067,-0.14516 0.97119,-3.88352 2.01159,-8.30746 1.04028,-4.42392 2.01676,-8.35728 2.16985,-8.74079 0.32957,-0.8253 1.34283,-1.95807 2.08209,-2.32802 0.29902,-0.14955 0.92831,-0.26476 1.45491,-0.26636 0.8208,-0.002 1.22885,0.13633 3.53359,1.20221 2.86423,1.32451 4.10731,1.66326 6.10339,1.66326 1.94438,0 3.18499,-0.33291 5.99917,-1.60992 1.41203,-0.64067 2.82652,-1.21348 3.14351,-1.27291 0.80307,-0.15055 1.87448,0.1609 2.65005,0.7704 1.2748,1.00186 1.35716,1.2451 3.49505,10.33337 1.07283,4.56074 2.00396,8.41106 2.06905,8.55622 0.0822,0.18365 0.50075,0.32505 1.3749,0.46479 5.40818,0.86454 9.03741,2.43666 9.03741,3.91496 0,2.05754 -6.14921,3.91454 -15.91907,4.80745 -3.37298,0.30829 -10.37613,0.60527 -12.84946,0.5449 -1.0209,-0.0249 -2.49848,-0.0617 -3.28369,-0.0817 z"
       id="path4663"
       inkscape:connector-curvature="0"
       inkscape:export-filename="/Users/santannajj/Desktop/a.png"
       inkscape:export-xdpi="90"
       inkscape:export-ydpi="90" />
    <path
       transform="scale(-1,-1)"
       d="m -277.83036,611.00873 a 49.768734,48.563213 0 0 1 -49.55722,48.56277 49.768734,48.563213 0 0 1 -49.97845,-48.15 49.768734,48.563213 0 0 1 49.13242,-48.97204 49.768734,48.563213 0 0 1 50.39606,47.73376"
       sodipodi:open="true"
       sodipodi:end="6.2661858"
       sodipodi:start="0"
       sodipodi:ry="48.563213"
       sodipodi:rx="49.768734"
       sodipodi:cy="611.00873"
       sodipodi:cx="-327.59909"
       sodipodi:type="arc"
       id="path4665"
       style="fill:none;fill-opacity:1;stroke:#ffffff;stroke-width:10.00000095;stroke-miterlimit:4;stroke-dasharray:none;stroke-dashoffset:0;stroke-opacity:1"
       inkscape:export-filename="/Users/santannajj/Desktop/a.png"
       inkscape:export-xdpi="90"
       inkscape:export-ydpi="90" />
    <path
       style="fill:none;fill-rule:evenodd;stroke:#ffffff;stroke-width:5.00000048;stroke-linecap:butt;stroke-linejoin:miter;stroke-miterlimit:4;stroke-dasharray:10.00000119, 5.0000006;stroke-dashoffset:0;stroke-opacity:1"
       d="m 276.96285,-596.5476 c -9.77921,3.34096 -41.07435,30.36209 -41.07435,30.36209"
       id="path4667"
       inkscape:connector-curvature="0"
       sodipodi:nodetypes="cc"
       inkscape:export-filename="/Users/santannajj/Desktop/a.png"
       inkscape:export-xdpi="90"
       inkscape:export-ydpi="90" />
    <path
       style="fill:none;fill-rule:evenodd;stroke:#ffffff;stroke-width:10.00000095;stroke-linecap:butt;stroke-linejoin:miter;stroke-miterlimit:4;stroke-dasharray:none;stroke-opacity:1"
       d="m 327.59915,-563.59705 0,114.52338"
       id="path4669"
       inkscape:connector-curvature="0"
       inkscape:export-filename="/Users/santannajj/Desktop/a.png"
       inkscape:export-xdpi="90"
       inkscape:export-ydpi="90" />
    <path
       transform="scale(-1,-1)"
       style="fill:none;fill-opacity:1;stroke:#ffffff;stroke-width:5.00000048;stroke-miterlimit:4;stroke-dasharray:none;stroke-dashoffset:0;stroke-opacity:1"
       id="path4671"
       sodipodi:type="arc"
       sodipodi:cx="-213.67343"
       sodipodi:cy="543.90704"
       sodipodi:rx="31.246111"
       sodipodi:ry="31.045185"
       sodipodi:start="0"
       sodipodi:end="6.2661858"
       sodipodi:open="true"
       d="m -182.42732,543.90704 a 31.246111,31.045185 0 0 1 -31.11332,31.04491 31.246111,31.045185 0 0 1 -31.37777,-30.78103 31.246111,31.045185 0 0 1 30.84661,-31.30654 31.246111,31.045185 0 0 1 31.63996,30.51494"
       inkscape:export-filename="/Users/santannajj/Desktop/a.png"
       inkscape:export-xdpi="90"
       inkscape:export-ydpi="90" />
    <path
       inkscape:export-ydpi="90"
       inkscape:export-xdpi="90"
       inkscape:export-filename="/Users/santannajj/Desktop/a.png"
       inkscape:connector-curvature="0"
       id="path4673"
       d="m 212.52331,-518.90721 c -1.2379,-0.0985 -2.01,-0.22409 -2.9983,-0.48784 -3.5673,-0.95203 -6.8254,-3.21063 -9.397,-6.5145 -0.1737,-0.22294 -0.4059,-0.53293 -0.5163,-0.68886 l -0.2007,-0.28352 -0.065,0.0664 c -0.036,0.0365 -1.1976,1.28929 -2.5825,2.784 -1.3848,1.49468 -2.524,2.71944 -2.5314,2.72164 -0.01,0.003 -0.6088,-0.5478 -1.3361,-1.22224 l -1.3226,-1.22626 0.3571,-0.38067 c 0.5302,-0.565 5.5018,-5.93394 5.543,-5.98597 0.028,-0.0367 0,-0.11911 -0.1553,-0.46253 -1.1922,-2.6115 -2.0127,-5.71777 -2.2737,-8.6077 l -0.036,-0.39491 -3.1212,0 -3.1212,0 0,-1.80961 0,-1.80962 3.0836,0 3.0836,0 1e-4,-0.10856 c 8e-4,-0.37007 0.107,-1.59127 0.2055,-2.36698 0.094,-0.7393 0.318,-2.06111 0.3913,-2.30907 0.012,-0.0389 0,-0.0507 -0.059,-0.0507 -0.041,0 -0.075,-0.0106 -0.075,-0.0234 0,-0.0471 0.258,-0.92862 0.3915,-1.33733 0.2127,-0.65105 0.8312,-2.35735 1.0758,-2.96777 0.71,-1.77148 1.6339,-3.48186 2.6765,-4.95511 0.1255,-0.17737 0.2283,-0.32961 0.2283,-0.33832 0,-0.009 -1.6286,-1.77236 -3.6192,-3.91923 -1.9905,-2.14687 -3.6182,-3.91643 -3.617,-3.93235 0,-0.0293 2.5861,-2.42781 2.6255,-2.43721 0.012,-0.003 1.5654,1.66222 3.4525,3.70006 1.887,2.03784 3.4636,3.73619 3.5033,3.77411 l 0.072,0.0689 0.3041,-0.27708 c 1.891,-1.7236 4.0055,-2.97767 6.2539,-3.70933 3.2034,-1.04236 6.6239,-0.98715 9.7936,0.15807 0.6795,0.24551 1.0154,0.38993 1.7446,0.75016 1.7659,0.87247 3.1531,1.84359 4.4771,3.13415 l 0.3946,0.3847 3.8471,-4.15355 c 2.1159,-2.28447 3.8567,-4.15133 3.8684,-4.1486 0.034,0.008 2.6279,2.42109 2.6279,2.44482 0,0.0119 -1.8096,1.97329 -4.0215,4.3589 l -4.0215,4.33749 0.3111,0.48321 c 1.4872,2.30967 2.7213,5.09897 3.4744,7.85331 0.077,0.27941 0.1483,0.5628 0.1596,0.62974 0.02,0.1151 0.016,0.12171 -0.049,0.12171 l -0.069,0 0.079,0.38977 c 0.2437,1.18842 0.4447,2.7756 0.512,4.04017 l 0.021,0.39087 3.8001,0.007 3.8003,0.007 0,1.8095 0,1.8095 -3.8346,0 -3.8346,0 -0.015,0.12307 c -0.01,0.0676 -0.048,0.41621 -0.089,0.77451 -0.2886,2.55003 -0.902,4.95033 -1.8596,7.2769 l -0.2483,0.60305 0.1153,0.12079 c 0.063,0.0665 1.5263,1.64521 3.2508,3.50838 1.7245,1.86318 3.2125,3.46694 3.3068,3.56392 l 0.1715,0.17633 -1.1528,1.06794 c -0.6339,0.58739 -1.2314,1.14265 -1.3276,1.23394 l -0.1748,0.16597 -2.9918,-3.22711 c -1.6455,-1.7749 -3.0013,-3.22709 -3.0129,-3.22709 -0.012,0 -0.11,0.13354 -0.2186,0.29678 -1.0985,1.65054 -2.5346,3.24476 -4.024,4.46677 -1.0762,0.88291 -2.1186,1.55781 -3.3297,2.15571 -1.8552,0.91581 -3.644,1.41827 -5.6199,1.57852 -0.4732,0.0383 -1.7231,0.0531 -2.0818,0.0246 z m -0.9121,-16.64395 0,-12.49355 -6.3495,0 -6.3496,0 -0.1208,0.49945 c -0.2839,1.17432 -0.4684,2.34174 -0.5869,3.71332 -0.051,0.59196 -0.068,2.47513 -0.029,3.13248 0.1919,3.21797 0.9497,6.13355 2.291,8.81434 1.5164,3.03097 3.7355,5.51785 6.3078,7.06902 0.8275,0.49895 1.9685,1.02169 2.8256,1.29444 0.5665,0.18029 1.7128,0.45008 1.9616,0.46169 0.048,0.003 0.051,-0.61096 0.051,-12.49119 z m 5.0751,12.18778 c 1.2195,-0.31363 2.6629,-0.97767 3.8862,-1.78777 0.8728,-0.5781 1.5257,-1.12083 2.3898,-1.98658 1.6583,-1.66161 2.902,-3.52659 3.9208,-5.87928 1.8875,-4.35851 2.3151,-9.71862 1.1555,-14.48482 l -0.1321,-0.54288 -5.7444,0 -5.7446,0 0,12.38083 c 0,11.10878 0.01,12.37909 0.045,12.36381 0.025,-0.009 0.1254,-0.0378 0.2243,-0.0633 z"
       style="fill:#4ba4d9;fill-opacity:1" />
    <path
       sodipodi:nodetypes="sssssssscccccscsscscssccscscsscscsssssscscscssssssssscsssssssscccsss"
       inkscape:connector-curvature="0"
       id="path4677"
       d="m 357.85968,-595.22256 c -0.65996,2.59316 -3.64955,6.75836 -5.93765,8.27259 -1.38139,0.91416 -2.26285,1.22817 -3.98513,1.41963 -1.21627,0.13526 -6.58395,0.85857 -11.92815,1.60747 -9.15964,1.28355 -9.85174,1.33068 -12.07153,0.82215 -2.11761,-0.48511 -4.10059,-1.73936 -19.68648,-12.45183 -11.34414,-7.79703 -18.16486,-12.7346 -19.7434,-14.29239 -1.32645,-1.30903 -3.40583,-3.90543 -4.62084,-5.76979 l -2.20913,-3.38978 -9.31583,0.25578 -9.31583,0.25573 -9.82,-6.79943 -9.82,-6.79939 1.437,-1.93769 c 0.79035,-1.0657 1.78781,-2.09044 2.21656,-2.27722 0.42874,-0.18682 4.61697,-1.86994 9.30715,-3.74037 4.69019,-1.87041 8.58786,-3.48788 8.66148,-3.59439 0.0736,-0.10655 -0.0949,-0.5721 -0.37467,-1.03454 -0.47168,-0.77993 -0.12501,-1.39504 4.7834,-8.48754 4.43921,-6.4145 5.42418,-7.6298 6.1125,-7.54211 0.45129,0.0575 4.29654,0.89686 8.54497,1.86518 4.24844,0.96837 7.86041,1.73582 8.02663,1.70547 0.1662,-0.0303 -0.24614,-0.77703 -0.91633,-1.65931 l -1.21851,-1.60411 -6.38148,-1.36811 c -3.50981,-0.75249 -6.43056,-1.40051 -6.49055,-1.44014 -0.06,-0.0396 -0.0147,-4.11341 0.10055,-9.05287 0.20797,-8.90915 0.21859,-8.99418 1.33096,-10.64519 0.61674,-0.91537 1.29417,-1.69586 1.50541,-1.73443 0.21124,-0.0386 4.70621,2.91969 9.98883,6.57398 l 9.60474,6.64406 3.0236,8.59021 c 1.66297,4.7246 3.17921,8.69445 3.36942,8.82188 0.19021,0.12746 1.9477,0.60233 3.90555,1.05531 6.38225,1.47664 8.396,2.62962 26.81099,15.35105 15.5391,10.7347 17.31968,12.07016 18.70484,14.02889 1.51204,2.13815 1.55819,2.28256 3.74741,11.72544 3.12016,13.45837 3.25099,14.27816 2.65352,16.62581 z m -91.3048,-64.61755 -1.14574,1.61611 -5.7327,-3.76058 c -3.15299,-2.06835 -7.03004,-4.60996 -8.61566,-5.64798 -1.58562,-1.03802 -2.9029,-1.99658 -2.92726,-2.13002 -0.0244,-0.13352 0.31545,-0.5289 0.75518,-0.87873 0.75591,-0.60133 1.09906,-0.47788 6.29444,2.26556 3.02223,1.59591 7.05436,3.69248 8.96029,4.65904 1.90593,0.96655 3.48599,1.87058 3.51125,2.00894 0.0253,0.13833 -0.46965,0.9788 -1.0998,1.86766 z m -3.4107,4.93546 c -0.54321,0.76025 -1.15827,1.41342 -1.36677,1.45149 -0.2085,0.0381 -1.04624,-0.44355 -1.86165,-1.07027 -0.81541,-0.62672 -3.5351,-2.62948 -6.04375,-4.45055 -11.04645,-8.01879 -21.07557,-15.28997 -21.57234,-15.64006 -0.74809,-0.52721 -0.75878,-0.92025 -0.0501,-1.84352 0.59957,-0.78111 0.67818,-0.75188 4.13575,1.54027 1.9385,1.28504 7.36762,4.84809 12.06468,7.91782 12.96783,8.47503 15.59486,10.23611 15.64023,10.48459 0.0229,0.12541 -0.40283,0.84998 -0.94605,1.61023 z m -3.70672,5.34537 c -0.82736,1.15441 -1.24133,1.47338 -1.56911,1.20892 -0.2449,-0.19758 -2.77134,-2.44944 -5.61434,-5.00414 -2.843,-2.5547 -6.13531,-5.49542 -7.31625,-6.53491 l -2.14717,-1.89 0.62881,-0.89317 0.62881,-0.89321 4.84014,3.46972 c 7.32996,5.25454 11.57609,8.43804 11.62708,8.71726 0.0252,0.13827 -0.45984,0.95705 -1.07797,1.81953 z"
       style="fill:#4ba4d9;fill-opacity:1"
       inkscape:export-filename="/Users/santannajj/Desktop/a.png"
       inkscape:export-xdpi="90"
       inkscape:export-ydpi="90" />
    <path
       sodipodi:nodetypes="cc"
       inkscape:connector-curvature="0"
       id="path4700"
       d="m 189.45465,-522.69675 c -8.23296,8.13964 -22.15201,28.71696 -25.53219,36.70261"
       style="fill:none;fill-rule:evenodd;stroke:#ffffff;stroke-width:5.00000048;stroke-linecap:butt;stroke-linejoin:miter;stroke-miterlimit:4;stroke-dasharray:10.00000119, 5.0000006;stroke-dashoffset:0;stroke-opacity:1"
       inkscape:export-filename="/Users/santannajj/Desktop/a.png"
       inkscape:export-xdpi="90"
       inkscape:export-ydpi="90" />
    <path
       inkscape:connector-curvature="0"
       id="path4705"
       d="m 312.70938,-288.96287 c -44.57591,-2.6703 -80.84599,-17.5567 -90.79788,-37.26636 -0.84644,-1.67637 -1.77489,-4.07428 -2.06322,-5.32871 -0.3142,-1.36701 -0.51229,-9.80365 -0.49443,-21.0581 0.0277,-17.45332 0.0813,-18.56391 0.75996,-15.75048 5.01831,20.80337 39.29554,37.42966 86.52012,41.96689 8.48197,0.81492 32.52734,0.81492 41.00931,0 47.22458,-4.53723 81.50181,-21.16352 86.52012,-41.96689 0.67867,-2.81343 0.73226,-1.70284 0.75996,15.75048 0.0179,11.25445 -0.18022,19.69109 -0.49443,21.0581 -0.73624,3.2031 -3.20162,7.88573 -5.87981,11.16786 -17.49232,21.43683 -65.44418,34.44613 -115.8397,31.42721 z m -4.74561,-50.24524 c -27.18688,-2.08986 -54.48909,-10.13616 -70.69126,-20.83358 -5.3491,-3.53172 -12.22761,-10.46244 -14.54719,-14.65761 -3.36867,-6.09251 -3.43388,-6.63385 -3.35708,-27.87029 0.0379,-10.48622 0.16429,-18.49491 0.28082,-17.7971 0.93048,5.57179 4.10905,11.10722 9.48737,16.52209 13.38534,13.4763 39.2708,22.99975 73.95349,27.20802 3.69514,0.44836 11.78752,0.67574 24.04867,0.67574 18.82537,0 22.54862,-0.24279 35.94643,-2.34403 21.0223,-3.29702 41.02069,-10.26439 53.91964,-18.78542 5.05822,-3.34145 11.65641,-9.90077 14.01185,-13.9293 1.7227,-2.94636 3.16686,-6.68394 3.6116,-9.3471 0.11653,-0.69781 0.2429,7.31088 0.28082,17.7971 0.0768,21.23644 0.0116,21.77778 -3.35707,27.87029 -2.31959,4.19517 -9.1981,11.12589 -14.5472,14.65761 -16.53626,10.918 -43.33537,18.72229 -71.63972,20.8625 -7.79494,0.58941 -29.5765,0.57257 -37.40117,-0.0289 z m 3.47989,-49.73754 c -34.63179,-2.41629 -63.7385,-11.70631 -79.98197,-25.52794 -5.95599,-5.06798 -10.33774,-11.51404 -11.62134,-17.09635 -0.3044,-1.32384 -0.50407,-9.95188 -0.4865,-21.02272 0.0275,-17.31593 0.0858,-18.54565 0.74865,-15.80041 4.5347,18.77944 33.80063,34.81627 74.12738,40.61952 19.88043,2.86091 45.93698,2.86091 65.81741,0 40.32675,-5.80325 69.59269,-21.84008 74.12738,-40.61952 0.6629,-2.74524 0.72117,-1.51552 0.74865,15.80041 0.0176,11.07084 -0.1821,19.69888 -0.4865,21.02272 -0.75212,3.27091 -3.36681,8.25718 -6.02385,11.48758 -17.51961,21.30018 -67.45084,34.59165 -116.96931,31.13671 z m -1.26571,-50.00263 c -47.39308,-3.58718 -83.8801,-20.50928 -90.07562,-41.77562 -5.8861,-20.20427 19.70796,-40.93604 61.04232,-49.44566 15.32601,-3.1552 28.64575,-4.44143 45.99394,-4.44143 17.34818,0 30.66792,1.28623 45.99393,4.44143 32.67592,6.72708 56.83044,21.69253 61.12775,37.87301 5.51266,20.75655 -20.0618,40.9299 -62.83622,49.56576 -14.90816,3.00985 -22.06641,3.67477 -41.24774,3.83145 -9.60681,0.0785 -18.60607,0.0564 -19.99836,-0.0489 z"
       style="fill:#fbeb8c;fill-opacity:1"
       inkscape:export-filename="/Users/santannajj/Desktop/a.png"
       inkscape:export-xdpi="90"
       inkscape:export-ydpi="90" />
    <text
       inkscape:export-ydpi="90"
       inkscape:export-xdpi="90"
       sodipodi:linespacing="125%"
       id="text4747"
       y="-344.40292"
       x="434.19504"
       style="font-style:normal;font-weight:normal;font-size:187.5px;line-height:125%;font-family:sans-serif;letter-spacing:-0.02px;word-spacing:0px;fill:#ffffff;fill-opacity:1;stroke:none;stroke-width:1px;stroke-linecap:butt;stroke-linejoin:miter;stroke-opacity:1;"
       xml:space="preserve"
       inkscape:export-filename="/Users/santannajj/Desktop/a.png"><tspan
         dx="0"
         style="font-style:normal;font-variant:normal;font-weight:bold;font-stretch:normal;font-family:'DIN Alternate';-inkscape-font-specification:'DIN Alternate Bold';letter-spacing:0px;fill:#ffffff;fill-opacity:1"
         y="-344.40292"
         x="434.19504"
         id="tspan4749"
         sodipodi:role="line">DDoS</tspan></text>
    <path
       inkscape:export-ydpi="90"
       inkscape:export-xdpi="90"
       inkscape:export-filename="/Users/santannajj/Desktop/a.png"
       style="fill:none;fill-opacity:1;stroke:#ffffff;stroke-width:5.00000048;stroke-miterlimit:4;stroke-dasharray:none;stroke-dashoffset:0;stroke-opacity:1"
       id="path4829"
       sodipodi:type="arc"
       sodipodi:cx="1140.2214"
       sodipodi:cy="-408.27097"
       sodipodi:rx="31.246111"
       sodipodi:ry="31.045185"
       sodipodi:start="0"
       sodipodi:end="6.2661858"
       sodipodi:open="true"
       d="m 1171.4675,-408.27097 a 31.246111,31.045185 0 0 1 -31.1133,31.04491 31.246111,31.045185 0 0 1 -31.3777,-30.78103 31.246111,31.045185 0 0 1 30.8466,-31.30654 31.246111,31.045185 0 0 1 31.6399,30.51494" />
    <path
       inkscape:export-ydpi="90"
       inkscape:export-xdpi="90"
       inkscape:export-filename="/Users/santannajj/Desktop/a.png"
       style="fill:none;fill-opacity:1;stroke:#ffffff;stroke-width:10.00000095;stroke-miterlimit:4;stroke-dasharray:none;stroke-dashoffset:0;stroke-opacity:1"
       id="path4833"
       sodipodi:type="arc"
       sodipodi:cx="964.17114"
       sodipodi:cy="-256.01559"
       sodipodi:rx="49.768734"
       sodipodi:ry="48.563213"
       sodipodi:start="0"
       sodipodi:end="6.2661858"
       sodipodi:open="true"
       d="m 1013.9399,-256.01559 a 49.768734,48.563213 0 0 1 -49.55725,48.56277 49.768734,48.563213 0 0 1 -49.97844,-48.15 49.768734,48.563213 0 0 1 49.13242,-48.97204 49.768734,48.563213 0 0 1 50.39607,47.73375" />
    <path
       inkscape:export-ydpi="90"
       inkscape:export-xdpi="90"
       inkscape:export-filename="/Users/santannajj/Desktop/a.png"
       sodipodi:nodetypes="cc"
       inkscape:connector-curvature="0"
       id="path4835"
       d="m 1014.8074,-270.47674 c 9.7792,-3.34096 41.0743,-30.36209 41.0743,-30.36209"
       style="fill:none;fill-rule:evenodd;stroke:#ffffff;stroke-width:5.00000048;stroke-linecap:butt;stroke-linejoin:miter;stroke-miterlimit:4;stroke-dasharray:10.00000119, 5.0000006;stroke-dashoffset:0;stroke-opacity:1" />
    <path
       inkscape:export-ydpi="90"
       inkscape:export-xdpi="90"
       inkscape:export-filename="/Users/santannajj/Desktop/a.png"
       inkscape:connector-curvature="0"
       id="path4837"
       d="m 964.1711,-303.42729 0,-114.52338"
       style="fill:none;fill-rule:evenodd;stroke:#ffffff;stroke-width:10.00000095;stroke-linecap:butt;stroke-linejoin:miter;stroke-miterlimit:4;stroke-dasharray:none;stroke-opacity:1" />
    <path
       inkscape:export-ydpi="90"
       inkscape:export-xdpi="90"
       inkscape:export-filename="/Users/santannajj/Desktop/a.png"
       d="m 1109.3429,-323.11731 a 31.246111,31.045185 0 0 1 -31.1133,31.04491 31.246111,31.045185 0 0 1 -31.3778,-30.78104 31.246111,31.045185 0 0 1 30.8466,-31.30653 31.246111,31.045185 0 0 1 31.64,30.51493"
       sodipodi:open="true"
       sodipodi:end="6.2661858"
       sodipodi:start="0"
       sodipodi:ry="31.045185"
       sodipodi:rx="31.246111"
       sodipodi:cy="-323.11731"
       sodipodi:cx="1078.0968"
       sodipodi:type="arc"
       id="path4839"
       style="fill:none;fill-opacity:1;stroke:#ffffff;stroke-width:5.00000048;stroke-miterlimit:4;stroke-dasharray:none;stroke-dashoffset:0;stroke-opacity:1" />
    <path
       inkscape:export-ydpi="90"
       inkscape:export-xdpi="90"
       inkscape:export-filename="/Users/santannajj/Desktop/a.png"
       style="fill:none;fill-rule:evenodd;stroke:#ffffff;stroke-width:5.00000048;stroke-linecap:butt;stroke-linejoin:miter;stroke-miterlimit:4;stroke-dasharray:10.00000119, 5.0000006;stroke-dashoffset:0;stroke-opacity:1"
       d="m 1102.3156,-344.32759 c 8.2329,-8.13964 22.152,-28.71696 25.5322,-36.70261"
       id="path4849"
       inkscape:connector-curvature="0"
       sodipodi:nodetypes="cc" />
    <path
       inkscape:export-ydpi="90"
       inkscape:export-xdpi="90"
       inkscape:export-filename="/Users/santannajj/Desktop/a.png"
       inkscape:connector-curvature="0"
       id="path4831"
       d="m 1132.8892,-384.79462 c -2.3268,-0.33021 -5.6505,-1.5775 -7.6297,-2.86324 -1.7398,-1.13023 -2.9039,-3.18609 -4.0329,-7.12251 -0.8587,-2.99426 -0.8044,-4.00238 0.2583,-4.78187 0.3824,-0.28056 0.6086,-0.31985 1.385,-0.24061 0.5104,0.0521 1.9881,0.20271 3.2838,0.33469 4.9139,0.50056 8.7495,0.62834 16.1572,0.53831 7.2279,-0.0879 8.7992,-0.16979 13.6393,-0.71117 1.3507,-0.15109 2.6147,-0.22838 2.8087,-0.17178 0.5415,0.15784 1.2161,0.90063 1.349,1.48498 0.1468,0.64614 -0.1092,2.05043 -0.7914,4.3397 -1.0927,3.66714 -2.258,5.54636 -4.144,6.68292 -2.4416,1.47116 -5.873,2.53988 -8.2455,2.56807 -1.7183,0.0203 -2.0226,-0.11045 -3.6864,-1.58519 -1.3231,-1.17274 -2.1827,-1.54144 -3.1559,-1.35374 -0.7761,0.14969 -1.2476,0.44566 -2.4378,1.53017 -0.5498,0.50087 -1.1922,1.00485 -1.4278,1.11997 -0.613,0.29951 -2.1143,0.4038 -3.3299,0.2313 z m 1.7729,-5.47765 c 0.7946,-0.47495 1.4253,-1.41893 1.5651,-2.34282 0.081,-0.53733 0.039,-0.68056 -0.3287,-1.10771 -0.5493,-0.63786 -1.5461,-0.96049 -3.6648,-1.18596 -2.2693,-0.24153 -4.2323,0.0411 -4.731,0.6814 -0.5846,0.75026 0.1363,2.61188 1.3247,3.4215 1.6397,1.11692 4.4318,1.37228 5.8347,0.53359 z m 15.9205,0.0378 c 1.7644,-0.79306 2.8405,-2.07779 2.8405,-3.39086 0,-0.50264 -0.072,-0.64604 -0.4292,-0.8609 -1.4164,-0.85086 -6.5756,-0.5427 -7.9093,0.47244 -1.2352,0.94009 -0.1904,3.36549 1.77,4.109 0.6649,0.25215 2.867,0.0574 3.728,-0.32968 z m -14.6491,-12.24818 c -11.5179,-0.29321 -21.9245,-2.34047 -23.2741,-4.5787 -0.3061,-0.50762 -0.2603,-1.16189 0.1092,-1.56395 1.0592,-1.15196 4.5341,-2.36414 8.7161,-3.04062 0.8711,-0.14089 1.2931,-0.28417 1.3762,-0.46718 0.067,-0.14516 0.9712,-3.88352 2.0116,-8.30746 1.0403,-4.42392 2.0167,-8.35728 2.1698,-8.74079 0.3296,-0.8253 1.3429,-1.95807 2.0821,-2.32802 0.299,-0.14955 0.9283,-0.26476 1.4549,-0.26636 0.8208,-0.002 1.2289,0.13633 3.5336,1.20221 2.8643,1.32451 4.1073,1.66326 6.1034,1.66326 1.9444,0 3.185,-0.33291 5.9992,-1.60992 1.412,-0.64067 2.8265,-1.21348 3.1435,-1.27291 0.8031,-0.15055 1.8745,0.1609 2.65,0.7704 1.2748,1.00186 1.3572,1.2451 3.4951,10.33337 1.0728,4.56074 2.004,8.41106 2.069,8.55622 0.082,0.18365 0.5008,0.32505 1.3749,0.46479 5.4082,0.86454 9.0375,2.43666 9.0375,3.91496 0,2.05754 -6.1493,3.91454 -15.9191,4.80745 -3.373,0.30829 -10.3761,0.60527 -12.8495,0.5449 -1.0209,-0.0249 -2.4985,-0.0617 -3.2837,-0.0817 z"
       style="fill:#4ba4d9;fill-opacity:1" />
    <path
       style="fill:#4ba4d9;fill-opacity:1"
       d="m 1076.4904,-298.44111 c -1.2379,-0.0985 -2.01,-0.22409 -2.9983,-0.48784 -3.5673,-0.95203 -6.8254,-3.21063 -9.397,-6.5145 -0.1737,-0.22294 -0.4059,-0.53293 -0.5163,-0.68886 l -0.2007,-0.28352 -0.065,0.0664 c -0.036,0.0365 -1.1976,1.28929 -2.5825,2.784 -1.3848,1.49468 -2.524,2.71944 -2.5314,2.72164 -0.01,0.003 -0.6088,-0.5478 -1.3361,-1.22224 l -1.3226,-1.22626 0.3571,-0.38067 c 0.5302,-0.565 5.5018,-5.93394 5.543,-5.98597 0.028,-0.0367 0,-0.11911 -0.1553,-0.46253 -1.1922,-2.6115 -2.0127,-5.71777 -2.2737,-8.6077 l -0.036,-0.39491 -3.1212,0 -3.1212,0 0,-1.80961 0,-1.80962 3.0836,0 3.0836,0 10e-5,-0.10856 c 8e-4,-0.37007 0.107,-1.59127 0.2055,-2.36698 0.094,-0.7393 0.318,-2.06111 0.3913,-2.30907 0.012,-0.0389 0,-0.0507 -0.059,-0.0507 -0.041,0 -0.075,-0.0106 -0.075,-0.0234 0,-0.0471 0.258,-0.92862 0.3915,-1.33733 0.2127,-0.65105 0.8312,-2.35735 1.0758,-2.96777 0.71,-1.77148 1.6339,-3.48186 2.6765,-4.95511 0.1255,-0.17737 0.2283,-0.32961 0.2283,-0.33832 0,-0.009 -1.6286,-1.77236 -3.6192,-3.91923 -1.9905,-2.14687 -3.6182,-3.91643 -3.617,-3.93235 0,-0.0293 2.5861,-2.42781 2.6255,-2.43721 0.012,-0.003 1.5654,1.66222 3.4525,3.70006 1.887,2.03784 3.4636,3.73619 3.5033,3.77411 l 0.072,0.0689 0.3041,-0.27708 c 1.891,-1.7236 4.0055,-2.97767 6.2539,-3.70933 3.2034,-1.04236 6.6239,-0.98715 9.7936,0.15807 0.6795,0.24551 1.0154,0.38993 1.7446,0.75016 1.7659,0.87247 3.1531,1.84359 4.4771,3.13415 l 0.3946,0.3847 3.8471,-4.15355 c 2.1159,-2.28447 3.8567,-4.15133 3.8684,-4.1486 0.034,0.008 2.6279,2.42109 2.6279,2.44482 0,0.0119 -1.8096,1.97329 -4.0215,4.3589 l -4.0215,4.33749 0.3111,0.48321 c 1.4872,2.30967 2.7213,5.09897 3.4744,7.85331 0.077,0.27941 0.1483,0.5628 0.1596,0.62974 0.02,0.1151 0.016,0.12171 -0.049,0.12171 l -0.069,0 0.079,0.38977 c 0.2437,1.18842 0.4447,2.7756 0.512,4.04017 l 0.021,0.39087 3.8001,0.007 3.8003,0.007 0,1.8095 0,1.8095 -3.8346,0 -3.8346,0 -0.015,0.12307 c -0.01,0.0676 -0.048,0.41621 -0.089,0.77451 -0.2886,2.55003 -0.902,4.95033 -1.8596,7.2769 l -0.2483,0.60305 0.1153,0.12079 c 0.063,0.0665 1.5263,1.64521 3.2508,3.50838 1.7245,1.86318 3.2125,3.46694 3.3068,3.56392 l 0.1715,0.17633 -1.1528,1.06794 c -0.6339,0.58739 -1.2314,1.14265 -1.3276,1.23394 l -0.1748,0.16597 -2.9918,-3.22711 c -1.6455,-1.7749 -3.0013,-3.22709 -3.0129,-3.22709 -0.012,0 -0.11,0.13354 -0.2186,0.29678 -1.0985,1.65054 -2.5346,3.24476 -4.024,4.46677 -1.0762,0.88291 -2.1186,1.55781 -3.3297,2.15571 -1.8552,0.91581 -3.644,1.41827 -5.6199,1.57852 -0.4732,0.0383 -1.7231,0.0531 -2.0818,0.0246 z m -0.9121,-16.64395 0,-12.49355 -6.3495,0 -6.3496,0 -0.1208,0.49945 c -0.2839,1.17432 -0.4684,2.34174 -0.5869,3.71332 -0.051,0.59196 -0.068,2.47513 -0.029,3.13248 0.1919,3.21797 0.9497,6.13355 2.291,8.81434 1.5164,3.03097 3.7355,5.51785 6.3078,7.06902 0.8275,0.49895 1.9685,1.02169 2.8256,1.29444 0.5665,0.18029 1.7128,0.45008 1.9616,0.46169 0.048,0.003 0.051,-0.61096 0.051,-12.49119 z m 5.0751,12.18778 c 1.2195,-0.31363 2.6629,-0.97767 3.8862,-1.78777 0.8728,-0.5781 1.5257,-1.12083 2.3898,-1.98658 1.6583,-1.66161 2.902,-3.52659 3.9208,-5.87928 1.8875,-4.35851 2.3151,-9.71862 1.1555,-14.48482 l -0.1321,-0.54288 -5.7444,0 -5.7446,0 0,12.38083 c 0,11.10878 0.01,12.37909 0.045,12.36381 0.025,-0.009 0.1254,-0.0378 0.2243,-0.0633 z"
       id="path4841"
       inkscape:connector-curvature="0"
       inkscape:export-filename="/Users/santannajj/Desktop/a.png"
       inkscape:export-xdpi="90"
       inkscape:export-ydpi="90" />
    <path
       inkscape:export-ydpi="90"
       inkscape:export-xdpi="90"
       inkscape:export-filename="/Users/santannajj/Desktop/a.png"
       style="fill:#4ba4d9;fill-opacity:1"
       d="m 928.7368,-274.97829 c 0.66,-2.59316 3.6496,-6.75836 5.9377,-8.27259 1.3814,-0.91416 2.2628,-1.22817 3.9851,-1.41963 1.2163,-0.13526 6.584,-0.85857 11.9282,-1.60747 9.1596,-1.28355 9.8517,-1.33068 12.0715,-0.82215 2.1176,0.48511 4.1006,1.73936 19.6865,12.45183 11.3441,7.79703 18.1648,12.7346 19.7434,14.29239 1.3264,1.30903 3.4058,3.90543 4.6208,5.76979 l 2.2091,3.38978 9.3158,-0.25578 9.3159,-0.25573 9.82,6.79943 9.82,6.79939 -1.437,1.93769 c -0.7904,1.0657 -1.7878,2.09044 -2.2166,2.27722 -0.4287,0.18682 -4.617,1.86994 -9.3071,3.74037 -4.6902,1.87041 -8.5879,3.48788 -8.6615,3.59439 -0.074,0.10655 0.095,0.5721 0.3747,1.03454 0.4716,0.77993 0.125,1.39504 -4.7834,8.48754 -4.4393,6.4145 -5.4242,7.6298 -6.1125,7.54211 -0.4513,-0.0575 -4.2966,-0.89686 -8.545,-1.86518 -4.2484,-0.96837 -7.8604,-1.73582 -8.0266,-1.70547 -0.1662,0.0303 0.2461,0.77703 0.9163,1.65931 l 1.2185,1.60411 6.3815,1.36811 c 3.5098,0.75249 6.4305,1.40051 6.4905,1.44014 0.06,0.0396 0.015,4.11341 -0.1005,9.05287 -0.208,8.90915 -0.2186,8.99418 -1.331,10.64519 -0.6167,0.91537 -1.2942,1.69586 -1.5054,1.73443 -0.2112,0.0386 -4.7062,-2.91969 -9.9888,-6.57398 l -9.6047,-6.64406 -3.0236,-8.59021 c -1.663,-4.7246 -3.1792,-8.69445 -3.3694,-8.82188 -0.1903,-0.12746 -1.9477,-0.60233 -3.9056,-1.05531 -6.3822,-1.47664 -8.396,-2.62962 -26.811,-15.35105 -15.5391,-10.7347 -17.3197,-12.07016 -18.7048,-14.02889 -1.5121,-2.13815 -1.5582,-2.28256 -3.7474,-11.72544 -3.1202,-13.45837 -3.251,-14.27816 -2.6536,-16.62581 z m 91.3048,64.61755 1.1457,-1.61611 5.7327,3.76058 c 3.153,2.06835 7.0301,4.60996 8.6157,5.64798 1.5856,1.03802 2.9029,1.99658 2.9273,2.13002 0.024,0.13352 -0.3155,0.5289 -0.7552,0.87873 -0.7559,0.60133 -1.0991,0.47788 -6.2945,-2.26556 -3.0222,-1.59591 -7.0543,-3.69248 -8.9602,-4.65904 -1.906,-0.96655 -3.486,-1.87058 -3.5113,-2.00894 -0.025,-0.13833 0.4697,-0.9788 1.0998,-1.86766 z m 3.4107,-4.93546 c 0.5432,-0.76025 1.1583,-1.41342 1.3668,-1.45149 0.2085,-0.0381 1.0462,0.44355 1.8616,1.07027 0.8154,0.62672 3.5351,2.62948 6.0438,4.45055 11.0464,8.01879 21.0755,15.28997 21.5723,15.64006 0.7481,0.52721 0.7588,0.92025 0.05,1.84352 -0.5996,0.78111 -0.6782,0.75188 -4.1357,-1.54027 -1.9385,-1.28504 -7.3677,-4.84809 -12.0647,-7.91782 -12.9678,-8.47503 -15.5949,-10.23611 -15.6402,-10.48459 -0.023,-0.12541 0.4028,-0.84998 0.946,-1.61023 z m 3.7067,-5.34537 c 0.8274,-1.15441 1.2414,-1.47338 1.5691,-1.20892 0.2449,0.19758 2.7714,2.44944 5.6144,5.00414 2.843,2.5547 6.1353,5.49542 7.3162,6.53491 l 2.1472,1.89 -0.6288,0.89317 -0.6288,0.89321 -4.8402,-3.46972 c -7.3299,-5.25454 -11.5761,-8.43804 -11.627,-8.71726 -0.025,-0.13827 0.4598,-0.95705 1.0779,-1.81953 z"
       id="path4843"
       inkscape:connector-curvature="0"
       sodipodi:nodetypes="sssssssscccccscsscscssccscscsscscsssssscscscssssssssscsssssssscccsss" />
    <text
       inkscape:export-ydpi="90"
       inkscape:export-xdpi="90"
       xml:space="preserve"
       style="font-style:normal;font-weight:normal;font-size:187.5px;line-height:125%;font-family:sans-serif;letter-spacing:0px;word-spacing:0px;fill:#fbeb8c;fill-opacity:1;stroke:none;stroke-width:1px;stroke-linecap:butt;stroke-linejoin:miter;stroke-opacity:1"
       x="945.45782"
       y="-344.40292"
       id="text4751"
       sodipodi:linespacing="125%"
       inkscape:export-filename="/Users/santannajj/Desktop/a.png"><tspan
         sodipodi:role="line"
         id="tspan4753"
         x="945.45782"
         y="-344.40292"
         style="font-style:normal;font-variant:normal;font-weight:bold;font-stretch:normal;font-family:'DIN Alternate';-inkscape-font-specification:'DIN Alternate Bold';fill:#fbeb8c;fill-opacity:1">B</tspan></text>
    <text
       sodipodi:linespacing="125%"
       id="text4851"
       y="-344.40292"
       x="852.64282"
       style="font-style:normal;font-weight:normal;font-size:187.5px;line-height:125%;font-family:sans-serif;letter-spacing:0px;word-spacing:0px;fill:#fbeb8c;fill-opacity:1;stroke:none;stroke-width:1px;stroke-linecap:butt;stroke-linejoin:miter;stroke-opacity:1"
       xml:space="preserve"
       inkscape:export-xdpi="90"
       inkscape:export-ydpi="90"
       inkscape:export-filename="/Users/santannajj/Desktop/a.png"><tspan
         style="font-style:normal;font-variant:normal;font-weight:bold;font-stretch:normal;font-family:'DIN Alternate';-inkscape-font-specification:'DIN Alternate Bold';fill:#fbeb8c;fill-opacity:1"
         y="-344.40292"
         x="852.64282"
         id="tspan4853"
         sodipodi:role="line">D</tspan></text>
    <text
       xml:space="preserve"
       style="font-style:normal;font-weight:normal;font-size:37.75894928px;line-height:125%;font-family:sans-serif;letter-spacing:0px;word-spacing:0px;fill:#000000;fill-opacity:1;stroke:none;stroke-width:1px;stroke-linecap:butt;stroke-linejoin:miter;stroke-opacity:1"
       x="-150.85666"
       y="-680.06067"
       id="text4881"
       sodipodi:linespacing="125%"
       transform="matrix(0.83467753,0.56178068,-0.58105851,0.80698537,0,0)"
       inkscape:export-filename="/Users/santannajj/Desktop/a.png"
       inkscape:export-xdpi="90"
       inkscape:export-ydpi="90"><tspan
         sodipodi:role="line"
         id="tspan4883"
         x="-150.85666"
         y="-680.06067"
         style="font-style:normal;font-variant:normal;font-weight:bold;font-stretch:normal;font-size:36.97291565px;font-family:'DIN Alternate';-inkscape-font-specification:'DIN Alternate Bold';fill:#000000">DDoS</tspan></text>
    <text
       inkscape:export-ydpi="90"
       inkscape:export-xdpi="90"
       inkscape:export-filename="/Users/santannajj/Desktop/a.png"
       transform="matrix(0.83467753,0.56178068,-0.58105851,0.80698537,0,0)"
       sodipodi:linespacing="125%"
       id="text4909"
       y="-743.08752"
       x="599.45093"
       style="font-style:normal;font-weight:normal;font-size:37.75894928px;line-height:125%;font-family:sans-serif;letter-spacing:0px;word-spacing:0px;fill:#000000;fill-opacity:1;stroke:none;stroke-width:1px;stroke-linecap:butt;stroke-linejoin:miter;stroke-opacity:1"
       xml:space="preserve"><tspan
         style="font-style:normal;font-variant:normal;font-weight:bold;font-stretch:normal;font-size:36.97291565px;font-family:'DIN Alternate';-inkscape-font-specification:'DIN Alternate Bold';fill:#000000"
         y="-743.08752"
         x="599.45093"
         id="tspan4911"
         sodipodi:role="line">DDoS</tspan></text>
    <path
       inkscape:export-ydpi="90"
       inkscape:export-xdpi="90"
       inkscape:export-filename="/Users/santannajj/Desktop/a.png"
       transform="scale(-1,-1)"
       style="fill:none;fill-opacity:1;stroke:#000000;stroke-width:5.00000048;stroke-miterlimit:4;stroke-dasharray:none;stroke-dashoffset:0;stroke-opacity:1"
       id="path4915"
       sodipodi:type="arc"
       sodipodi:cx="-141.56982"
       sodipodi:cy="-172.77139"
       sodipodi:rx="31.246111"
       sodipodi:ry="31.045185"
       sodipodi:start="0"
       sodipodi:end="6.2661858"
       sodipodi:open="true"
       d="m -110.32371,-172.77139 a 31.246111,31.045185 0 0 1 -31.11332,31.0449 31.246111,31.045185 0 0 1 -31.37778,-30.78103 31.246111,31.045185 0 0 1 30.84662,-31.30653 31.246111,31.045185 0 0 1 31.63996,30.51493" />
    <path
       inkscape:export-ydpi="90"
       inkscape:export-xdpi="90"
       inkscape:export-filename="/Users/santannajj/Desktop/a.png"
       inkscape:connector-curvature="0"
       id="path4917"
       d="m 134.23767,196.24776 c -2.32682,-0.33021 -5.65057,-1.5775 -7.62973,-2.86324 -1.73983,-1.13023 -2.90395,-3.18609 -4.03293,-7.12251 -0.85864,-2.99426 -0.80436,-4.00238 0.25836,-4.78187 0.38232,-0.28056 0.60861,-0.31985 1.385,-0.24061 0.51039,0.0521 1.9881,0.20271 3.28381,0.33469 4.91389,0.50056 8.74943,0.62834 16.15711,0.53831 7.22791,-0.0879 8.79925,-0.16979 13.63936,-0.71117 1.3507,-0.15109 2.61468,-0.22838 2.80866,-0.17178 0.54153,0.15784 1.21617,0.90063 1.34905,1.48498 0.14675,0.64614 -0.10926,2.05043 -0.79143,4.3397 -1.09268,3.66714 -2.25797,5.54636 -4.14396,6.68292 -2.44161,1.47116 -5.87299,2.53988 -8.24551,2.56807 -1.71833,0.0203 -2.02264,-0.11045 -3.68645,-1.58519 -1.32309,-1.17274 -2.18266,-1.54144 -3.15585,-1.35374 -0.77616,0.14969 -1.24766,0.44566 -2.43786,1.53017 -0.54975,0.50087 -1.1922,1.00485 -1.42777,1.11997 -0.61296,0.29951 -2.11428,0.4038 -3.32986,0.2313 z m 1.77285,-5.47765 c 0.7946,-0.47495 1.4253,-1.41893 1.56512,-2.34282 0.0811,-0.53733 0.0388,-0.68056 -0.32875,-1.10771 -0.54927,-0.63786 -1.54608,-0.96049 -3.66471,-1.18596 -2.26937,-0.24153 -4.23232,0.0411 -4.73107,0.6814 -0.58453,0.75026 0.13629,2.61188 1.32473,3.4215 1.63972,1.11692 4.43182,1.37228 5.83468,0.53359 z m 15.92048,0.0378 c 1.76439,-0.79306 2.8405,-2.07779 2.8405,-3.39086 0,-0.50264 -0.0717,-0.64604 -0.4292,-0.8609 -1.41637,-0.85086 -6.57559,-0.5427 -7.90925,0.47244 -1.2352,0.94009 -0.19045,3.36549 1.77003,4.109 0.66489,0.25215 2.86694,0.0574 3.72792,-0.32968 z m -14.64909,-12.24818 c -11.51792,-0.29321 -21.92447,-2.34047 -23.27411,-4.5787 -0.30607,-0.50762 -0.26025,-1.16189 0.10927,-1.56395 1.05919,-1.15196 4.53404,-2.36414 8.71607,-3.04062 0.87109,-0.14089 1.29312,-0.28417 1.37619,-0.46718 0.067,-0.14516 0.97119,-3.88352 2.01159,-8.30746 1.04028,-4.42392 2.01676,-8.35728 2.16985,-8.74079 0.32957,-0.8253 1.34283,-1.95807 2.08209,-2.32802 0.29902,-0.14955 0.92831,-0.26476 1.45491,-0.26636 0.8208,-0.002 1.22885,0.13633 3.53359,1.20221 2.86423,1.32451 4.10731,1.66326 6.10339,1.66326 1.94438,0 3.18499,-0.33291 5.99917,-1.60992 1.41203,-0.64067 2.82652,-1.21348 3.14351,-1.27291 0.80307,-0.15055 1.87448,0.1609 2.65005,0.7704 1.2748,1.00186 1.35716,1.2451 3.49505,10.33337 1.07283,4.56074 2.00396,8.41106 2.06905,8.55622 0.0822,0.18365 0.50075,0.32505 1.3749,0.46479 5.40818,0.86454 9.03741,2.43666 9.03741,3.91496 0,2.05754 -6.14921,3.91454 -15.91907,4.80745 -3.37298,0.30829 -10.37613,0.60527 -12.84946,0.5449 -1.0209,-0.0249 -2.49848,-0.0617 -3.28369,-0.0817 z"
       style="fill:#666666;fill-opacity:1" />
    <path
       inkscape:export-ydpi="90"
       inkscape:export-xdpi="90"
       inkscape:export-filename="/Users/santannajj/Desktop/a.png"
       style="fill:none;fill-opacity:1;stroke:#000000;stroke-width:10.00000095;stroke-miterlimit:4;stroke-dasharray:none;stroke-dashoffset:0;stroke-opacity:1"
       id="path4919"
       sodipodi:type="arc"
       sodipodi:cx="-317.62015"
       sodipodi:cy="-20.516047"
       sodipodi:rx="49.768734"
       sodipodi:ry="48.563213"
       sodipodi:start="0"
       sodipodi:end="6.2661858"
       sodipodi:open="true"
       d="m -267.85141,-20.516047 a 49.768734,48.563213 0 0 1 -49.55723,48.562775 49.768734,48.563213 0 0 1 -49.97844,-48.150004 49.768734,48.563213 0 0 1 49.13242,-48.972037 49.768734,48.563213 0 0 1 50.39606,47.733756"
       transform="scale(-1,-1)" />
    <path
       inkscape:export-ydpi="90"
       inkscape:export-xdpi="90"
       inkscape:export-filename="/Users/santannajj/Desktop/a.png"
       sodipodi:nodetypes="cc"
       inkscape:connector-curvature="0"
       id="path4921"
       d="m 266.9839,34.977171 c -9.77921,3.34096 -41.07435,30.362094 -41.07435,30.362094"
       style="fill:none;fill-rule:evenodd;stroke:#000000;stroke-width:5.00000048;stroke-linecap:butt;stroke-linejoin:miter;stroke-miterlimit:4;stroke-dasharray:10.00000119, 5.00000059999999991;stroke-dashoffset:0;stroke-opacity:1" />
    <path
       inkscape:export-ydpi="90"
       inkscape:export-xdpi="90"
       inkscape:export-filename="/Users/santannajj/Desktop/a.png"
       inkscape:connector-curvature="0"
       id="path4923"
       d="m 317.6202,67.927725 0,114.523375"
       style="fill:none;fill-rule:evenodd;stroke:#000000;stroke-width:10.00000095;stroke-linecap:butt;stroke-linejoin:miter;stroke-miterlimit:4;stroke-dasharray:none;stroke-opacity:1" />
    <path
       inkscape:export-ydpi="90"
       inkscape:export-xdpi="90"
       inkscape:export-filename="/Users/santannajj/Desktop/a.png"
       d="m -172.44838,-87.617729 a 31.246111,31.045185 0 0 1 -31.11332,31.044905 31.246111,31.045185 0 0 1 -31.37777,-30.781032 31.246111,31.045185 0 0 1 30.84662,-31.306534 31.246111,31.045185 0 0 1 31.63996,30.514933"
       sodipodi:open="true"
       sodipodi:end="6.2661858"
       sodipodi:start="0"
       sodipodi:ry="31.045185"
       sodipodi:rx="31.246111"
       sodipodi:cy="-87.617729"
       sodipodi:cx="-203.69449"
       sodipodi:type="arc"
       id="path4925"
       style="fill:none;fill-opacity:1;stroke:#000000;stroke-width:5.00000048;stroke-miterlimit:4;stroke-dasharray:none;stroke-dashoffset:0;stroke-opacity:1"
       transform="scale(-1,-1)" />
    <path
       style="fill:#666666;fill-opacity:1"
       d="m 202.54436,112.61756 c -1.2379,-0.0985 -2.01,-0.22409 -2.9983,-0.48784 -3.5673,-0.95203 -6.8254,-3.21063 -9.397,-6.5145 -0.1737,-0.22294 -0.4059,-0.53293 -0.5163,-0.68886 l -0.2007,-0.28352 -0.065,0.0664 c -0.036,0.0365 -1.1976,1.28929 -2.5825,2.784 -1.3848,1.49468 -2.524,2.71944 -2.5314,2.72164 -0.01,0.003 -0.6088,-0.5478 -1.3361,-1.22224 l -1.3226,-1.22626 0.3571,-0.38067 c 0.5302,-0.565 5.5018,-5.93394 5.543,-5.98597 0.028,-0.0367 0,-0.11911 -0.1553,-0.46253 -1.1922,-2.611495 -2.0127,-5.717765 -2.2737,-8.607695 l -0.036,-0.39491 -3.1212,0 -3.1212,0 0,-1.80961 0,-1.80962 3.0836,0 3.0836,0 1e-4,-0.10856 c 8e-4,-0.37007 0.107,-1.59127 0.2055,-2.36698 0.094,-0.7393 0.318,-2.06111 0.3913,-2.30907 0.012,-0.0389 0,-0.0507 -0.059,-0.0507 -0.041,0 -0.075,-0.0106 -0.075,-0.0234 0,-0.0471 0.258,-0.92862 0.3915,-1.33733 0.2127,-0.65105 0.8312,-2.35735 1.0758,-2.96777 0.71,-1.77148 1.6339,-3.48186 2.6765,-4.95511 0.1255,-0.17737 0.2283,-0.32961 0.2283,-0.33832 0,-0.009 -1.6286,-1.77236 -3.6192,-3.91923 -1.9905,-2.14687 -3.6182,-3.91643 -3.617,-3.93235 0,-0.0293 2.5861,-2.42781 2.6255,-2.43721 0.012,-0.003 1.5654,1.66222 3.4525,3.70006 1.887,2.03784 3.4636,3.73619 3.5033,3.77411 l 0.072,0.0689 0.3041,-0.27708 c 1.891,-1.7236 4.0055,-2.97767 6.2539,-3.70933 3.2034,-1.04236 6.6239,-0.98715 9.7936,0.15807 0.6795,0.24551 1.0154,0.38993 1.7446,0.75016 1.7659,0.87247 3.1531,1.84359 4.4771,3.13415 l 0.3946,0.3847 3.8471,-4.15355 c 2.1159,-2.28447 3.8567,-4.15133 3.8684,-4.1486 0.034,0.008 2.6279,2.42109 2.6279,2.44482 0,0.0119 -1.8096,1.97329 -4.0215,4.3589 l -4.0215,4.33749 0.3111,0.48321 c 1.4872,2.30967 2.7213,5.09897 3.4744,7.85331 0.077,0.27941 0.1483,0.5628 0.1596,0.62974 0.02,0.1151 0.016,0.12171 -0.049,0.12171 l -0.069,0 0.079,0.38977 c 0.2437,1.18842 0.4447,2.7756 0.512,4.04017 l 0.021,0.39087 3.8001,0.007 3.8003,0.007 0,1.8095 0,1.8095 -3.8346,0 -3.8346,0 -0.015,0.12307 c -0.01,0.0676 -0.048,0.41621 -0.089,0.77451 -0.2886,2.55003 -0.902,4.95033 -1.8596,7.276895 l -0.2483,0.60305 0.1153,0.12079 c 0.063,0.0665 1.5263,1.64521 3.2508,3.50838 1.7245,1.86318 3.2125,3.46694 3.3068,3.56392 l 0.1715,0.17633 -1.1528,1.06794 c -0.6339,0.58739 -1.2314,1.14265 -1.3276,1.23394 l -0.1748,0.16597 -2.9918,-3.22711 c -1.6455,-1.7749 -3.0013,-3.22709 -3.0129,-3.22709 -0.012,0 -0.11,0.13354 -0.2186,0.29678 -1.0985,1.65054 -2.5346,3.24476 -4.024,4.46677 -1.0762,0.88291 -2.1186,1.55781 -3.3297,2.15571 -1.8552,0.91581 -3.644,1.41827 -5.6199,1.57852 -0.4732,0.0383 -1.7231,0.0531 -2.0818,0.0246 z m -0.9121,-16.643945 0,-12.49355 -6.3495,0 -6.3496,0 -0.1208,0.49945 c -0.2839,1.17432 -0.4684,2.34174 -0.5869,3.71332 -0.051,0.59196 -0.068,2.47513 -0.029,3.13248 0.1919,3.21797 0.9497,6.13355 2.291,8.81434 1.5164,3.030965 3.7355,5.517845 6.3078,7.069015 0.8275,0.49895 1.9685,1.02169 2.8256,1.29444 0.5665,0.18029 1.7128,0.45008 1.9616,0.46169 0.048,0.003 0.051,-0.61096 0.051,-12.491185 z m 5.0751,12.187775 c 1.2195,-0.31363 2.6629,-0.97767 3.8862,-1.78777 0.8728,-0.5781 1.5257,-1.12083 2.3898,-1.98658 1.6583,-1.66161 2.902,-3.52659 3.9208,-5.879275 1.8875,-4.35851 2.3151,-9.71862 1.1555,-14.48482 l -0.1321,-0.54288 -5.7444,0 -5.7446,0 0,12.38083 c 0,11.108775 0.01,12.379085 0.045,12.363805 0.025,-0.009 0.1254,-0.0378 0.2243,-0.0633 z"
       id="path4927"
       inkscape:connector-curvature="0"
       inkscape:export-filename="/Users/santannajj/Desktop/a.png"
       inkscape:export-xdpi="90"
       inkscape:export-ydpi="90" />
    <path
       inkscape:export-ydpi="90"
       inkscape:export-xdpi="90"
       inkscape:export-filename="/Users/santannajj/Desktop/a.png"
       style="fill:#666666;fill-opacity:1"
       d="m 347.88073,36.302211 c -0.65996,2.59316 -3.64955,6.75836 -5.93765,8.27259 -1.38139,0.91416 -2.26285,1.22817 -3.98513,1.41963 -1.21627,0.13526 -6.58395,0.85857 -11.92815,1.60747 -9.15964,1.28355 -9.85174,1.33068 -12.07153,0.82215 -2.11761,-0.48511 -4.10059,-1.73936 -19.68648,-12.45183 -11.34414,-7.79703 -18.16486,-12.7346 -19.7434,-14.29239 -1.32645,-1.30903 -3.40583,-3.90543 -4.62084,-5.76979 l -2.20913,-3.38978 -9.31583,0.25578 -9.31583,0.25573 -9.82,-6.7994302 -9.82,-6.79939001 1.437,-1.93768999 c 0.79035,-1.0657 1.78781,-2.09044 2.21656,-2.27722 0.42874,-0.18682 4.61697,-1.86994 9.30715,-3.74037 4.69019,-1.8704098 8.58786,-3.4878798 8.66148,-3.5943898 0.0736,-0.10655 -0.0949,-0.5721 -0.37467,-1.03454 -0.47168,-0.77993 -0.12501,-1.39504 4.7834,-8.48754 4.43921,-6.4145 5.42418,-7.6298 6.1125,-7.54211 0.45129,0.0575 4.29654,0.89686 8.54497,1.86518 4.24844,0.96837 7.86041,1.73582 8.02663,1.70547 0.1662,-0.0303 -0.24614,-0.77703 -0.91633,-1.65931 l -1.21851,-1.60411 -6.38148,-1.36811 c -3.50981,-0.75249 -6.43056,-1.40051 -6.49055,-1.44014 -0.06,-0.0396 -0.0147,-4.11341 0.10055,-9.05287 0.20797,-8.90915 0.21859,-8.99418 1.33096,-10.64519 0.61674,-0.91537 1.29417,-1.69586 1.50541,-1.73443 0.21124,-0.0386 4.70621,2.91969 9.98883,6.57398 l 9.60474,6.64406 3.0236,8.59021 c 1.66297,4.7246 3.17921,8.69445 3.36942,8.82188 0.19021,0.12746 1.9477,0.60233 3.90555,1.05531 6.38225,1.47664 8.396,2.62962 26.81099,15.3510498 15.5391,10.7347 17.31968,12.07016 18.70484,14.02889 1.51204,2.1381502 1.55819,2.2825602 3.74741,11.7254402 3.12016,13.45837 3.25099,14.27816 2.65352,16.62581 z m -91.3048,-64.61755 -1.14574,1.61611 -5.7327,-3.76058 c -3.15299,-2.06835 -7.03004,-4.60996 -8.61566,-5.64798 -1.58562,-1.03802 -2.9029,-1.99658 -2.92726,-2.13002 -0.0244,-0.13352 0.31545,-0.5289 0.75518,-0.87873 0.75591,-0.60133 1.09906,-0.47788 6.29444,2.26556 3.02223,1.59591 7.05436,3.69248 8.96029,4.65904 1.90593,0.96655 3.48599,1.87058 3.51125,2.00894 0.0253,0.13833 -0.46965,0.9788 -1.0998,1.86766 z m -3.4107,4.93546 c -0.54321,0.76025 -1.15827,1.41342 -1.36677,1.45149 -0.2085,0.0381 -1.04624,-0.44355 -1.86165,-1.07027 -0.81541,-0.62672 -3.5351,-2.62948 -6.04375,-4.45055 -11.04645,-8.01879 -21.07557,-15.28997 -21.57234,-15.64006 -0.74809,-0.52721 -0.75878,-0.92025 -0.0501,-1.84352 0.59957,-0.78111 0.67818,-0.75188 4.13575,1.54027 1.9385,1.28504 7.36762,4.84809 12.06468,7.91782 12.96783,8.47503 15.59486,10.23611 15.64023,10.48459 0.0229,0.12541 -0.40283,0.84998 -0.94605,1.61023 z m -3.70672,5.34537 c -0.82736,1.15441 -1.24133,1.47338 -1.56911,1.20892 -0.2449,-0.19758 -2.77134,-2.44944 -5.61434,-5.00414 -2.843,-2.5547 -6.13531,-5.49542 -7.31625,-6.53491 l -2.14717,-1.89 0.62881,-0.89317 0.62881,-0.89321 4.84014,3.46972 c 7.32996,5.25454 11.57609,8.43804 11.62708,8.71726 0.0252,0.13827 -0.45984,0.95705 -1.07797,1.81953 z"
       id="path4929"
       inkscape:connector-curvature="0"
       sodipodi:nodetypes="sssssssscccccscsscscssccscscsscscsssssscscscssssssssscsssssssscccsss" />
    <path
       inkscape:export-ydpi="90"
       inkscape:export-xdpi="90"
       inkscape:export-filename="/Users/santannajj/Desktop/a.png"
       style="fill:none;fill-rule:evenodd;stroke:#000000;stroke-width:5.00000048;stroke-linecap:butt;stroke-linejoin:miter;stroke-miterlimit:4;stroke-dasharray:10.00000119, 5.00000059999999991;stroke-dashoffset:0;stroke-opacity:1"
       d="m 179.4757,108.82802 c -8.23296,8.13964 -22.15201,28.71696 -25.53219,36.70261"
       id="path4931"
       inkscape:connector-curvature="0"
       sodipodi:nodetypes="cc" />
    <path
       inkscape:export-ydpi="90"
       inkscape:export-xdpi="90"
       inkscape:export-filename="/Users/santannajj/Desktop/a.png"
       style="fill:#808080;fill-opacity:1"
       d="m 302.73043,342.5619 c -44.57591,-2.6703 -80.84599,-17.5567 -90.79788,-37.26636 -0.84644,-1.67637 -1.77489,-4.07428 -2.06322,-5.32871 -0.3142,-1.36701 -0.51229,-9.80365 -0.49443,-21.0581 0.0277,-17.45332 0.0813,-18.56391 0.75996,-15.75048 5.01831,20.80337 39.29554,37.42966 86.52012,41.96689 8.48197,0.81492 32.52734,0.81492 41.00931,0 47.22458,-4.53723 81.50181,-21.16352 86.52012,-41.96689 0.67867,-2.81343 0.73226,-1.70284 0.75996,15.75048 0.0179,11.25445 -0.18022,19.69109 -0.49443,21.0581 -0.73624,3.2031 -3.20162,7.88573 -5.87981,11.16786 -17.49232,21.43683 -65.44418,34.44613 -115.8397,31.42721 z m -4.74561,-50.24524 c -27.18688,-2.08986 -54.48909,-10.13616 -70.69126,-20.83358 -5.3491,-3.53172 -12.22761,-10.46244 -14.54719,-14.65761 -3.36867,-6.09251 -3.43388,-6.63385 -3.35708,-27.87029 0.0379,-10.48622 0.16429,-18.49491 0.28082,-17.7971 0.93048,5.57179 4.10905,11.10722 9.48737,16.52209 13.38534,13.4763 39.2708,22.99975 73.95349,27.20802 3.69514,0.44836 11.78752,0.67574 24.04867,0.67574 18.82537,0 22.54862,-0.24279 35.94643,-2.34403 21.0223,-3.29702 41.02069,-10.26439 53.91964,-18.78542 5.05822,-3.34145 11.65641,-9.90077 14.01185,-13.9293 1.7227,-2.94636 3.16686,-6.68394 3.6116,-9.3471 0.11653,-0.69781 0.2429,7.31088 0.28082,17.7971 0.0768,21.23644 0.0116,21.77778 -3.35707,27.87029 -2.31959,4.19517 -9.1981,11.12589 -14.5472,14.65761 -16.53626,10.918 -43.33537,18.72229 -71.63972,20.8625 -7.79494,0.58941 -29.5765,0.57257 -37.40117,-0.0289 z m 3.47989,-49.73754 c -34.63179,-2.41629 -63.7385,-11.70631 -79.98197,-25.52794 -5.95599,-5.06798 -10.33774,-11.51404 -11.62134,-17.09635 -0.3044,-1.32384 -0.50407,-9.95188 -0.4865,-21.02272 0.0275,-17.31593 0.0858,-18.54565 0.74865,-15.80041 4.5347,18.77944 33.80063,34.81627 74.12738,40.61952 19.88043,2.86091 45.93698,2.86091 65.81741,0 40.32675,-5.80325 69.59269,-21.84008 74.12738,-40.61952 0.6629,-2.74524 0.72117,-1.51552 0.74865,15.80041 0.0176,11.07084 -0.1821,19.69888 -0.4865,21.02272 -0.75212,3.27091 -3.36681,8.25718 -6.02385,11.48758 -17.51961,21.30018 -67.45084,34.59165 -116.96931,31.13671 z M 300.199,192.57649 c -47.39308,-3.58718 -83.8801,-20.50928 -90.07562,-41.77562 -5.8861,-20.20427 19.70796,-40.93604 61.04232,-49.44566 15.32601,-3.155195 28.64575,-4.441425 45.99394,-4.441425 17.34818,0 30.66792,1.28623 45.99393,4.441425 32.67592,6.72708 56.83044,21.69253 61.12775,37.87301 5.51266,20.75655 -20.0618,40.9299 -62.83622,49.56576 -14.90816,3.00985 -22.06641,3.67477 -41.24774,3.83145 -9.60681,0.0785 -18.60607,0.0564 -19.99836,-0.0489 z"
       id="path4933"
       inkscape:connector-curvature="0" />
    <text
       inkscape:export-filename="/Users/santannajj/Desktop/a.png"
       xml:space="preserve"
       style="font-style:normal;font-weight:normal;font-size:187.5px;line-height:125%;font-family:sans-serif;letter-spacing:-0.02px;word-spacing:0px;fill:#000000;fill-opacity:1;stroke:none;stroke-width:1px;stroke-linecap:butt;stroke-linejoin:miter;stroke-opacity:1;"
       x="424.21609"
       y="287.12186"
       id="text4935"
       sodipodi:linespacing="125%"
       inkscape:export-xdpi="90"
       inkscape:export-ydpi="90"><tspan
         sodipodi:role="line"
         id="tspan4937"
         x="424.21609"
         y="287.12186"
         style="font-style:normal;font-variant:normal;font-weight:bold;font-stretch:normal;font-family:'DIN Alternate';-inkscape-font-specification:'DIN Alternate Bold';letter-spacing:0px;fill:#000000;fill-opacity:1;"
         dx="0">DDoS</tspan></text>
    <g
       id="g4979"
       style="stroke:#000000"
       transform="translate(2.0000002,0)"
       inkscape:export-filename="/Users/santannajj/Desktop/a.png"
       inkscape:export-xdpi="90"
       inkscape:export-ydpi="90">
      <path
         inkscape:export-ydpi="90"
         inkscape:export-xdpi="90"
         inkscape:export-filename="/Users/santannajj/Desktop/a.png"
         style="fill:none;fill-opacity:1;stroke:#000000;stroke-width:5.00000048;stroke-miterlimit:4;stroke-dasharray:none;stroke-dashoffset:0;stroke-opacity:1"
         id="path4939"
         sodipodi:type="arc"
         sodipodi:cx="1130.2424"
         sodipodi:cy="223.25381"
         sodipodi:rx="31.246111"
         sodipodi:ry="31.045185"
         sodipodi:start="0"
         sodipodi:end="6.2661858"
         sodipodi:open="true"
         d="m 1161.4885,223.25381 a 31.246111,31.045185 0 0 1 -31.1133,31.04491 31.246111,31.045185 0 0 1 -31.3778,-30.78103 31.246111,31.045185 0 0 1 30.8467,-31.30654 31.246111,31.045185 0 0 1 31.6399,30.51494" />
      <path
         inkscape:export-ydpi="90"
         inkscape:export-xdpi="90"
         inkscape:export-filename="/Users/santannajj/Desktop/a.png"
         style="fill:none;fill-opacity:1;stroke:#000000;stroke-width:10.00000095;stroke-miterlimit:4;stroke-dasharray:none;stroke-dashoffset:0;stroke-opacity:1"
         id="path4941"
         sodipodi:type="arc"
         sodipodi:cx="954.1922"
         sodipodi:cy="375.50919"
         sodipodi:rx="49.768734"
         sodipodi:ry="48.563213"
         sodipodi:start="0"
         sodipodi:end="6.2661858"
         sodipodi:open="true"
         d="m 1003.9609,375.50919 a 49.768734,48.563213 0 0 1 -49.55719,48.56277 49.768734,48.563213 0 0 1 -49.97845,-48.15 49.768734,48.563213 0 0 1 49.13242,-48.97204 49.768734,48.563213 0 0 1 50.39602,47.73375" />
      <path
         inkscape:export-ydpi="90"
         inkscape:export-xdpi="90"
         inkscape:export-filename="/Users/santannajj/Desktop/a.png"
         sodipodi:nodetypes="cc"
         inkscape:connector-curvature="0"
         id="path4943"
         d="m 1004.8285,361.04803 c 9.7792,-3.34096 41.0743,-30.36209 41.0743,-30.36209"
         style="fill:none;fill-rule:evenodd;stroke:#000000;stroke-width:5.00000048;stroke-linecap:butt;stroke-linejoin:miter;stroke-miterlimit:4;stroke-dasharray:10.00000119, 5.0000006;stroke-dashoffset:0;stroke-opacity:1" />
      <path
         inkscape:export-ydpi="90"
         inkscape:export-xdpi="90"
         inkscape:export-filename="/Users/santannajj/Desktop/a.png"
         inkscape:connector-curvature="0"
         id="path4945"
         d="m 954.19215,328.09748 0,-114.52338"
         style="fill:none;fill-rule:evenodd;stroke:#000000;stroke-width:10.00000095;stroke-linecap:butt;stroke-linejoin:miter;stroke-miterlimit:4;stroke-dasharray:none;stroke-opacity:1" />
      <path
         inkscape:export-ydpi="90"
         inkscape:export-xdpi="90"
         inkscape:export-filename="/Users/santannajj/Desktop/a.png"
         d="m 1099.3639,308.40747 a 31.246111,31.045185 0 0 1 -31.1133,31.04491 31.246111,31.045185 0 0 1 -31.3778,-30.78104 31.246111,31.045185 0 0 1 30.8466,-31.30653 31.246111,31.045185 0 0 1 31.64,30.51493"
         sodipodi:open="true"
         sodipodi:end="6.2661858"
         sodipodi:start="0"
         sodipodi:ry="31.045185"
         sodipodi:rx="31.246111"
         sodipodi:cy="308.40747"
         sodipodi:cx="1068.1178"
         sodipodi:type="arc"
         id="path4947"
         style="fill:none;fill-opacity:1;stroke:#000000;stroke-width:5.00000048;stroke-miterlimit:4;stroke-dasharray:none;stroke-dashoffset:0;stroke-opacity:1" />
      <path
         inkscape:export-ydpi="90"
         inkscape:export-xdpi="90"
         inkscape:export-filename="/Users/santannajj/Desktop/a.png"
         style="fill:none;fill-rule:evenodd;stroke:#000000;stroke-width:5.00000048;stroke-linecap:butt;stroke-linejoin:miter;stroke-miterlimit:4;stroke-dasharray:10.00000119, 5.0000006;stroke-dashoffset:0;stroke-opacity:1"
         d="m 1092.3367,287.19718 c 8.2329,-8.13964 22.152,-28.71696 25.5322,-36.70261"
         id="path4949"
         inkscape:connector-curvature="0"
         sodipodi:nodetypes="cc" />
    </g>
    <path
       style="fill:#666666;fill-opacity:1"
       d="m 1124.9103,246.73015 c -2.3268,-0.33021 -5.6505,-1.5775 -7.6297,-2.86324 -1.7398,-1.13023 -2.9039,-3.18609 -4.0329,-7.12251 -0.8587,-2.99426 -0.8044,-4.00238 0.2583,-4.78187 0.3824,-0.28056 0.6086,-0.31985 1.385,-0.24061 0.5104,0.0521 1.9881,0.20271 3.2838,0.33469 4.9139,0.50056 8.7495,0.62834 16.1572,0.53831 7.2279,-0.0879 8.7992,-0.16979 13.6393,-0.71117 1.3507,-0.15109 2.6147,-0.22838 2.8087,-0.17178 0.5415,0.15784 1.2161,0.90063 1.349,1.48498 0.1468,0.64614 -0.1092,2.05043 -0.7914,4.3397 -1.0927,3.66714 -2.258,5.54636 -4.144,6.68292 -2.4416,1.47116 -5.873,2.53988 -8.2455,2.56807 -1.7183,0.0203 -2.0226,-0.11045 -3.6864,-1.58519 -1.3231,-1.17274 -2.1827,-1.54144 -3.1559,-1.35374 -0.7761,0.14969 -1.2476,0.44566 -2.4378,1.53017 -0.5498,0.50087 -1.1922,1.00485 -1.4278,1.11997 -0.613,0.29951 -2.1143,0.4038 -3.3299,0.2313 z m 1.7729,-5.47765 c 0.7946,-0.47495 1.4253,-1.41893 1.5651,-2.34282 0.081,-0.53733 0.039,-0.68056 -0.3287,-1.10771 -0.5493,-0.63786 -1.5461,-0.96049 -3.6648,-1.18596 -2.2693,-0.24153 -4.2323,0.0411 -4.731,0.6814 -0.5846,0.75026 0.1363,2.61188 1.3247,3.4215 1.6397,1.11692 4.4318,1.37228 5.8347,0.53359 z m 15.9205,0.0378 c 1.7644,-0.79306 2.8405,-2.07779 2.8405,-3.39086 0,-0.50264 -0.072,-0.64604 -0.4292,-0.8609 -1.4164,-0.85086 -6.5756,-0.5427 -7.9093,0.47244 -1.2352,0.94009 -0.1904,3.36549 1.77,4.109 0.6649,0.25215 2.867,0.0574 3.728,-0.32968 z m -14.6491,-12.24818 c -11.5179,-0.29321 -21.9245,-2.34047 -23.2741,-4.5787 -0.3061,-0.50762 -0.2603,-1.16189 0.1092,-1.56395 1.0592,-1.15196 4.5341,-2.36414 8.7161,-3.04062 0.8711,-0.14089 1.2931,-0.28417 1.3762,-0.46718 0.067,-0.14516 0.9712,-3.88352 2.0116,-8.30746 1.0403,-4.42392 2.0167,-8.35728 2.1698,-8.74079 0.3296,-0.8253 1.3429,-1.95807 2.0821,-2.32802 0.299,-0.14955 0.9283,-0.26476 1.4549,-0.26636 0.8208,-0.002 1.2289,0.13633 3.5336,1.20221 2.8643,1.32451 4.1073,1.66326 6.1034,1.66326 1.9444,0 3.185,-0.33291 5.9992,-1.60992 1.412,-0.64067 2.8265,-1.21348 3.1435,-1.27291 0.8031,-0.15055 1.8745,0.1609 2.65,0.7704 1.2748,1.00186 1.3572,1.2451 3.4951,10.33337 1.0728,4.56074 2.004,8.41106 2.069,8.55622 0.082,0.18365 0.5008,0.32505 1.3749,0.46479 5.4082,0.86454 9.0375,2.43666 9.0375,3.91496 0,2.05754 -6.1493,3.91454 -15.9191,4.80745 -3.373,0.30829 -10.3761,0.60527 -12.8495,0.5449 -1.0209,-0.0249 -2.4985,-0.0617 -3.2837,-0.0817 z"
       id="path4951"
       inkscape:connector-curvature="0"
       inkscape:export-filename="/Users/santannajj/Desktop/a.png"
       inkscape:export-xdpi="90"
       inkscape:export-ydpi="90" />
    <path
       inkscape:export-ydpi="90"
       inkscape:export-xdpi="90"
       inkscape:export-filename="/Users/santannajj/Desktop/a.png"
       inkscape:connector-curvature="0"
       id="path4953"
       d="m 1068.5115,333.08366 c -1.2379,-0.0985 -2.01,-0.22409 -2.9983,-0.48784 -3.5673,-0.95203 -6.8254,-3.21063 -9.397,-6.5145 -0.1737,-0.22294 -0.4059,-0.53293 -0.5163,-0.68886 l -0.2007,-0.28352 -0.065,0.0664 c -0.036,0.0365 -1.1976,1.28929 -2.5825,2.784 -1.3848,1.49468 -2.524,2.71944 -2.5314,2.72164 -0.01,0.003 -0.6088,-0.5478 -1.3361,-1.22224 l -1.3226,-1.22626 0.3571,-0.38067 c 0.5302,-0.565 5.5018,-5.93394 5.543,-5.98597 0.028,-0.0367 0,-0.11911 -0.1553,-0.46253 -1.1922,-2.6115 -2.0127,-5.71777 -2.2737,-8.6077 l -0.036,-0.39491 -3.1212,0 -3.1212,0 0,-1.80961 0,-1.80962 3.0836,0 3.0836,0 10e-5,-0.10856 c 8e-4,-0.37007 0.107,-1.59127 0.2055,-2.36698 0.094,-0.7393 0.318,-2.06111 0.3913,-2.30907 0.012,-0.0389 0,-0.0507 -0.059,-0.0507 -0.041,0 -0.075,-0.0106 -0.075,-0.0234 0,-0.0471 0.258,-0.92862 0.3915,-1.33733 0.2127,-0.65105 0.8312,-2.35735 1.0758,-2.96777 0.71,-1.77148 1.6339,-3.48186 2.6765,-4.95511 0.1255,-0.17737 0.2283,-0.32961 0.2283,-0.33832 0,-0.009 -1.6286,-1.77236 -3.6192,-3.91923 -1.9905,-2.14687 -3.6182,-3.91643 -3.617,-3.93235 0,-0.0293 2.5861,-2.42781 2.6255,-2.43721 0.012,-0.003 1.5654,1.66222 3.4525,3.70006 1.887,2.03784 3.4636,3.73619 3.5033,3.77411 l 0.072,0.0689 0.3041,-0.27708 c 1.891,-1.7236 4.0055,-2.97767 6.2539,-3.70933 3.2034,-1.04236 6.6239,-0.98715 9.7936,0.15807 0.6795,0.24551 1.0154,0.38993 1.7446,0.75016 1.7659,0.87247 3.1531,1.84359 4.4771,3.13415 l 0.3946,0.3847 3.8471,-4.15355 c 2.1159,-2.28447 3.8567,-4.15133 3.8684,-4.1486 0.034,0.008 2.6279,2.42109 2.6279,2.44482 0,0.0119 -1.8096,1.97329 -4.0215,4.3589 l -4.0215,4.33749 0.3111,0.48321 c 1.4872,2.30967 2.7213,5.09897 3.4744,7.85331 0.077,0.27941 0.1483,0.5628 0.1596,0.62974 0.02,0.1151 0.016,0.12171 -0.049,0.12171 l -0.069,0 0.079,0.38977 c 0.2437,1.18842 0.4447,2.7756 0.512,4.04017 l 0.021,0.39087 3.8001,0.007 3.8003,0.007 0,1.8095 0,1.8095 -3.8346,0 -3.8346,0 -0.015,0.12307 c -0.01,0.0676 -0.048,0.41621 -0.089,0.77451 -0.2886,2.55003 -0.902,4.95033 -1.8596,7.2769 l -0.2483,0.60305 0.1153,0.12079 c 0.063,0.0665 1.5263,1.64521 3.2508,3.50838 1.7245,1.86318 3.2125,3.46694 3.3068,3.56392 l 0.1715,0.17633 -1.1528,1.06794 c -0.6339,0.58739 -1.2314,1.14265 -1.3276,1.23394 l -0.1748,0.16597 -2.9918,-3.22711 c -1.6455,-1.7749 -3.0013,-3.22709 -3.0129,-3.22709 -0.012,0 -0.11,0.13354 -0.2186,0.29678 -1.0985,1.65054 -2.5346,3.24476 -4.024,4.46677 -1.0762,0.88291 -2.1186,1.55781 -3.3297,2.15571 -1.8552,0.91581 -3.644,1.41827 -5.6199,1.57852 -0.4732,0.0383 -1.7231,0.0531 -2.0818,0.0246 z m -0.9121,-16.64395 0,-12.49355 -6.3495,0 -6.3496,0 -0.1208,0.49945 c -0.2839,1.17432 -0.4684,2.34174 -0.5869,3.71332 -0.051,0.59196 -0.068,2.47513 -0.029,3.13248 0.1919,3.21797 0.9497,6.13355 2.291,8.81434 1.5164,3.03097 3.7355,5.51785 6.3078,7.06902 0.8275,0.49895 1.9685,1.02169 2.8256,1.29444 0.5665,0.18029 1.7128,0.45008 1.9616,0.46169 0.048,0.003 0.051,-0.61096 0.051,-12.49119 z m 5.0751,12.18778 c 1.2195,-0.31363 2.6629,-0.97767 3.8862,-1.78777 0.8728,-0.5781 1.5257,-1.12083 2.3898,-1.98658 1.6583,-1.66161 2.902,-3.52659 3.9208,-5.87928 1.8875,-4.35851 2.3151,-9.71862 1.1555,-14.48482 l -0.1321,-0.54288 -5.7444,0 -5.7446,0 0,12.38083 c 0,11.10878 0.01,12.37909 0.045,12.36381 0.025,-0.009 0.1254,-0.0378 0.2243,-0.0633 z"
       style="fill:#666666;fill-opacity:1" />
    <path
       sodipodi:nodetypes="sssssssscccccscsscscssccscscsscscsssssscscscssssssssscsssssssscccsss"
       inkscape:connector-curvature="0"
       id="path4955"
       d="m 920.75785,356.54648 c 0.66,-2.59316 3.6496,-6.75836 5.9377,-8.27259 1.3814,-0.91416 2.2628,-1.22817 3.9851,-1.41963 1.2163,-0.13526 6.584,-0.85857 11.9282,-1.60747 9.1596,-1.28355 9.8517,-1.33068 12.0715,-0.82215 2.1176,0.48511 4.1006,1.73936 19.6865,12.45183 11.3441,7.79703 18.1648,12.7346 19.7434,14.29239 1.3264,1.30903 3.4058,3.90543 4.6208,5.76979 l 2.20915,3.38978 9.3158,-0.25578 9.3159,-0.25573 9.82,6.79943 9.82,6.79939 -1.437,1.93769 c -0.7904,1.0657 -1.7878,2.09044 -2.2166,2.27722 -0.4287,0.18682 -4.617,1.86994 -9.3071,3.74037 -4.6902,1.87041 -8.5879,3.48788 -8.6615,3.59439 -0.074,0.10655 0.095,0.5721 0.3747,1.03454 0.4716,0.77993 0.125,1.39504 -4.7834,8.48754 -4.4393,6.4145 -5.4242,7.6298 -6.1125,7.54211 -0.4513,-0.0575 -4.2966,-0.89686 -8.54505,-1.86518 -4.2484,-0.96837 -7.8604,-1.73582 -8.0266,-1.70547 -0.1662,0.0303 0.2461,0.77703 0.9163,1.65931 l 1.2185,1.60411 6.3815,1.36811 c 3.50985,0.75249 6.43055,1.40051 6.49055,1.44014 0.06,0.0396 0.015,4.11341 -0.1005,9.05287 -0.208,8.90915 -0.2186,8.99418 -1.331,10.64519 -0.6167,0.91537 -1.2942,1.69586 -1.5054,1.73443 -0.2112,0.0386 -4.70625,-2.91969 -9.98885,-6.57398 l -9.6047,-6.64406 -3.0236,-8.59021 c -1.663,-4.7246 -3.1792,-8.69445 -3.3694,-8.82188 -0.1903,-0.12746 -1.9477,-0.60233 -3.9056,-1.05531 -6.3822,-1.47664 -8.396,-2.62962 -26.811,-15.35105 -15.5391,-10.7347 -17.3197,-12.07016 -18.7048,-14.02889 -1.5121,-2.13815 -1.5582,-2.28256 -3.7474,-11.72544 -3.1202,-13.45837 -3.251,-14.27816 -2.6536,-16.62581 z m 91.30485,64.61755 1.1457,-1.61611 5.7327,3.76058 c 3.153,2.06835 7.0301,4.60996 8.6157,5.64798 1.5856,1.03802 2.9029,1.99658 2.9273,2.13002 0.024,0.13352 -0.3155,0.5289 -0.7552,0.87873 -0.7559,0.60133 -1.0991,0.47788 -6.2945,-2.26556 -3.0222,-1.59591 -7.0543,-3.69248 -8.9602,-4.65904 -1.906,-0.96655 -3.486,-1.87058 -3.5113,-2.00894 -0.025,-0.13833 0.4697,-0.9788 1.0998,-1.86766 z m 3.4107,-4.93546 c 0.5432,-0.76025 1.1583,-1.41342 1.3668,-1.45149 0.2085,-0.0381 1.0462,0.44355 1.8616,1.07027 0.8154,0.62672 3.5351,2.62948 6.0438,4.45055 11.0464,8.01879 21.0755,15.28997 21.5723,15.64006 0.7481,0.52721 0.7588,0.92025 0.05,1.84352 -0.5996,0.78111 -0.6782,0.75188 -4.1357,-1.54027 -1.9385,-1.28504 -7.3677,-4.84809 -12.0647,-7.91782 -12.9678,-8.47503 -15.5949,-10.23611 -15.6402,-10.48459 -0.023,-0.12541 0.4028,-0.84998 0.946,-1.61023 z m 3.7067,-5.34537 c 0.8274,-1.15441 1.2414,-1.47338 1.5691,-1.20892 0.2449,0.19758 2.7714,2.44944 5.6144,5.00414 2.843,2.5547 6.1353,5.49542 7.3162,6.53491 l 2.1472,1.89 -0.6288,0.89317 -0.6288,0.89321 -4.8402,-3.46972 c -7.3299,-5.25454 -11.5761,-8.43804 -11.627,-8.71726 -0.025,-0.13827 0.4598,-0.95705 1.0779,-1.81953 z"
       style="fill:#666666;fill-opacity:1"
       inkscape:export-filename="/Users/santannajj/Desktop/a.png"
       inkscape:export-xdpi="90"
       inkscape:export-ydpi="90" />
    <g
       id="g4973"
       style="fill:#808080;fill-opacity:1"
       inkscape:export-filename="/Users/santannajj/Desktop/a.png"
       inkscape:export-xdpi="90"
       inkscape:export-ydpi="90">
      <text
         inkscape:export-ydpi="90"
         inkscape:export-xdpi="90"
         xml:space="preserve"
         style="font-style:normal;font-weight:normal;font-size:187.5px;line-height:125%;font-family:sans-serif;letter-spacing:0px;word-spacing:0px;fill:#808080;fill-opacity:1;stroke:none;stroke-width:1px;stroke-linecap:butt;stroke-linejoin:miter;stroke-opacity:1"
         x="935.47888"
         y="287.12186"
         id="text4957"
         sodipodi:linespacing="125%"
         inkscape:export-filename="/Users/santannajj/Desktop/a.png"><tspan
           sodipodi:role="line"
           id="tspan4959"
           x="935.47888"
           y="287.12186"
           style="font-style:normal;font-variant:normal;font-weight:bold;font-stretch:normal;font-family:'DIN Alternate';-inkscape-font-specification:'DIN Alternate Bold';fill:#808080;fill-opacity:1">B</tspan></text>
      <text
         sodipodi:linespacing="125%"
         id="text4961"
         y="287.12186"
         x="842.66388"
         style="font-style:normal;font-weight:normal;font-size:187.5px;line-height:125%;font-family:sans-serif;letter-spacing:0px;word-spacing:0px;fill:#808080;fill-opacity:1;stroke:none;stroke-width:1px;stroke-linecap:butt;stroke-linejoin:miter;stroke-opacity:1"
         xml:space="preserve"
         inkscape:export-xdpi="90"
         inkscape:export-ydpi="90"
         inkscape:export-filename="/Users/santannajj/Desktop/a.png"><tspan
           style="font-style:normal;font-variant:normal;font-weight:bold;font-stretch:normal;font-family:'DIN Alternate';-inkscape-font-specification:'DIN Alternate Bold';fill:#808080;fill-opacity:1"
           y="287.12186"
           x="842.66388"
           id="tspan4963"
           sodipodi:role="line">D</tspan></text>
    </g>
    <text
       inkscape:export-ydpi="90"
       inkscape:export-xdpi="90"
       inkscape:export-filename="/Users/santannajj/Desktop/a.png"
       transform="matrix(0.83467753,0.56178068,-0.58105851,0.80698537,0,0)"
       sodipodi:linespacing="125%"
       id="text4965"
       y="-147.33516"
       x="208.04333"
       style="font-style:normal;font-weight:normal;font-size:37.75894928px;line-height:125%;font-family:sans-serif;letter-spacing:0px;word-spacing:0px;fill:#ffffff;fill-opacity:1;stroke:none;stroke-width:1px;stroke-linecap:butt;stroke-linejoin:miter;stroke-opacity:1;"
       xml:space="preserve"><tspan
         style="font-style:normal;font-variant:normal;font-weight:bold;font-stretch:normal;font-size:36.97291565px;font-family:'DIN Alternate';-inkscape-font-specification:'DIN Alternate Bold';fill:#ffffff;"
         y="-147.33516"
         x="208.04333"
         id="tspan4967"
         sodipodi:role="line">DDoS</tspan></text>
    <text
       xml:space="preserve"
       style="font-style:normal;font-weight:normal;font-size:37.75894928px;line-height:125%;font-family:sans-serif;letter-spacing:0px;word-spacing:0px;fill:#ffffff;fill-opacity:1;stroke:none;stroke-width:1px;stroke-linecap:butt;stroke-linejoin:miter;stroke-opacity:1;"
       x="959.96484"
       y="-211.48558"
       id="text4969"
       sodipodi:linespacing="125%"
       transform="matrix(0.83467753,0.56178068,-0.58105851,0.80698537,0,0)"
       inkscape:export-filename="/Users/santannajj/Desktop/a.png"
       inkscape:export-xdpi="90"
       inkscape:export-ydpi="90"><tspan
         sodipodi:role="line"
         id="tspan4971"
         x="959.96484"
         y="-211.48558"
         style="font-style:normal;font-variant:normal;font-weight:bold;font-stretch:normal;font-size:36.97291565px;font-family:'DIN Alternate';-inkscape-font-specification:'DIN Alternate Bold';fill:#ffffff;">DDoS</tspan></text>
  </g>
</svg>
