<?xml version="1.0" encoding="UTF-8" standalone="no"?>
<!-- Created with Inkscape (http://www.inkscape.org/) -->

<svg
   xmlns:dc="http://purl.org/dc/elements/1.1/"
   xmlns:cc="http://creativecommons.org/ns#"
   xmlns:rdf="http://www.w3.org/1999/02/22-rdf-syntax-ns#"
   xmlns:svg="http://www.w3.org/2000/svg"
   xmlns="http://www.w3.org/2000/svg"
   xmlns:sodipodi="http://sodipodi.sourceforge.net/DTD/sodipodi-0.dtd"
   xmlns:inkscape="http://www.inkscape.org/namespaces/inkscape"
   width="262.20148mm"
   height="186.86716mm"
   viewBox="0 0 929.06035 662.12772"
   id="svg2"
   version="1.1"
   inkscape:version="0.91 r13725"
   sodipodi:docname="workflow.svg">
  <defs
     id="defs4">
    <marker
       inkscape:isstock="true"
       style="overflow:visible"
       id="marker5236"
       refX="0"
       refY="0"
       orient="auto"
       inkscape:stockid="Arrow2Lend">
      <path
         transform="matrix(-1.1,0,0,-1.1,-1.1,0)"
         d="M 8.7185878,4.0337352 -2.2072895,0.01601326 8.7185884,-4.0017078 c -1.7454984,2.3720609 -1.7354408,5.6174519 -6e-7,8.035443 z"
         style="fill:#000000;fill-opacity:1;fill-rule:evenodd;stroke:#000000;stroke-width:0.625;stroke-linejoin:round;stroke-opacity:1"
         id="path5238"
         inkscape:connector-curvature="0" />
    </marker>
    <marker
       inkscape:stockid="Arrow2Lend"
       orient="auto"
       refY="0"
       refX="0"
       id="marker5124"
       style="overflow:visible"
       inkscape:isstock="true"
       inkscape:collect="always">
      <path
         inkscape:connector-curvature="0"
         id="path5126"
         style="fill:#000000;fill-opacity:1;fill-rule:evenodd;stroke:#000000;stroke-width:0.625;stroke-linejoin:round;stroke-opacity:1"
         d="M 8.7185878,4.0337352 -2.2072895,0.01601326 8.7185884,-4.0017078 c -1.7454984,2.3720609 -1.7354408,5.6174519 -6e-7,8.035443 z"
         transform="matrix(-1.1,0,0,-1.1,-1.1,0)" />
    </marker>
    <marker
       inkscape:isstock="true"
       style="overflow:visible"
       id="marker5018"
       refX="0"
       refY="0"
       orient="auto"
       inkscape:stockid="Arrow2Lend"
       inkscape:collect="always">
      <path
         transform="matrix(-1.1,0,0,-1.1,-1.1,0)"
         d="M 8.7185878,4.0337352 -2.2072895,0.01601326 8.7185884,-4.0017078 c -1.7454984,2.3720609 -1.7354408,5.6174519 -6e-7,8.035443 z"
         style="fill:#000000;fill-opacity:1;fill-rule:evenodd;stroke:#000000;stroke-width:0.625;stroke-linejoin:round;stroke-opacity:1"
         id="path5020"
         inkscape:connector-curvature="0" />
    </marker>
    <marker
       inkscape:stockid="Arrow2Lend"
       orient="auto"
       refY="0"
       refX="0"
       id="marker4917"
       style="overflow:visible"
       inkscape:isstock="true"
       inkscape:collect="always">
      <path
         inkscape:connector-curvature="0"
         id="path4920"
         style="fill:#000000;fill-opacity:1;fill-rule:evenodd;stroke:#000000;stroke-width:0.625;stroke-linejoin:round;stroke-opacity:1"
         d="M 8.7185878,4.0337352 -2.2072895,0.01601326 8.7185884,-4.0017078 c -1.7454984,2.3720609 -1.7354408,5.6174519 -6e-7,8.035443 z"
         transform="matrix(-1.1,0,0,-1.1,-1.1,0)" />
    </marker>
    <marker
       inkscape:isstock="true"
       style="overflow:visible"
       id="marker4823"
       refX="0"
       refY="0"
       orient="auto"
       inkscape:stockid="Arrow2Lend"
       inkscape:collect="always">
      <path
         transform="matrix(-1.1,0,0,-1.1,-1.1,0)"
         d="M 8.7185878,4.0337352 -2.2072895,0.01601326 8.7185884,-4.0017078 c -1.7454984,2.3720609 -1.7354408,5.6174519 -6e-7,8.035443 z"
         style="fill:#000000;fill-opacity:1;fill-rule:evenodd;stroke:#000000;stroke-width:0.625;stroke-linejoin:round;stroke-opacity:1"
         id="path4825"
         inkscape:connector-curvature="0" />
    </marker>
    <marker
       inkscape:stockid="Arrow2Lend"
       orient="auto"
       refY="0"
       refX="0"
       id="marker4735"
       style="overflow:visible"
       inkscape:isstock="true"
       inkscape:collect="always">
      <path
         inkscape:connector-curvature="0"
         id="path4737"
         style="fill:#000000;fill-opacity:1;fill-rule:evenodd;stroke:#000000;stroke-width:0.625;stroke-linejoin:round;stroke-opacity:1"
         d="M 8.7185878,4.0337352 -2.2072895,0.01601326 8.7185884,-4.0017078 c -1.7454984,2.3720609 -1.7354408,5.6174519 -6e-7,8.035443 z"
         transform="matrix(-1.1,0,0,-1.1,-1.1,0)" />
    </marker>
    <marker
       inkscape:isstock="true"
       style="overflow:visible"
       id="marker4653"
       refX="0"
       refY="0"
       orient="auto"
       inkscape:stockid="Arrow2Lend"
       inkscape:collect="always">
      <path
         transform="matrix(-1.1,0,0,-1.1,-1.1,0)"
         d="M 8.7185878,4.0337352 -2.2072895,0.01601326 8.7185884,-4.0017078 c -1.7454984,2.3720609 -1.7354408,5.6174519 -6e-7,8.035443 z"
         style="fill:#000000;fill-opacity:1;fill-rule:evenodd;stroke:#000000;stroke-width:0.625;stroke-linejoin:round;stroke-opacity:1"
         id="path4655"
         inkscape:connector-curvature="0" />
    </marker>
    <marker
       inkscape:stockid="Arrow2Lend"
       orient="auto"
       refY="0"
       refX="0"
       id="marker4577"
       style="overflow:visible"
       inkscape:isstock="true"
       inkscape:collect="always">
      <path
         inkscape:connector-curvature="0"
         id="path4579"
         style="fill:#000000;fill-opacity:1;fill-rule:evenodd;stroke:#000000;stroke-width:0.625;stroke-linejoin:round;stroke-opacity:1"
         d="M 8.7185878,4.0337352 -2.2072895,0.01601326 8.7185884,-4.0017078 c -1.7454984,2.3720609 -1.7354408,5.6174519 -6e-7,8.035443 z"
         transform="matrix(-1.1,0,0,-1.1,-1.1,0)" />
    </marker>
    <marker
       inkscape:stockid="Arrow2Lend"
       orient="auto"
       refY="0"
       refX="0"
       id="marker4519"
       style="overflow:visible"
       inkscape:isstock="true">
      <path
         inkscape:connector-curvature="0"
         id="path4521"
         style="fill:#000000;fill-opacity:1;fill-rule:evenodd;stroke:#000000;stroke-width:0.625;stroke-linejoin:round;stroke-opacity:1"
         d="M 8.7185878,4.0337352 -2.2072895,0.01601326 8.7185884,-4.0017078 c -1.7454984,2.3720609 -1.7354408,5.6174519 -6e-7,8.035443 z"
         transform="matrix(-1.1,0,0,-1.1,-1.1,0)" />
    </marker>
    <marker
       inkscape:stockid="Arrow2Lend"
       orient="auto"
       refY="0"
       refX="0"
       id="marker4467"
       style="overflow:visible"
       inkscape:isstock="true">
      <path
         inkscape:connector-curvature="0"
         id="path4469"
         style="fill:#000000;fill-opacity:1;fill-rule:evenodd;stroke:#000000;stroke-width:0.625;stroke-linejoin:round;stroke-opacity:1"
         d="M 8.7185878,4.0337352 -2.2072895,0.01601326 8.7185884,-4.0017078 c -1.7454984,2.3720609 -1.7354408,5.6174519 -6e-7,8.035443 z"
         transform="matrix(-1.1,0,0,-1.1,-1.1,0)" />
    </marker>
    <marker
       inkscape:isstock="true"
       style="overflow:visible"
       id="marker4409"
       refX="0"
       refY="0"
       orient="auto"
       inkscape:stockid="Arrow2Lend"
       inkscape:collect="always">
      <path
         transform="matrix(-1.1,0,0,-1.1,-1.1,0)"
         d="M 8.7185878,4.0337352 -2.2072895,0.01601326 8.7185884,-4.0017078 c -1.7454984,2.3720609 -1.7354408,5.6174519 -6e-7,8.035443 z"
         style="fill:#000000;fill-opacity:1;fill-rule:evenodd;stroke:#000000;stroke-width:0.625;stroke-linejoin:round;stroke-opacity:1"
         id="path4411"
         inkscape:connector-curvature="0" />
    </marker>
    <marker
       inkscape:stockid="Arrow2Lend"
       orient="auto"
       refY="0"
       refX="0"
       id="marker4357"
       style="overflow:visible"
       inkscape:isstock="true"
       inkscape:collect="always">
      <path
         inkscape:connector-curvature="0"
         id="path4359"
         style="fill:#000000;fill-opacity:1;fill-rule:evenodd;stroke:#000000;stroke-width:0.625;stroke-linejoin:round;stroke-opacity:1"
         d="M 8.7185878,4.0337352 -2.2072895,0.01601326 8.7185884,-4.0017078 c -1.7454984,2.3720609 -1.7354408,5.6174519 -6e-7,8.035443 z"
         transform="matrix(-1.1,0,0,-1.1,-1.1,0)" />
    </marker>
    <marker
       inkscape:stockid="Arrow2Lend"
       orient="auto"
       refY="0"
       refX="0"
       id="marker4323"
       style="overflow:visible"
       inkscape:isstock="true">
      <path
         inkscape:connector-curvature="0"
         id="path4325"
         style="fill:#000000;fill-opacity:1;fill-rule:evenodd;stroke:#000000;stroke-width:0.625;stroke-linejoin:round;stroke-opacity:1"
         d="M 8.7185878,4.0337352 -2.2072895,0.01601326 8.7185884,-4.0017078 c -1.7454984,2.3720609 -1.7354408,5.6174519 -6e-7,8.035443 z"
         transform="matrix(-1.1,0,0,-1.1,-1.1,0)" />
    </marker>
    <marker
       inkscape:isstock="true"
       style="overflow:visible"
       id="marker8625"
       refX="0"
       refY="0"
       orient="auto"
       inkscape:stockid="Arrow2Lend"
       inkscape:collect="always">
      <path
         transform="matrix(-1.1,0,0,-1.1,-1.1,0)"
         d="M 8.7185878,4.0337352 -2.2072895,0.01601326 8.7185884,-4.0017078 c -1.7454984,2.3720609 -1.7354408,5.6174519 -6e-7,8.035443 z"
         style="fill:#000000;fill-opacity:1;fill-rule:evenodd;stroke:#000000;stroke-width:0.625;stroke-linejoin:round;stroke-opacity:1"
         id="path8627"
         inkscape:connector-curvature="0" />
    </marker>
    <marker
       inkscape:stockid="Arrow2Lend"
       orient="auto"
       refY="0"
       refX="0"
       id="marker5090"
       style="overflow:visible"
       inkscape:isstock="true">
      <path
         id="path5092"
         style="fill:#000000;fill-opacity:1;fill-rule:evenodd;stroke:#000000;stroke-width:0.625;stroke-linejoin:round;stroke-opacity:1"
         d="M 8.7185878,4.0337352 -2.2072895,0.01601326 8.7185884,-4.0017078 c -1.7454984,2.3720609 -1.7354408,5.6174519 -6e-7,8.035443 z"
         transform="matrix(-1.1,0,0,-1.1,-1.1,0)"
         inkscape:connector-curvature="0" />
    </marker>
    <marker
       inkscape:isstock="true"
       style="overflow:visible"
       id="marker4705"
       refX="0"
       refY="0"
       orient="auto"
       inkscape:stockid="Arrow2Lend">
      <path
         transform="matrix(-1.1,0,0,-1.1,-1.1,0)"
         d="M 8.7185878,4.0337352 -2.2072895,0.01601326 8.7185884,-4.0017078 c -1.7454984,2.3720609 -1.7354408,5.6174519 -6e-7,8.035443 z"
         style="fill:#000000;fill-opacity:1;fill-rule:evenodd;stroke:#000000;stroke-width:0.625;stroke-linejoin:round;stroke-opacity:1"
         id="path4707"
         inkscape:connector-curvature="0" />
    </marker>
  </defs>
  <sodipodi:namedview
     id="base"
     pagecolor="#ffffff"
     bordercolor="#666666"
     borderopacity="1.0"
     inkscape:pageopacity="0.0"
     inkscape:pageshadow="2"
     inkscape:zoom="1.2787113"
     inkscape:cx="329.62874"
     inkscape:cy="299.78237"
     inkscape:document-units="px"
     inkscape:current-layer="layer1"
     showgrid="false"
     fit-margin-top="0"
     fit-margin-left="0"
     fit-margin-right="0"
     fit-margin-bottom="0"
     inkscape:window-width="1651"
     inkscape:window-height="1137"
     inkscape:window-x="460"
     inkscape:window-y="253"
     inkscape:window-maximized="0" />
  <metadata
     id="metadata7">
    <rdf:RDF>
      <cc:Work
         rdf:about="">
        <dc:format>image/svg+xml</dc:format>
        <dc:type
           rdf:resource="http://purl.org/dc/dcmitype/StillImage" />
        <dc:title />
      </cc:Work>
    </rdf:RDF>
  </metadata>
  <g
     inkscape:label="Layer 1"
     inkscape:groupmode="layer"
     id="layer1"
     transform="translate(20.994467,117.22859)">
    <rect
       style="fill:none;fill-opacity:1;stroke:#000000;stroke-width:2.82188916;stroke-miterlimit:1;stroke-dasharray:8.46566712, 8.46566712;stroke-dashoffset:0;stroke-opacity:1"
       id="rect9949"
       width="634.6886"
       height="188.84322"
       x="50.410618"
       y="30.74852"
       inkscape:export-filename="/Users/santannajj/Desktop/a.png"
       inkscape:export-xdpi="500"
       inkscape:export-ydpi="500" />
    <rect
       style="fill:#cccccc;stroke:#000000;stroke-width:0.97152078;stroke-miterlimit:1;stroke-dasharray:none;stroke-dashoffset:0.80000001;stroke-opacity:1"
       id="rect4136"
       width="153.78821"
       height="63.82848"
       x="65.899567"
       y="52.299141"
       inkscape:export-filename="/Users/santannajj/Desktop/a.png"
       inkscape:export-xdpi="500"
       inkscape:export-ydpi="500" />
    <text
       xml:space="preserve"
       style="font-style:normal;font-weight:normal;font-size:15px;line-height:125%;font-family:sans-serif;text-align:center;letter-spacing:0px;word-spacing:0px;text-anchor:middle;fill:#000000;fill-opacity:1;stroke:none;stroke-width:1px;stroke-linecap:butt;stroke-linejoin:miter;stroke-opacity:1"
       x="143.62874"
       y="70.455307"
       id="text4138"
       sodipodi:linespacing="125%"
       inkscape:export-filename="/Users/santannajj/Desktop/a.png"
       inkscape:export-xdpi="500"
       inkscape:export-ydpi="500"><tspan
         sodipodi:role="line"
         id="tspan4140"
         x="146.01643"
         y="70.455307">Convert to </tspan><tspan
         sodipodi:role="line"
         x="146.01643"
         y="89.205307"
         id="tspan4148">intermediate </tspan><tspan
         sodipodi:role="line"
         x="143.62874"
         y="107.95531"
         id="tspan4150">format [dataframe]</tspan></text>
    <text
       xml:space="preserve"
       style="font-style:normal;font-weight:normal;font-size:15px;line-height:125%;font-family:sans-serif;letter-spacing:0px;word-spacing:0px;fill:#000000;fill-opacity:1;stroke:none;stroke-width:1px;stroke-linecap:butt;stroke-linejoin:miter;stroke-opacity:1"
       x="121.05065"
       y="64.975677"
       id="text4142"
       sodipodi:linespacing="125%"
       inkscape:export-filename="/Users/santannajj/Desktop/a.png"
       inkscape:export-xdpi="500"
       inkscape:export-ydpi="500"><tspan
         sodipodi:role="line"
         id="tspan4144"
         x="121.05065"
         y="64.975677" /><tspan
         sodipodi:role="line"
         x="121.05065"
         y="83.725677"
         id="tspan4146" /></text>
    <path
       style="fill:none;fill-rule:evenodd;stroke:#000000;stroke-width:1px;stroke-linecap:butt;stroke-linejoin:miter;stroke-opacity:1;marker-end:url(#marker5124)"
       d="m -20.994467,78.528707 85.817582,0"
       id="path4152"
       inkscape:connector-curvature="0"
       sodipodi:nodetypes="cc"
       inkscape:export-filename="/Users/santannajj/Desktop/a.png"
       inkscape:export-xdpi="500"
       inkscape:export-ydpi="500" />
    <text
       xml:space="preserve"
       style="font-style:normal;font-weight:normal;font-size:15px;line-height:125%;font-family:sans-serif;text-align:center;letter-spacing:0px;word-spacing:0px;text-anchor:middle;fill:#000000;fill-opacity:1;stroke:none;stroke-width:1px;stroke-linecap:butt;stroke-linejoin:miter;stroke-opacity:1"
       x="12.075554"
       y="74.514435"
       id="text4434"
       sodipodi:linespacing="125%"
       inkscape:export-filename="/Users/santannajj/Desktop/a.png"
       inkscape:export-xdpi="500"
       inkscape:export-ydpi="500"><tspan
         sodipodi:role="line"
         x="12.075554"
         y="74.514435"
         id="tspan4440">input_file</tspan><tspan
         sodipodi:role="line"
         x="12.075554"
         y="93.264435"
         id="tspan4438" /></text>
    <rect
       y="52.299141"
       x="275.39334"
       height="63.82848"
       width="153.78821"
       id="rect4442"
       style="fill:#cccccc;fill-opacity:1;stroke:#000000;stroke-width:0.972;stroke-miterlimit:1;stroke-dasharray:none;stroke-dashoffset:0.80039465"
       inkscape:export-filename="/Users/santannajj/Desktop/a.png"
       inkscape:export-xdpi="500"
       inkscape:export-ydpi="500" />
    <text
       sodipodi:linespacing="125%"
       id="text4444"
       y="70.455307"
       x="353.12253"
       style="font-style:normal;font-weight:normal;font-size:15px;line-height:125%;font-family:sans-serif;text-align:center;letter-spacing:0px;word-spacing:0px;text-anchor:middle;fill:#000000;fill-opacity:1;stroke:none;stroke-width:1px;stroke-linecap:butt;stroke-linejoin:miter;stroke-opacity:1"
       xml:space="preserve"
       inkscape:export-filename="/Users/santannajj/Desktop/a.png"
       inkscape:export-xdpi="500"
       inkscape:export-ydpi="500"><tspan
         id="tspan4450"
         y="70.455307"
         x="355.51022"
         sodipodi:role="line">Identify only </tspan><tspan
         y="89.205307"
         x="353.12253"
         sodipodi:role="line"
         id="tspan4457">1 attack vector</tspan><tspan
         y="107.95531"
         x="353.12253"
         sodipodi:role="line"
         id="tspan4459">against 1 target</tspan></text>
    <path
       inkscape:connector-curvature="0"
       id="path4461"
       d="m 219.49759,78.528707 52.78029,0"
       style="fill:none;fill-rule:evenodd;stroke:#000000;stroke-width:1px;stroke-linecap:butt;stroke-linejoin:miter;stroke-opacity:1;marker-end:url(#marker5236)"
       inkscape:export-filename="/Users/santannajj/Desktop/a.png"
       inkscape:export-xdpi="500"
       inkscape:export-ydpi="500" />
    <path
       style="fill:none;fill-rule:evenodd;stroke:#000000;stroke-width:1px;stroke-linecap:butt;stroke-linejoin:miter;stroke-opacity:1;marker-end:url(#marker4653)"
       d="m 429.38157,102.65094 237.1944,0 0.0393,17.58849 -71.60345,0.002 0.39866,17.05374"
       id="path4585"
       inkscape:connector-curvature="0"
       sodipodi:nodetypes="ccccc"
       inkscape:export-filename="/Users/santannajj/Desktop/a.png"
       inkscape:export-xdpi="500"
       inkscape:export-ydpi="500" />
    <text
       xml:space="preserve"
       style="font-style:normal;font-weight:normal;font-size:15px;line-height:125%;font-family:sans-serif;letter-spacing:0px;word-spacing:0px;fill:#000000;fill-opacity:1;stroke:none;stroke-width:1px;stroke-linecap:butt;stroke-linejoin:miter;stroke-opacity:1"
       x="441.14502"
       y="52.012409"
       id="text4693"
       sodipodi:linespacing="125%"
       inkscape:export-filename="/Users/santannajj/Desktop/a.png"
       inkscape:export-xdpi="500"
       inkscape:export-ydpi="500"><tspan
         sodipodi:role="line"
         id="tspan4695"
         x="441.14502"
         y="52.012409">Statistics</tspan></text>
    <path
       inkscape:connector-curvature="0"
       id="path4703"
       d="m 429.38157,83.387133 305.35835,0"
       style="fill:none;fill-rule:evenodd;stroke:#000000;stroke-width:1px;stroke-linecap:butt;stroke-linejoin:miter;stroke-opacity:1;marker-end:url(#marker4409)"
       sodipodi:nodetypes="cc"
       inkscape:export-filename="/Users/santannajj/Desktop/a.png"
       inkscape:export-xdpi="500"
       inkscape:export-ydpi="500" />
    <text
       sodipodi:linespacing="125%"
       id="text4775"
       y="76.790382"
       x="439.20166"
       style="font-style:normal;font-weight:normal;font-size:15px;line-height:125%;font-family:sans-serif;letter-spacing:0px;word-spacing:0px;fill:#000000;fill-opacity:1;stroke:none;stroke-width:1px;stroke-linecap:butt;stroke-linejoin:miter;stroke-opacity:1"
       xml:space="preserve"
       inkscape:export-filename="/Users/santannajj/Desktop/a.png"
       inkscape:export-xdpi="500"
       inkscape:export-ydpi="500"><tspan
         y="76.790382"
         x="439.20166"
         id="tspan4777"
         sodipodi:role="line"
         style="font-style:normal;font-variant:normal;font-weight:bold;font-stretch:normal;font-family:sans-serif;-inkscape-font-specification:'sans-serif Bold'">Pattern==Fingerprint</tspan></text>
    <rect
       style="fill:#cccccc;fill-opacity:1;stroke:#000000;stroke-width:0.972;stroke-miterlimit:1;stroke-dasharray:none;stroke-dashoffset:0.80039465"
       id="rect5061"
       width="153.78821"
       height="63.82848"
       x="275.39334"
       y="140.23665"
       inkscape:export-filename="/Users/santannajj/Desktop/a.png"
       inkscape:export-xdpi="500"
       inkscape:export-ydpi="500" />
    <text
       xml:space="preserve"
       style="font-style:normal;font-weight:normal;font-size:15px;line-height:125%;font-family:sans-serif;text-align:center;letter-spacing:0px;word-spacing:0px;text-anchor:middle;fill:#000000;fill-opacity:1;stroke:none;stroke-width:1px;stroke-linecap:butt;stroke-linejoin:miter;stroke-opacity:1"
       x="353.12253"
       y="165.68045"
       id="text5063"
       sodipodi:linespacing="125%"
       inkscape:export-filename="/Users/santannajj/Desktop/a.png"
       inkscape:export-xdpi="500"
       inkscape:export-ydpi="500"><tspan
         id="tspan5069"
         sodipodi:role="line"
         x="353.12253"
         y="165.68045">Remove identified</tspan><tspan
         sodipodi:role="line"
         x="353.12253"
         y="184.43045"
         id="tspan5080">attack vector</tspan></text>
    <path
       style="fill:none;fill-rule:evenodd;stroke:#000000;stroke-width:1px;stroke-linecap:butt;stroke-linejoin:miter;stroke-opacity:1;marker-end:url(#marker4823)"
       d="m 274.50104,171.52967 -27.20719,0 0,-76.763118 27.69303,0"
       id="path5082"
       inkscape:connector-curvature="0"
       inkscape:export-filename="/Users/santannajj/Desktop/a.png"
       inkscape:export-xdpi="500"
       inkscape:export-ydpi="500" />
    <text
       sodipodi:linespacing="125%"
       id="text5312"
       y="85.516434"
       x="814.32422"
       style="font-style:normal;font-weight:normal;font-size:15px;line-height:125%;font-family:sans-serif;text-align:center;letter-spacing:0px;word-spacing:0px;text-anchor:middle;fill:#000000;fill-opacity:1;stroke:none;stroke-width:1px;stroke-linecap:butt;stroke-linejoin:miter;stroke-opacity:1"
       xml:space="preserve"
       inkscape:export-filename="/Users/santannajj/Desktop/a.png"
       inkscape:export-xdpi="500"
       inkscape:export-ydpi="500"><tspan
         id="tspan5316"
         y="85.516434"
         x="814.32422"
         sodipodi:role="line">SNORT signature</tspan><tspan
         y="104.26643"
         x="814.32422"
         sodipodi:role="line"
         id="tspan5322">generation</tspan></text>
    <rect
       style="fill:none;fill-opacity:1;stroke:#000000;stroke-width:0.972;stroke-miterlimit:1;stroke-dasharray:none;stroke-dashoffset:0.80039465"
       id="rect5318"
       width="153.78821"
       height="63.82848"
       x="736.59503"
       y="60.072632"
       inkscape:export-filename="/Users/santannajj/Desktop/a.png"
       inkscape:export-xdpi="500"
       inkscape:export-ydpi="500" />
    <text
       xml:space="preserve"
       style="font-style:normal;font-weight:normal;font-size:15px;line-height:125%;font-family:sans-serif;text-align:center;letter-spacing:0px;word-spacing:0px;text-anchor:middle;fill:#000000;fill-opacity:1;stroke:none;stroke-width:1px;stroke-linecap:butt;stroke-linejoin:miter;stroke-opacity:1"
       x="814.32422"
       y="161.30788"
       id="text5324"
       sodipodi:linespacing="125%"
       inkscape:export-filename="/Users/santannajj/Desktop/a.png"
       inkscape:export-xdpi="500"
       inkscape:export-ydpi="500"><tspan
         sodipodi:role="line"
         x="814.32422"
         y="161.30788"
         id="tspan5326">SURICATA signature</tspan><tspan
         id="tspan5328"
         sodipodi:role="line"
         x="814.32422"
         y="180.05788">generation</tspan></text>
    <rect
       y="135.86407"
       x="736.59503"
       height="63.82848"
       width="153.78821"
       id="rect5330"
       style="fill:none;fill-opacity:1;stroke:#000000;stroke-width:0.972;stroke-miterlimit:1;stroke-dasharray:none;stroke-dashoffset:0.80039465"
       inkscape:export-filename="/Users/santannajj/Desktop/a.png"
       inkscape:export-xdpi="500"
       inkscape:export-ydpi="500" />
    <text
       xml:space="preserve"
       style="font-style:normal;font-weight:normal;font-size:15px;line-height:125%;font-family:sans-serif;letter-spacing:0px;word-spacing:0px;fill:#000000;fill-opacity:1;stroke:none;stroke-width:1px;stroke-linecap:butt;stroke-linejoin:miter;stroke-opacity:1"
       x="439.20166"
       y="99.025879"
       id="text5332"
       sodipodi:linespacing="125%"
       inkscape:export-filename="/Users/santannajj/Desktop/a.png"
       inkscape:export-xdpi="500"
       inkscape:export-ydpi="500"><tspan
         sodipodi:role="line"
         id="tspan5334"
         x="439.20166"
         y="99.025879">Attack_vector.&lt;input_format&gt;</tspan></text>
    <path
       style="fill:none;fill-rule:evenodd;stroke:#000000;stroke-width:1px;stroke-linecap:butt;stroke-linejoin:miter;stroke-opacity:1;marker-end:url(#marker4917)"
       d="m 428.99897,57.356676 85.50828,0 0,-44.109034"
       id="path5474"
       inkscape:connector-curvature="0"
       sodipodi:nodetypes="ccc"
       inkscape:export-filename="/Users/santannajj/Desktop/a.png"
       inkscape:export-xdpi="500"
       inkscape:export-ydpi="500" />
    <path
       style="fill:none;fill-rule:evenodd;stroke:#000000;stroke-width:1px;stroke-linecap:butt;stroke-linejoin:miter;stroke-opacity:1;marker-end:url(#marker4735)"
       d="m 428.99897,109.34183 26.72134,0 0,67.04627 -26.72134,0"
       id="path6088"
       inkscape:connector-curvature="0"
       inkscape:export-filename="/Users/santannajj/Desktop/a.png"
       inkscape:export-xdpi="500"
       inkscape:export-ydpi="500" />
    <path
       style="fill:none;fill-rule:evenodd;stroke:#000000;stroke-width:1px;stroke-linecap:butt;stroke-linejoin:miter;stroke-opacity:1;marker-end:url(#marker4519)"
       d="m 711.89641,83.106331 0,85.022449 24.29213,0"
       id="path6154"
       inkscape:connector-curvature="0"
       inkscape:export-filename="/Users/santannajj/Desktop/a.png"
       inkscape:export-xdpi="500"
       inkscape:export-ydpi="500" />
    <text
       sodipodi:linespacing="125%"
       id="text6228"
       y="238.55684"
       x="814.32422"
       style="font-style:normal;font-weight:normal;font-size:15px;line-height:125%;font-family:sans-serif;text-align:center;letter-spacing:0px;word-spacing:0px;text-anchor:middle;fill:#000000;fill-opacity:1;stroke:none;stroke-width:1px;stroke-linecap:butt;stroke-linejoin:miter;stroke-opacity:1"
       xml:space="preserve"
       inkscape:export-filename="/Users/santannajj/Desktop/a.png"
       inkscape:export-xdpi="500"
       inkscape:export-ydpi="500"><tspan
         id="tspan6230"
         y="238.55684"
         x="814.32422"
         sodipodi:role="line">BRO signature</tspan><tspan
         y="257.30682"
         x="814.32422"
         sodipodi:role="line"
         id="tspan6232">generation</tspan></text>
    <rect
       style="fill:none;fill-opacity:1;stroke:#000000;stroke-width:0.972;stroke-miterlimit:1;stroke-dasharray:none;stroke-dashoffset:0.80039465"
       id="rect6234"
       width="153.78821"
       height="63.82848"
       x="736.59503"
       y="213.11304"
       inkscape:export-filename="/Users/santannajj/Desktop/a.png"
       inkscape:export-xdpi="500"
       inkscape:export-ydpi="500" />
    <path
       style="fill:none;fill-rule:evenodd;stroke:#000000;stroke-width:1px;stroke-linecap:butt;stroke-linejoin:miter;stroke-opacity:1;marker-end:url(#marker4467)"
       d="m 711.89641,82.620488 0,161.785572 25.26381,0"
       id="path6236"
       inkscape:connector-curvature="0"
       inkscape:export-filename="/Users/santannajj/Desktop/a.png"
       inkscape:export-xdpi="500"
       inkscape:export-ydpi="500" />
    <path
       style="fill:none;fill-rule:evenodd;stroke:#000000;stroke-width:1px;stroke-linecap:butt;stroke-linejoin:miter;stroke-opacity:1;marker-end:url(#marker4323)"
       d="m 679.20788,83.106331 0,346.976729"
       id="path6314"
       inkscape:connector-curvature="0"
       sodipodi:nodetypes="cc"
       inkscape:export-filename="/Users/santannajj/Desktop/a.png"
       inkscape:export-xdpi="500"
       inkscape:export-ydpi="500" />
    <text
       xml:space="preserve"
       style="font-style:normal;font-weight:normal;font-size:15px;line-height:125%;font-family:sans-serif;text-align:center;letter-spacing:0px;word-spacing:0px;text-anchor:middle;fill:#000000;fill-opacity:1;stroke:none;stroke-width:1px;stroke-linecap:butt;stroke-linejoin:miter;stroke-opacity:1"
       x="814.32422"
       y="333.31995"
       id="text6526"
       sodipodi:linespacing="125%"
       inkscape:export-filename="/Users/santannajj/Desktop/a.png"
       inkscape:export-xdpi="500"
       inkscape:export-ydpi="500"><tspan
         id="tspan6530"
         sodipodi:role="line"
         x="814.32422"
         y="333.31995">Firewall rule</tspan></text>
    <rect
       y="307.87616"
       x="736.59503"
       height="63.82848"
       width="153.78821"
       id="rect6532"
       style="fill:none;fill-opacity:1;stroke:#000000;stroke-width:0.972;stroke-miterlimit:1;stroke-dasharray:none;stroke-dashoffset:0.80039465"
       inkscape:export-filename="/Users/santannajj/Desktop/a.png"
       inkscape:export-xdpi="500"
       inkscape:export-ydpi="500" />
    <path
       style="fill:none;fill-rule:evenodd;stroke:#000000;stroke-width:1px;stroke-linecap:butt;stroke-linejoin:miter;stroke-opacity:1;marker-end:url(#marker4577)"
       d="m 711.89641,83.106331 0,260.733569 24.29213,0"
       id="path6536"
       inkscape:connector-curvature="0"
       sodipodi:nodetypes="ccc"
       inkscape:export-filename="/Users/santannajj/Desktop/a.png"
       inkscape:export-xdpi="500"
       inkscape:export-ydpi="500" />
    <text
       sodipodi:linespacing="125%"
       id="text6902"
       y="91.632187"
       x="12.561398"
       style="font-style:normal;font-weight:normal;font-size:15px;line-height:125%;font-family:sans-serif;text-align:center;letter-spacing:0px;word-spacing:0px;text-anchor:middle;fill:#000000;fill-opacity:1;stroke:none;stroke-width:1px;stroke-linecap:butt;stroke-linejoin:miter;stroke-opacity:1"
       xml:space="preserve"
       inkscape:export-filename="/Users/santannajj/Desktop/a.png"
       inkscape:export-xdpi="500"
       inkscape:export-ydpi="500"><tspan
         id="tspan6904"
         y="91.632187"
         x="12.561398"
         sodipodi:role="line"
         style="font-style:italic;font-size:10px">pcap,</tspan><tspan
         y="104.13219"
         x="12.561398"
         sodipodi:role="line"
         id="tspan6910"
         style="font-style:italic;font-size:10px">pcapng,</tspan><tspan
         y="116.63219"
         x="12.561398"
         sodipodi:role="line"
         id="tspan6914"
         style="font-style:italic;font-size:10px">netflow,</tspan><tspan
         y="129.13219"
         x="12.561398"
         sodipodi:role="line"
         id="tspan6916"
         style="font-style:italic;font-size:10px">ipfix,</tspan><tspan
         y="141.63219"
         x="12.561398"
         sodipodi:role="line"
         id="tspan6918"
         style="font-style:italic;font-size:10px">sflow,</tspan><tspan
         y="154.13219"
         x="12.561398"
         sodipodi:role="line"
         id="tspan6920"
         style="font-style:italic;font-size:10px">log,</tspan><tspan
         y="166.63219"
         x="12.561398"
         sodipodi:role="line"
         style="font-style:italic;font-size:10px"
         id="tspan9571">csv,</tspan><tspan
         y="179.13219"
         x="12.561398"
         sodipodi:role="line"
         id="tspan6922"
         style="font-style:italic;font-size:10px">...</tspan><tspan
         id="tspan6906"
         y="191.63219"
         x="12.561398"
         sodipodi:role="line"
         style="font-style:italic;font-size:10px" /></text>
    <g
       id="g6984"
       transform="translate(0,0.089434)"
       inkscape:export-filename="/Users/santannajj/Desktop/a.png"
       inkscape:export-xdpi="500"
       inkscape:export-ydpi="500">
      <path
         d="M 525.68164,2.942311 A 11.174378,11.174378 0 0 1 514.55475,14.116589 11.174378,11.174378 0 0 1 503.33329,3.0372894 11.174378,11.174378 0 0 1 514.3648,-8.2311591 11.174378,11.174378 0 0 1 525.68003,2.7523613"
         sodipodi:open="true"
         sodipodi:end="6.2661858"
         sodipodi:start="0"
         sodipodi:ry="11.174378"
         sodipodi:rx="11.174378"
         sodipodi:cy="2.942311"
         sodipodi:cx="514.50726"
         sodipodi:type="arc"
         id="path6924"
         style="fill:none;fill-opacity:1;stroke:#000000;stroke-width:0.972;stroke-miterlimit:1;stroke-dasharray:none;stroke-dashoffset:0.80039465;stroke-opacity:1" />
      <text
         xml:space="preserve"
         style="font-style:normal;font-weight:normal;font-size:15px;line-height:125%;font-family:sans-serif;letter-spacing:0px;word-spacing:0px;fill:#000000;fill-opacity:1;stroke:none;stroke-width:1px;stroke-linecap:butt;stroke-linejoin:miter;stroke-opacity:1"
         x="508.19128"
         y="7.3148952"
         id="text6926"
         sodipodi:linespacing="125%"><tspan
           sodipodi:role="line"
           id="tspan6928"
           x="508.19128"
           y="7.3148952">+</tspan></text>
    </g>
    <path
       style="fill:none;fill-rule:evenodd;stroke:#000000;stroke-width:1px;stroke-linecap:butt;stroke-linejoin:miter;stroke-opacity:1;marker-end:url(#marker5018)"
       d="m 514.02141,-9.1143186 0,-16.0328044"
       id="path6989"
       inkscape:connector-curvature="0"
       inkscape:export-filename="/Users/santannajj/Desktop/a.png"
       inkscape:export-xdpi="500"
       inkscape:export-ydpi="500" />
    <text
       sodipodi:linespacing="125%"
       id="text7085"
       y="-29.033863"
       x="492.15848"
       style="font-style:normal;font-weight:normal;font-size:15px;line-height:125%;font-family:sans-serif;letter-spacing:0px;word-spacing:0px;fill:#000000;fill-opacity:1;stroke:none;stroke-width:1px;stroke-linecap:butt;stroke-linejoin:miter;stroke-opacity:1"
       xml:space="preserve"
       inkscape:export-filename="/Users/santannajj/Desktop/a.png"
       inkscape:export-xdpi="500"
       inkscape:export-ydpi="500"><tspan
         y="-29.033863"
         x="492.15848"
         id="tspan7087"
         sodipodi:role="line">Report</tspan></text>
    <path
       style="fill:none;fill-rule:evenodd;stroke:#000000;stroke-width:1px;stroke-linecap:butt;stroke-linejoin:miter;stroke-opacity:1;marker-end:url(#marker4357)"
       d="m 890.36061,86.842362 17.20528,0 0,296.538068 -215.17092,0 0.99297,47.49114"
       id="path7156"
       inkscape:connector-curvature="0"
       sodipodi:nodetypes="ccccc"
       inkscape:export-filename="/Users/santannajj/Desktop/a.png"
       inkscape:export-xdpi="500"
       inkscape:export-ydpi="500" />
    <path
       style="fill:none;fill-rule:evenodd;stroke:#000000;stroke-width:1px;stroke-linecap:butt;stroke-linejoin:miter;stroke-opacity:1;marker-end:"
       d="m 889.34854,168.82046 18.21735,0"
       id="path7258"
       inkscape:connector-curvature="0"
       inkscape:export-filename="/Users/santannajj/Desktop/a.png"
       inkscape:export-xdpi="500"
       inkscape:export-ydpi="500" />
    <path
       style="fill:none;fill-rule:evenodd;stroke:#000000;stroke-width:1px;stroke-linecap:butt;stroke-linejoin:miter;stroke-opacity:1;marker-end:"
       d="m 890.36061,243.71403 16.19321,0"
       id="path7260"
       inkscape:connector-curvature="0"
       inkscape:export-filename="/Users/santannajj/Desktop/a.png"
       inkscape:export-xdpi="500"
       inkscape:export-ydpi="500" />
    <path
       style="fill:none;fill-rule:evenodd;stroke:#000000;stroke-width:1px;stroke-linecap:butt;stroke-linejoin:miter;stroke-opacity:1;marker-end:"
       d="m 890.36061,341.66798 17.20528,0"
       id="path7262"
       inkscape:connector-curvature="0"
       inkscape:export-filename="/Users/santannajj/Desktop/a.png"
       inkscape:export-xdpi="500"
       inkscape:export-ydpi="500" />
    <path
       style="fill:#000000;marker-end:"
       d="m 487.96972,-80.993088 0,-36.235502 27.17663,0 27.17663,0 0,36.235502 0,36.23551 -27.17663,0 -27.17663,0 0,-36.23551 z m 49.52186,0 0,-31.404102 -22.34523,0 -22.34523,0 0,31.404102 0,31.404112 22.34523,0 22.34523,0 0,-31.404112 z m -41.36887,21.59306 0,-5.891003 3.62532,0 3.62533,0 -0.0395,5.850526 -0.0395,5.85052 -3.5858,0.04049 -3.58581,0.04049 0,-5.891003 z m 10.26673,-4.381192 0,-10.266726 3.62354,0 3.62356,0 0,10.266726 0,10.266727 -3.62356,0 -3.62354,0 0,-10.266727 z m 10.26673,2.717664 0,-7.549062 3.62354,0 3.62355,0 0,7.549062 0,7.549063 -3.62355,0 -3.62354,0 0,-7.549063 z m 10.36737,7.44841 c -0.0553,-0.05534 -0.10065,-5.796424 -0.10065,-12.757917 l 0,-12.657265 3.62355,0 3.62355,0 0,12.757918 0,12.757917 -3.52289,0 c -1.9376,0 -3.5682,-0.04529 -3.62356,-0.100653 z m -30.18706,-23.551212 c -0.31326,-0.5509 -0.55105,-1.01738 -0.52843,-1.03662 0.16423,-0.13971 12.81742,-7.31954 12.8994,-7.31954 0.0575,0 2.73003,0.98515 5.9389,2.18922 3.20886,1.20408 5.8773,2.18923 5.92985,2.18923 0.0525,0 2.18786,-1.46954 4.74514,-3.26564 2.55729,-1.79611 5.16737,-3.62902 5.80019,-4.07314 l 1.15059,-0.80749 0.62344,0.88878 c 0.3429,0.48884 0.62115,0.94592 0.61833,1.01577 -0.008,0.19314 -12.53707,8.8905 -12.73291,8.8387 -0.094,-0.0248 -2.80244,-1.03632 -6.0188,-2.24771 l -5.84794,-2.20252 -5.91388,3.38007 c -3.25264,1.85904 -5.95448,3.39638 -6.0041,3.4163 -0.0496,0.0199 -0.34651,-0.41451 -0.65978,-0.96541 z m -0.71377,-14.62189 0,-2.34021 11.62556,0 11.62555,0 0,2.34021 0,2.34021 -11.62555,0 -11.62556,0 0,-2.34021 z m 0,-7.47357 0,-2.415702 19.02364,0 19.02364,0 0,2.415702 0,2.4157 -19.02364,0 -19.02364,0 0,-2.4157 z m 0,-7.549072 0,-2.4157 19.02364,0 19.02364,0 0,2.4157 0,2.41571 -19.02364,0 -19.02364,0 0,-2.41571 z"
       id="path7409"
       inkscape:connector-curvature="0"
       inkscape:export-filename="/Users/santannajj/Desktop/a.png"
       inkscape:export-xdpi="500"
       inkscape:export-ydpi="500" />
    <text
       xml:space="preserve"
       style="font-style:normal;font-weight:normal;font-size:15px;line-height:125%;font-family:sans-serif;letter-spacing:0px;word-spacing:0px;fill:#000000;fill-opacity:1;stroke:none;stroke-width:1px;stroke-linecap:butt;stroke-linejoin:miter;stroke-opacity:1"
       x="282.18723"
       y="-804.4837"
       id="text7687"
       sodipodi:linespacing="125%"
       transform="matrix(0,1,-1,0,0,0)"
       inkscape:export-filename="/Users/santannajj/Desktop/a.png"
       inkscape:export-xdpi="500"
       inkscape:export-ydpi="500"><tspan
         sodipodi:role="line"
         id="tspan7689"
         x="282.18723"
         y="-804.4837"
         style="font-style:normal;font-variant:normal;font-weight:bold;font-stretch:normal;font-size:20px;font-family:sans-serif;-inkscape-font-specification:'sans-serif Bold'">...</tspan></text>
    <rect
       y="140.23665"
       x="517.27936"
       height="63.82848"
       width="153.78821"
       id="rect7963"
       style="fill:#cccccc;fill-opacity:1;stroke:#000000;stroke-width:0.972;stroke-miterlimit:1;stroke-dasharray:none;stroke-dashoffset:0.80039465"
       inkscape:export-filename="/Users/santannajj/Desktop/a.png"
       inkscape:export-xdpi="500"
       inkscape:export-ydpi="500" />
    <text
       sodipodi:linespacing="125%"
       id="text7965"
       y="165.68045"
       x="595.00854"
       style="font-style:normal;font-weight:normal;font-size:15px;line-height:125%;font-family:sans-serif;text-align:center;letter-spacing:0px;word-spacing:0px;text-anchor:middle;fill:#000000;fill-opacity:1;stroke:none;stroke-width:1px;stroke-linecap:butt;stroke-linejoin:miter;stroke-opacity:1"
       xml:space="preserve"
       inkscape:export-filename="/Users/santannajj/Desktop/a.png"
       inkscape:export-xdpi="500"
       inkscape:export-ydpi="500"><tspan
         id="tspan7969"
         y="165.68045"
         x="595.00854"
         sodipodi:role="line">Remove victim's</tspan><tspan
         y="184.43045"
         x="595.00854"
         sodipodi:role="line"
         id="tspan7973">IP address</tspan></text>
    <path
       style="fill:none;fill-rule:evenodd;stroke:#000000;stroke-width:1px;stroke-linecap:butt;stroke-linejoin:miter;stroke-opacity:1;marker-end:url(#marker8625)"
       d="m 595.10028,204.2431 0,20.2415 69.8332,0 0,206.46337"
       id="path8617"
       inkscape:connector-curvature="0"
       inkscape:export-filename="/Users/santannajj/Desktop/a.png"
       inkscape:export-xdpi="500"
       inkscape:export-ydpi="500" />
    <g
       id="g9052"
       transform="matrix(0.04136782,0,0,0.04136782,632.68496,389.49341)"
       inkscape:export-filename="/Users/santannajj/Desktop/a.png"
       inkscape:export-xdpi="500"
       inkscape:export-ydpi="500">
      <g
         id="g9012">
        <path
           id="path9014"
           d="m 627.698,364.225 -147.285,39.459 -32.737,-18.883 0,-87.307 32.737,-18.882 147.052,39.372 c 1.286,0.409 2.718,0.614 4.238,0.614 6.956,0 13.095,-4.735 14.936,-11.487 1.053,-4.004 0.497,-8.185 -1.607,-11.75 -2.046,-3.566 -5.407,-6.109 -9.383,-7.161 L 518.265,256.72 630.943,191.685 c 3.566,-2.075 6.109,-5.407 7.162,-9.382 1.081,-4.004 0.555,-8.184 -1.55,-11.75 -4.15,-7.074 -14.176,-9.763 -21.133,-5.583 l -112.59,65.006 31.45,-117.414 c 2.104,-8.213 -2.806,-16.69 -10.961,-18.882 -8.009,-2.192 -16.836,2.894 -18.911,10.961 l -39.489,147.228 -32.736,18.882 -75.645,-43.668 0,-37.822 107.826,-107.8 c 5.963,-6.05 5.963,-15.842 -0.029,-21.863 -5.875,-5.816 -16.018,-5.846 -21.893,0 l -85.904,85.934 0,-130.041 C 356.54,6.957 349.612,0 341.078,0 332.601,0 325.674,6.957 325.674,15.491 l 0,130.07 -85.934,-85.934 c -5.816,-5.817 -15.93,-5.846 -21.863,0 -6.021,5.992 -6.05,15.813 0,21.893 l 107.797,107.739 0,37.793 -75.616,43.668 -32.766,-18.94 -39.459,-147.256 c -2.163,-8.009 -10.376,-13.095 -18.911,-10.932 -8.185,2.221 -13.095,10.698 -10.961,18.999 L 179.44,229.917 66.82,164.881 c -7.161,-4.121 -17.07,-1.461 -21.104,5.642 -2.104,3.595 -2.631,7.775 -1.579,11.779 1.082,4.004 3.654,7.307 7.22,9.353 L 164.006,256.69 46.564,288.112 c -8.184,2.25 -13.095,10.756 -10.902,18.999 1.871,6.723 7.979,11.428 14.877,11.428 1.549,0 2.923,-0.205 4.063,-0.555 l 147.286,-39.489 32.678,18.94 0,87.309 -32.678,18.91 -147.257,-39.459 c -8.242,-2.135 -16.836,2.951 -18.911,10.961 -2.192,8.184 2.689,16.689 10.902,18.939 l 117.443,31.422 -112.648,65.094 c -3.595,2.074 -6.138,5.408 -7.19,9.412 -1.052,4.004 -0.526,8.154 1.549,11.662 4.122,7.131 13.68,9.908 21.162,5.67 l 112.649,-65.006 -31.509,117.326 c -1.082,4.004 -0.555,8.184 1.52,11.779 2.075,3.566 5.437,6.109 9.148,7.074 1.286,0.408 2.719,0.613 4.268,0.613 6.927,0 13.065,-4.734 14.936,-11.516 l 39.43,-147.199 32.708,-18.939 75.616,43.697 0,37.764 -107.798,107.827 c -6.021,5.992 -6.021,15.785 0.058,21.951 5.817,5.787 15.959,5.816 21.776,0 l 85.905,-85.992 0,130.1 c 0,8.535 6.927,15.463 15.433,15.463 8.535,0 15.462,-6.928 15.462,-15.463 l 0,-130.1 85.905,85.992 c 5.699,5.699 15.842,5.875 21.951,-0.029 5.934,-6.08 5.904,-15.871 -0.059,-21.863 L 356.54,493.008 l 0,-37.764 75.645,-43.668 32.707,18.881 39.46,147.229 c 1.812,6.723 7.921,11.457 14.906,11.457 1.286,0 2.515,-0.146 4.093,-0.496 8.242,-2.252 13.124,-10.758 10.873,-18.941 l -31.45,-117.385 112.707,65.123 c 7.396,4.121 16.895,1.404 21.104,-5.699 4.209,-7.395 1.695,-16.895 -5.671,-21.133 L 518.266,425.606 635.65,394.126 c 4.005,-1.051 7.337,-3.594 9.412,-7.16 2.046,-3.566 2.631,-7.746 1.549,-11.75 -2.165,-8.07 -10.963,-13.097 -18.913,-10.991 z m -210.946,-66.789 0,87.365 -75.646,43.67 -75.586,-43.67 0,-87.365 75.586,-43.61 75.646,43.61 z"
           inkscape:connector-curvature="0" />
      </g>
      <g
         id="g9016" />
      <g
         id="g9018" />
      <g
         id="g9020" />
      <g
         id="g9022" />
      <g
         id="g9024" />
      <g
         id="g9026" />
      <g
         id="g9028" />
      <g
         id="g9030" />
      <g
         id="g9032" />
      <g
         id="g9034" />
      <g
         id="g9036" />
      <g
         id="g9038" />
      <g
         id="g9040" />
      <g
         id="g9042" />
      <g
         id="g9044" />
    </g>
    <path
       style="fill:#000000;marker-end:"
       d="m 700.74066,419.47928 0,-0.35467 7.2455,0 7.24549,0 0,0.35467 0,0.35467 -7.24549,0 -7.2455,0 0,-0.35467 z m 9.42422,-0.86849 c -0.68383,-0.10277 -1.34424,-0.32682 -1.39281,-0.47252 -0.0199,-0.0597 0.36515,-0.34919 0.85565,-0.64331 2.82893,-1.69633 3.73476,-2.60185 4.4804,-4.47888 0.25936,-0.65288 0.61686,-2.13999 0.61686,-2.56593 0,-0.0976 -0.14539,-0.0517 -0.48134,0.15187 -0.26474,0.16046 -0.57986,0.32142 -0.70026,0.35768 l -0.21892,0.0659 0.19608,-0.73863 c 0.29929,-1.12745 0.35663,-2.34058 0.14504,-3.06843 l -0.17453,-0.60036 -0.42172,0.80948 c -0.53439,1.02573 -0.97692,1.62744 -1.50376,2.04468 -0.653,0.51715 -0.70089,0.46897 -0.3778,-0.38001 0.11666,-0.30653 0.23573,-0.87655 0.26459,-1.26669 0.096,-1.29743 -0.54689,-3.35309 -1.56107,-4.99166 l -0.54827,-0.88581 0.0537,0.65868 c 0.29237,3.58021 0.01,5.70442 -0.97894,7.35738 -0.30692,0.51313 -0.33173,0.53114 -0.50977,0.37 -0.50181,-0.45412 -1.30207,-2.00185 -1.69005,-3.26861 l -0.17071,-0.55734 -0.21908,0.81068 c -0.42413,1.56952 -0.39106,3.34327 0.0987,5.29616 0.11612,0.46297 0.18548,0.8674 0.15414,0.89874 -0.10261,0.10261 -0.63255,-0.2786 -0.87093,-0.6265 -0.12833,-0.18727 -0.34938,-0.62755 -0.49123,-0.9784 -0.28,-0.69253 -0.939,-3.23057 -1.14665,-4.41609 -0.0711,-0.40596 -0.16304,-0.70236 -0.2043,-0.65868 -0.2435,0.25784 -0.90465,3.20313 -0.90465,4.0301 l 0,0.44429 -0.67809,-0.39625 c -0.37296,-0.21794 -0.69594,-0.37841 -0.71776,-0.35659 -0.0695,0.0695 0.29389,1.69249 0.55631,2.48458 0.56117,1.6938 1.25345,2.93238 2.12527,3.80233 0.54369,0.54252 1.896,1.47123 2.14229,1.47123 0.12352,0 0.13208,0.0272 0.0382,0.12112 -0.21247,0.21247 -2.41938,0.23645 -3.11626,0.0339 -1.74932,-0.50854 -3.007,-1.65203 -3.90483,-3.55027 -0.99165,-2.09664 -1.31814,-4.41855 -0.95825,-6.81468 0.19479,-1.29686 0.19589,-2.14642 0.004,-2.86232 -0.19426,-0.72373 -0.19247,-0.73777 0.076,-0.59652 0.35694,0.18779 0.80324,0.58058 1.20093,1.05695 l 0.3649,0.43709 0.21462,-1.48745 c 0.37948,-2.62993 0.45269,-3.56963 0.39818,-5.1102 -0.0387,-1.09263 -0.0214,-1.49471 0.0641,-1.49471 0.25803,0 0.86685,0.52657 1.21467,1.05058 0.20261,0.30524 0.524,0.87971 0.71421,1.2766 0.1902,0.39689 0.36712,0.68546 0.39315,0.64126 0.13288,-0.22564 0.79391,-2.73166 0.93001,-3.52578 0.34339,-2.00356 0.30228,-4.18384 -0.10042,-5.3252 -0.13614,-0.38588 -0.13337,-0.40026 0.0769,-0.40026 0.5553,0 1.42302,0.97744 2.15903,2.43205 l 0.28201,0.55735 0.18475,-0.41905 c 0.27268,-0.61845 0.38548,-1.61305 0.38923,-3.4317 0.002,-1.19028 0.0548,-1.87084 0.19694,-2.55959 0.18012,-0.87289 0.51678,-1.64585 0.71683,-1.64585 0.0472,0 0.13858,0.26221 0.20298,0.58269 0.34945,1.73907 0.70268,2.52331 1.96595,4.36486 0.53784,0.78406 1.12951,1.75866 1.31483,2.16577 0.38533,0.84652 0.8726,2.21721 0.8726,2.45459 0,0.0882 0.0382,0.16032 0.0847,0.16032 0.17559,0 0.42194,-1.41367 0.42194,-2.42122 0,-0.62512 0.0401,-1.0242 0.10283,-1.0242 0.40842,0 1.57847,1.74017 2.13661,3.17768 0.36594,0.94249 1.11755,3.86493 1.31333,5.10652 0.0725,0.4598 0.16591,0.83601 0.20755,0.83601 0.27684,0 0.86877,-1.4053 1.04662,-2.4848 0.10636,-0.64553 0.19904,-0.72261 0.44819,-0.37272 0.11851,0.16644 0.36878,0.66086 0.55615,1.09872 1.01832,2.37959 1.0905,4.97026 0.21057,7.55735 -0.29858,0.87788 -0.35566,2.12036 -0.0872,1.89753 0.0872,-0.0724 0.35626,-0.54266 0.59791,-1.04509 l 0.43936,-0.91352 0.11067,0.39934 c 0.20201,0.72902 0.34119,2.11072 0.28511,2.83056 -0.10715,1.37536 -0.86511,3.25438 -1.77848,4.40894 -1.36688,1.72781 -3.42816,2.84459 -5.78926,3.13656 -0.95605,0.11822 -1.12748,0.11802 -1.92803,-0.002 z m -1.83006,-22.60686 c 0.059,-0.27528 0.10734,-0.61785 0.10734,-0.76126 0,-0.23111 -0.0191,-0.24495 -0.16769,-0.12169 -0.3489,0.28935 -0.54584,1.1142 -0.37335,1.5637 0.0632,0.16453 0.0744,0.16436 0.19666,-0.002 0.0714,-0.0976 0.17802,-0.40261 0.23704,-0.67789 z"
       id="path9193"
       inkscape:connector-curvature="0"
       inkscape:export-filename="/Users/santannajj/Desktop/a.png"
       inkscape:export-xdpi="500"
       inkscape:export-ydpi="500" />
    <text
       xml:space="preserve"
       style="font-style:normal;font-weight:normal;font-size:15px;line-height:125%;font-family:sans-serif;text-align:center;letter-spacing:0px;word-spacing:0px;text-anchor:middle;fill:#000000;fill-opacity:1;stroke:none;stroke-width:1px;stroke-linecap:butt;stroke-linejoin:miter;stroke-opacity:1"
       x="132.75343"
       y="127.37926"
       id="text9413"
       sodipodi:linespacing="125%"
       inkscape:export-filename="/Users/santannajj/Desktop/a.png"
       inkscape:export-xdpi="500"
       inkscape:export-ydpi="500"><tspan
         style="font-style:italic;font-size:10px"
         sodipodi:role="line"
         x="132.75343"
         y="127.37926"
         id="tspan9415">pcap2dataframe,</tspan><tspan
         style="font-style:italic;font-size:10px"
         id="tspan9417"
         sodipodi:role="line"
         x="132.75343"
         y="139.87926">pcapng2dataframe,</tspan><tspan
         style="font-style:italic;font-size:10px"
         id="tspan9419"
         sodipodi:role="line"
         x="132.75343"
         y="152.37926">netflow2dataframe,</tspan><tspan
         style="font-style:italic;font-size:10px"
         id="tspan9421"
         sodipodi:role="line"
         x="132.75343"
         y="164.87926">ipfix2dataframe,</tspan><tspan
         style="font-style:italic;font-size:10px"
         id="tspan9423"
         sodipodi:role="line"
         x="132.75343"
         y="177.37926">sflow2dataframe,</tspan><tspan
         style="font-style:italic;font-size:10px"
         id="tspan9427"
         sodipodi:role="line"
         x="132.75343"
         y="189.87926">log2dataframe,</tspan><tspan
         style="font-style:italic;font-size:10px"
         sodipodi:role="line"
         x="132.75343"
         y="202.37926"
         id="tspan9429" /></text>
    <path
       style="fill:#008000;marker-end:"
       d="m 180.23637,128.7966 c -0.0494,-0.0109 -0.14626,-0.0417 -0.21534,-0.0685 -0.0805,-0.0312 -0.95839,-1.0101 -2.44257,-2.72346 -1.27434,-1.47111 -2.47076,-2.83842 -2.65872,-3.03845 -0.3591,-0.38216 -0.61282,-0.80443 -0.73678,-1.22619 -0.0838,-0.28526 -0.0936,-0.77736 -0.0199,-0.99478 0.0922,-0.27145 1.3712,-2.08915 1.54613,-2.19727 0.32943,-0.2036 0.70025,-0.0301 1.16172,0.54343 0.14808,0.18405 0.98606,1.05764 1.86219,1.94132 l 1.59296,1.60669 1.05449,-1.0684 c 0.57998,-0.58762 2.02373,-2.09786 3.20835,-3.35609 3.98234,-4.22977 4.43737,-4.70757 5.69846,-5.98348 1.241,-1.2556 1.93506,-1.90629 2.42134,-2.27001 0.28099,-0.21017 1.12817,-0.56352 1.69435,-0.70669 0.68605,-0.1735 0.86325,-0.004 0.57012,0.54623 -0.0792,0.14845 -0.32068,0.49061 -0.53679,0.76034 -0.21611,0.26973 -1.11873,1.52656 -2.00583,2.79295 -0.8871,1.26639 -3.41616,4.87706 -5.62015,8.02371 -2.20398,3.14665 -4.19713,5.94872 -4.42922,6.22681 -0.59892,0.71763 -0.98703,1.00313 -1.5702,1.15502 -0.25365,0.066 -0.39922,0.0754 -0.57467,0.0368 z"
       id="path9565"
       inkscape:connector-curvature="0"
       inkscape:export-filename="/Users/santannajj/Desktop/a.png"
       inkscape:export-xdpi="500"
       inkscape:export-ydpi="500" />
    <path
       inkscape:connector-curvature="0"
       id="path9567"
       d="m 184.19422,139.70527 c -0.0494,-0.0109 -0.14626,-0.0417 -0.21534,-0.0685 -0.0805,-0.0312 -0.95839,-1.0101 -2.44257,-2.72346 -1.27434,-1.47111 -2.47076,-2.83842 -2.65872,-3.03845 -0.3591,-0.38216 -0.61282,-0.80443 -0.73678,-1.22619 -0.0838,-0.28526 -0.0936,-0.77736 -0.0199,-0.99478 0.0922,-0.27145 1.3712,-2.08915 1.54613,-2.19727 0.32943,-0.2036 0.70025,-0.0301 1.16172,0.54343 0.14808,0.18405 0.98606,1.05764 1.86219,1.94132 l 1.59296,1.60669 1.05449,-1.0684 c 0.57998,-0.58762 2.02373,-2.09786 3.20835,-3.35609 3.98234,-4.22977 4.43737,-4.70757 5.69846,-5.98348 1.241,-1.2556 1.93506,-1.90629 2.42134,-2.27001 0.28099,-0.21017 1.12817,-0.56352 1.69435,-0.70669 0.68605,-0.1735 0.86325,-0.004 0.57012,0.54623 -0.0792,0.14845 -0.32068,0.49061 -0.53679,0.76034 -0.21611,0.26973 -1.11873,1.52656 -2.00583,2.79295 -0.8871,1.26639 -3.41616,4.87706 -5.62015,8.02371 -2.20398,3.14665 -4.19713,5.94872 -4.42922,6.22681 -0.59892,0.71763 -0.98703,1.00313 -1.5702,1.15502 -0.25365,0.066 -0.39922,0.0754 -0.57467,0.0368 z"
       style="fill:#008000;marker-mid:"
       inkscape:export-filename="/Users/santannajj/Desktop/a.png"
       inkscape:export-xdpi="500"
       inkscape:export-ydpi="500" />
    <path
       style="fill:#008000;marker-mid:"
       d="m 186.19422,154.61394 c -0.0494,-0.0109 -0.14626,-0.0417 -0.21534,-0.0685 -0.0805,-0.0312 -0.95839,-1.0101 -2.44257,-2.72346 -1.27434,-1.47111 -2.47076,-2.83842 -2.65872,-3.03845 -0.3591,-0.38216 -0.61282,-0.80443 -0.73678,-1.22619 -0.0838,-0.28526 -0.0936,-0.77736 -0.0199,-0.99478 0.0922,-0.27145 1.3712,-2.08915 1.54613,-2.19727 0.32943,-0.2036 0.70025,-0.0301 1.16172,0.54343 0.14808,0.18405 0.98606,1.05764 1.86219,1.94132 l 1.59296,1.60669 1.05449,-1.0684 c 0.57998,-0.58762 2.02373,-2.09786 3.20835,-3.35609 3.98234,-4.22977 4.43737,-4.70757 5.69846,-5.98348 1.241,-1.2556 1.93506,-1.90629 2.42134,-2.27001 0.28099,-0.21017 1.12817,-0.56352 1.69435,-0.70669 0.68605,-0.1735 0.86325,-0.004 0.57012,0.54623 -0.0792,0.14845 -0.32068,0.49061 -0.53679,0.76034 -0.21611,0.26973 -1.11873,1.52656 -2.00583,2.79295 -0.8871,1.26639 -3.41616,4.87706 -5.62015,8.02371 -2.20398,3.14665 -4.19713,5.94872 -4.42922,6.22681 -0.59892,0.71763 -0.98703,1.00313 -1.5702,1.15502 -0.25365,0.066 -0.39922,0.0754 -0.57467,0.0368 z"
       id="path9569"
       inkscape:connector-curvature="0"
       inkscape:export-filename="/Users/santannajj/Desktop/a.png"
       inkscape:export-xdpi="500"
       inkscape:export-ydpi="500" />
    <text
       xml:space="preserve"
       style="font-style:normal;font-weight:normal;font-size:111.94644928px;line-height:125%;font-family:sans-serif;letter-spacing:0px;word-spacing:0px;fill:#000000;fill-opacity:1;stroke:none;stroke-width:1px;stroke-linecap:butt;stroke-linejoin:miter;stroke-opacity:1"
       x="731.19971"
       y="3726.2957"
       id="text7278"
       sodipodi:linespacing="125%"
       inkscape:export-xdpi="90"
       inkscape:export-ydpi="90"><tspan
         sodipodi:role="line"
         id="tspan7280"
         x="731.19971"
         y="3726.2957" /></text>
    <text
       xml:space="preserve"
       style="font-style:normal;font-weight:normal;font-size:111.94644928px;line-height:125%;font-family:sans-serif;letter-spacing:0px;word-spacing:0px;fill:#000000;fill-opacity:1;stroke:none;stroke-width:1px;stroke-linecap:butt;stroke-linejoin:miter;stroke-opacity:1"
       x="768.89417"
       y="3795.9436"
       id="text7282"
       sodipodi:linespacing="125%"
       inkscape:export-xdpi="90"
       inkscape:export-ydpi="90"><tspan
         sodipodi:role="line"
         id="tspan7284"
         x="768.89417"
         y="3795.9436" /></text>
    <g
       id="g4667"
       transform="matrix(0.38520862,0,0,0.38520862,470.13095,-17.285263)">
      <path
         d="m 44.531949,-1186.2363 a 31.246111,31.045185 0 0 1 -31.113319,31.0449 31.246111,31.045185 0 0 1 -31.377774,-30.7811 31.246111,31.045185 0 0 1 30.846617,-31.3065 31.246111,31.045185 0 0 1 31.639961,30.5149"
         sodipodi:open="true"
         sodipodi:end="6.2661858"
         sodipodi:start="0"
         sodipodi:ry="31.045185"
         sodipodi:rx="31.246111"
         sodipodi:cy="-1186.2363"
         sodipodi:cx="13.285838"
         sodipodi:type="arc"
         id="path4915"
         style="fill:none;fill-opacity:1;stroke:#000000;stroke-width:5.00000048;stroke-miterlimit:4;stroke-dasharray:none;stroke-dashoffset:0;stroke-opacity:1"
         transform="scale(-1,-1)"
         inkscape:export-filename="/Users/santannajj/Desktop/a.png"
         inkscape:export-xdpi="90"
         inkscape:export-ydpi="90" />
      <path
         style="fill:#666666;fill-opacity:1"
         d="m -20.618003,1209.7127 c -2.32682,-0.3302 -5.65057,-1.5775 -7.62973,-2.8633 -1.73983,-1.1302 -2.90395,-3.1861 -4.03293,-7.1225 -0.85864,-2.9943 -0.80436,-4.0024 0.25836,-4.7819 0.38232,-0.2805 0.60861,-0.3198 1.385,-0.2406 0.51039,0.052 1.9881,0.2027 3.28381,0.3347 4.91389,0.5006 8.74943,0.6284 16.157109,0.5383 7.2279097,-0.088 8.7992497,-0.1698 13.6393597,-0.7111 1.3507,-0.1511 2.61468,-0.2284 2.80866,-0.1718 0.54153,0.1578 1.21617,0.9006 1.34905,1.485 0.14675,0.6461 -0.10926,2.0504 -0.79143,4.3397 -1.09268,3.6671 -2.25797,5.5463 -4.14396,6.6829 -2.44160996,1.4711 -5.87299,2.5399 -8.24551,2.568 -1.71833,0.02 -2.02264,-0.1104 -3.6864497,-1.5851 -1.32309,-1.1728 -2.18266,-1.5415 -3.15585,-1.3538 -0.776159,0.1497 -1.247659,0.4457 -2.437859,1.5302 -0.54975,0.5009 -1.1922,1.0048 -1.42777,1.12 -0.61296,0.2995 -2.11428,0.4038 -3.32986,0.2313 z m 1.77285,-5.4777 c 0.7946,-0.4749 1.4253,-1.4189 1.56512,-2.3428 0.0811,-0.5373 0.0388,-0.6806 -0.32875,-1.1077 -0.54927,-0.6379 -1.54608,-0.9605 -3.66471,-1.186 -2.26937,-0.2415 -4.23232,0.041 -4.73107,0.6814 -0.58453,0.7503 0.13629,2.6119 1.32473,3.4215 1.63972,1.1169 4.43182,1.3723 5.83468,0.5336 z m 15.9204787,0.038 c 1.76439,-0.793 2.84050004,-2.0778 2.84050004,-3.3908 0,-0.5027 -0.0717,-0.6461 -0.4292,-0.861 -1.41637004,-0.8508 -6.57559004,-0.5427 -7.90925004,0.4725 -1.2352,0.9401 -0.19045,3.3655 1.77003,4.109 0.66489,0.2521 2.86694,0.057 3.72792,-0.3297 z m -14.6490887,-12.2482 c -11.51792,-0.2932 -21.92447,-2.3404 -23.27411,-4.5787 -0.30607,-0.5076 -0.26025,-1.1619 0.10927,-1.5639 1.05919,-1.152 4.53404,-2.3642 8.71607,-3.0406 0.87109,-0.1409 1.29312,-0.2842 1.37619,-0.4672 0.067,-0.1452 0.97119,-3.8835 2.01159,-8.3075 1.04028,-4.4239 2.01676,-8.3573 2.16985,-8.7408 0.32957,-0.8253 1.34283,-1.958 2.08209,-2.328 0.29902,-0.1495 0.92831,-0.2647 1.45491,-0.2663 0.8208,0 1.22885,0.1363 3.53359,1.2022 2.86423,1.3245 4.10731,1.6632 6.103389,1.6632 1.94438,0 3.18499,-0.3329 5.9991697,-1.6099 1.41203,-0.6407 2.82652,-1.2135 3.14351,-1.2729 0.80307,-0.1506 1.87448,0.1609 2.65005,0.7704 1.27480004,1.0018 1.35716004,1.2451 3.49505,10.3334 1.07283,4.5607 2.00396,8.411 2.06905,8.5562 0.0822,0.1836 0.50075,0.325 1.3749,0.4648 5.4081803,0.8645 9.0374103,2.4366 9.0374103,3.9149 0,2.0576 -6.1492103,3.9146 -15.9190703,4.8075 -3.37298,0.3083 -10.3761297,0.6052 -12.8494587,0.5449 -1.0209,-0.025 -2.49848,-0.062 -3.28369,-0.082 z"
         id="path4917"
         inkscape:connector-curvature="0"
         inkscape:export-filename="/Users/santannajj/Desktop/a.png"
         inkscape:export-xdpi="90"
         inkscape:export-ydpi="90" />
      <path
         transform="scale(-1,-1)"
         d="m -112.99575,-1033.981 a 49.768734,48.563213 0 0 1 -49.55722,48.56282 49.768734,48.563213 0 0 1 -49.97845,-48.15002 49.768734,48.563213 0 0 1 49.13242,-48.972 49.768734,48.563213 0 0 1 50.39606,47.7337"
         sodipodi:open="true"
         sodipodi:end="6.2661858"
         sodipodi:start="0"
         sodipodi:ry="48.563213"
         sodipodi:rx="49.768734"
         sodipodi:cy="-1033.981"
         sodipodi:cx="-162.76448"
         sodipodi:type="arc"
         id="path4919"
         style="fill:none;fill-opacity:1;stroke:#000000;stroke-width:10.00000095;stroke-miterlimit:4;stroke-dasharray:none;stroke-dashoffset:0;stroke-opacity:1"
         inkscape:export-filename="/Users/santannajj/Desktop/a.png"
         inkscape:export-xdpi="90"
         inkscape:export-ydpi="90" />
      <path
         style="fill:none;fill-rule:evenodd;stroke:#000000;stroke-width:5.00000048;stroke-linecap:butt;stroke-linejoin:miter;stroke-miterlimit:4;stroke-dasharray:10.00000119, 5.0000006;stroke-dashoffset:0;stroke-opacity:1"
         d="m 112.12823,1048.4421 c -9.77921,3.3409 -41.074354,30.3621 -41.074354,30.3621"
         id="path4921"
         inkscape:connector-curvature="0"
         sodipodi:nodetypes="cc"
         inkscape:export-filename="/Users/santannajj/Desktop/a.png"
         inkscape:export-xdpi="90"
         inkscape:export-ydpi="90" />
      <path
         style="fill:none;fill-rule:evenodd;stroke:#000000;stroke-width:10.00000095;stroke-linecap:butt;stroke-linejoin:miter;stroke-miterlimit:4;stroke-dasharray:none;stroke-opacity:1"
         d="m 162.76453,1081.3926 0,114.5234"
         id="path4923"
         inkscape:connector-curvature="0"
         inkscape:export-filename="/Users/santannajj/Desktop/a.png"
         inkscape:export-xdpi="90"
         inkscape:export-ydpi="90" />
      <path
         transform="scale(-1,-1)"
         style="fill:none;fill-opacity:1;stroke:#000000;stroke-width:5.00000048;stroke-miterlimit:4;stroke-dasharray:none;stroke-dashoffset:0;stroke-opacity:1"
         id="path4925"
         sodipodi:type="arc"
         sodipodi:cx="-48.838818"
         sodipodi:cy="-1101.0826"
         sodipodi:rx="31.246111"
         sodipodi:ry="31.045185"
         sodipodi:start="0"
         sodipodi:end="6.2661858"
         sodipodi:open="true"
         d="m -17.592707,-1101.0826 a 31.246111,31.045185 0 0 1 -31.113319,31.0449 31.246111,31.045185 0 0 1 -31.377774,-30.7811 31.246111,31.045185 0 0 1 30.846617,-31.3065 31.246111,31.045185 0 0 1 31.639962,30.5149"
         inkscape:export-filename="/Users/santannajj/Desktop/a.png"
         inkscape:export-xdpi="90"
         inkscape:export-ydpi="90" />
      <path
         inkscape:export-ydpi="90"
         inkscape:export-xdpi="90"
         inkscape:export-filename="/Users/santannajj/Desktop/a.png"
         inkscape:connector-curvature="0"
         id="path4927"
         d="m 47.688686,1126.0825 c -1.2379,-0.099 -2.01,-0.2241 -2.9983,-0.4879 -3.5673,-0.952 -6.8254,-3.2106 -9.397,-6.5145 -0.1737,-0.2229 -0.4059,-0.5329 -0.5163,-0.6888 l -0.2007,-0.2836 -0.065,0.066 c -0.036,0.037 -1.1976,1.2893 -2.5825,2.784 -1.3848,1.4947 -2.524,2.7195 -2.5314,2.7217 -0.01,0 -0.6088,-0.5478 -1.3361,-1.2223 l -1.3226,-1.2262 0.3571,-0.3807 c 0.5302,-0.565 5.5018,-5.9339 5.543,-5.986 0.028,-0.037 0,-0.1191 -0.1553,-0.4625 -1.1922,-2.6115 -2.0127,-5.7178 -2.2737,-8.6077 l -0.036,-0.3949 -3.1212,0 -3.1212,0 0,-1.8096 0,-1.8096 3.0836,0 3.0836,0 10e-5,-0.1086 c 8e-4,-0.3701 0.107,-1.5913 0.2055,-2.367 0.094,-0.7393 0.318,-2.0611 0.3913,-2.309 0.012,-0.039 0,-0.051 -0.059,-0.051 -0.041,0 -0.075,-0.011 -0.075,-0.023 0,-0.047 0.258,-0.9287 0.3915,-1.3374 0.2127,-0.651 0.8312,-2.3573 1.0758,-2.9677 0.71,-1.7715 1.6339,-3.4819 2.6765,-4.9551 0.1255,-0.1774 0.2283,-0.3297 0.2283,-0.3384 0,-0.01 -1.6286,-1.7723 -3.6192,-3.9192 -1.9905,-2.1469 -3.6182,-3.9164 -3.617,-3.9323 0,-0.029 2.5861,-2.4279 2.6255,-2.4373 0.012,0 1.5654,1.6623 3.4525,3.7001 1.887,2.0378 3.4636,3.7362 3.5033,3.7741 l 0.072,0.069 0.3041,-0.2771 c 1.891,-1.7236 4.0055,-2.9776 6.2539,-3.7093 3.2034,-1.0424 6.6239,-0.9871 9.7936,0.1581 0.6795,0.2455 1.0154,0.3899 1.7446,0.7501 1.7659,0.8725 3.1531,1.8436 4.4771,3.1342 l 0.3946,0.3847 3.8471,-4.1536 c 2.1159,-2.2844 3.8567,-4.1513 3.8684,-4.1486 0.034,0.01 2.6279,2.4211 2.6279,2.4449 0,0.012 -1.8096,1.9732 -4.0215,4.3589 l -4.0215,4.3374 0.3111,0.4833 c 1.4872,2.3096 2.7213,5.0989 3.4744,7.8533 0.077,0.2794 0.1483,0.5628 0.1596,0.6297 0.02,0.1151 0.016,0.1217 -0.049,0.1217 l -0.069,0 0.079,0.3898 c 0.2437,1.1884 0.4447,2.7756 0.512,4.0402 l 0.021,0.3908 3.8001,0.01 3.8003,0.01 0,1.8095 0,1.8095 -3.8346,0 -3.8346,0 -0.015,0.1231 c -0.01,0.068 -0.048,0.4162 -0.089,0.7745 -0.2886,2.55 -0.902,4.9503 -1.8596,7.2769 l -0.2483,0.6031 0.1153,0.1207 c 0.063,0.067 1.5263,1.6453 3.2508,3.5084 1.7245,1.8632 3.2125,3.467 3.3068,3.5639 l 0.1715,0.1764 -1.1528,1.0679 c -0.6339,0.5874 -1.2314,1.1427 -1.3276,1.2339 l -0.1748,0.166 -2.9918,-3.2271 c -1.6455,-1.7749 -3.0013,-3.2271 -3.0129,-3.2271 -0.012,0 -0.11,0.1336 -0.2186,0.2968 -1.0985,1.6505 -2.5346,3.2448 -4.024,4.4668 -1.0762,0.8829 -2.1186,1.5578 -3.3297,2.1557 -1.8552,0.9158 -3.644,1.4183 -5.6199,1.5785 -0.4732,0.038 -1.7231,0.053 -2.0818,0.025 z m -0.9121,-16.644 0,-12.4935 -6.3495,0 -6.3496,0 -0.1208,0.4994 c -0.2839,1.1743 -0.4684,2.3418 -0.5869,3.7133 -0.051,0.592 -0.068,2.4752 -0.029,3.1325 0.1919,3.218 0.9497,6.1336 2.291,8.8144 1.5164,3.0309 3.7355,5.5178 6.3078,7.069 0.8275,0.4989 1.9685,1.0217 2.8256,1.2944 0.5665,0.1803 1.7128,0.4501 1.9616,0.4617 0.048,0 0.051,-0.611 0.051,-12.4912 z m 5.0751,12.1878 c 1.2195,-0.3136 2.6629,-0.9777 3.8862,-1.7878 0.8728,-0.5781 1.5257,-1.1208 2.3898,-1.9866 1.6583,-1.6616 2.902,-3.5266 3.9208,-5.8792 1.8875,-4.3585 2.3151,-9.7187 1.1555,-14.4849 l -0.1321,-0.5428 -5.7444,0 -5.7446,0 0,12.3808 c 0,11.1088 0.01,12.3791 0.045,12.3638 0.025,-0.01 0.1254,-0.038 0.2243,-0.063 z"
         style="fill:#666666;fill-opacity:1" />
      <path
         sodipodi:nodetypes="sssssssscccccscsscscssccscscsscscsssssscscscssssssssscsssssssscccsss"
         inkscape:connector-curvature="0"
         id="path4929"
         d="m 193.02506,1049.7671 c -0.65996,2.5932 -3.64955,6.7584 -5.93765,8.2726 -1.38139,0.9142 -2.26285,1.2282 -3.98513,1.4196 -1.21627,0.1353 -6.58395,0.8586 -11.92815,1.6075 -9.15964,1.2836 -9.85174,1.3307 -12.07153,0.8222 -2.11761,-0.4852 -4.10059,-1.7394 -19.68648,-12.4519 -11.34414,-7.797 -18.16486,-12.7346 -19.7434,-14.2924 -1.32645,-1.309 -3.40583,-3.9054 -4.62084,-5.7698 l -2.20913,-3.3897 -9.31583,0.2557 -9.315834,0.2558 -9.82,-6.7995 -9.82,-6.7993 1.437,-1.9377 c 0.79035,-1.0657 1.78781,-2.0905 2.21656,-2.2773 0.42874,-0.1868 4.61697,-1.8699 9.30715,-3.7403 4.69019,-1.8704 8.58786,-3.4879 8.66148,-3.5944 0.0736,-0.1066 -0.0949,-0.5721 -0.37467,-1.0346 -0.47168,-0.77993 -0.12501,-1.39503 4.783404,-8.48753 4.43921,-6.4145 5.42418,-7.6298 6.1125,-7.5421 0.45129,0.057 4.29654,0.8969 8.54497,1.8652 4.24844,0.9683 7.86041,1.7358 8.02663,1.7054 0.1662,-0.03 -0.24614,-0.777 -0.91633,-1.6593 l -1.21851,-1.6041 -6.38148,-1.3681 c -3.50981,-0.7525 -6.43056,-1.4005 -6.49055,-1.4401 -0.06,-0.04 -0.0147,-4.1134 0.10055,-9.0529 0.20797,-8.9091 0.21859,-8.9942 1.33096,-10.6452 0.61674,-0.9154 1.29417,-1.6958 1.50541,-1.7344 0.21124,-0.039 4.70621,2.9197 9.98883,6.574 l 9.60474,6.644 3.0236,8.5902 c 1.66297,4.7246 3.17921,8.6945 3.36942,8.8219 0.19021,0.1275 1.9477,0.6023 3.90555,1.0553 6.38225,1.4767 8.396,2.6296 26.81099,15.35113 15.5391,10.7347 17.31968,12.0701 18.70484,14.0289 1.51204,2.1381 1.55819,2.2825 3.74741,11.7254 3.12016,13.4584 3.25099,14.2782 2.65352,16.6258 z m -91.3048,-64.61753 -1.14574,1.6161 -5.732704,-3.7606 c -3.15299,-2.0684 -7.03004,-4.61 -8.61566,-5.648 -1.58562,-1.038 -2.9029,-1.9966 -2.92726,-2.13 -0.0244,-0.1335 0.31545,-0.5289 0.75518,-0.8787 0.75591,-0.6014 1.09906,-0.4779 6.29444,2.2655 3.02223,1.5959 7.05436,3.6925 8.96029,4.6591 1.905934,0.9665 3.485994,1.8705 3.511254,2.0089 0.0253,0.1383 -0.46965,0.9788 -1.0998,1.8677 z m -3.410704,4.9354 c -0.54321,0.7603 -1.15827,1.4134 -1.36677,1.4515 -0.2085,0.038 -1.04624,-0.4435 -1.86165,-1.0703 -0.81541,-0.6267 -3.5351,-2.6294 -6.04375,-4.4505 -11.04645,-8.0188 -21.07557,-15.29 -21.57234,-15.6401 -0.74809,-0.5272 -0.75878,-0.9202 -0.0501,-1.8435 0.59957,-0.7811 0.67818,-0.7519 4.13575,1.5403 1.9385,1.285 7.36762,4.8481 12.06468,7.9178 12.96783,8.475 15.59486,10.2361 15.64023,10.4846 0.0229,0.1254 -0.40283,0.85 -0.94605,1.6102 z m -3.70672,5.3454 c -0.82736,1.1544 -1.24133,1.4734 -1.56911,1.2089 -0.2449,-0.1976 -2.77134,-2.4494 -5.61434,-5.0041 -2.843,-2.5547 -6.13531,-5.4954 -7.31625,-6.5349 l -2.14717,-1.89 0.62881,-0.8932 0.62881,-0.8932 4.84014,3.4697 c 7.32996,5.2545 11.57609,8.438 11.62708,8.7173 0.0252,0.1382 -0.45984,0.957 -1.07797,1.8195 z"
         style="fill:#666666;fill-opacity:1"
         inkscape:export-filename="/Users/santannajj/Desktop/a.png"
         inkscape:export-xdpi="90"
         inkscape:export-ydpi="90" />
      <path
         sodipodi:nodetypes="cc"
         inkscape:connector-curvature="0"
         id="path4931"
         d="m 24.620026,1122.2929 c -8.23296,8.1397 -22.1520103,28.717 -25.53219026,36.7026"
         style="fill:none;fill-rule:evenodd;stroke:#000000;stroke-width:5.00000048;stroke-linecap:butt;stroke-linejoin:miter;stroke-miterlimit:4;stroke-dasharray:10.00000119, 5.0000006;stroke-dashoffset:0;stroke-opacity:1"
         inkscape:export-filename="/Users/santannajj/Desktop/a.png"
         inkscape:export-xdpi="90"
         inkscape:export-ydpi="90" />
      <path
         inkscape:connector-curvature="0"
         id="path4933"
         d="m 147.87476,1356.0268 c -44.57591,-2.6703 -80.845994,-17.5567 -90.797884,-37.2664 -0.84644,-1.6763 -1.77489,-4.0742 -2.06322,-5.3287 -0.3142,-1.367 -0.51229,-9.8036 -0.49443,-21.0581 0.0277,-17.4533 0.0813,-18.5639 0.75996,-15.7505 5.01831,20.8034 39.29554,37.4297 86.520124,41.9669 8.48197,0.815 32.52734,0.815 41.00931,0 47.22458,-4.5372 81.50181,-21.1635 86.52012,-41.9669 0.67867,-2.8134 0.73226,-1.7028 0.75996,15.7505 0.0179,11.2545 -0.18022,19.6911 -0.49443,21.0581 -0.73624,3.2031 -3.20162,7.8858 -5.87981,11.1679 -17.49232,21.4368 -65.44418,34.4461 -115.8397,31.4272 z m -4.74561,-50.2452 c -27.18688,-2.0899 -54.489094,-10.1362 -70.691264,-20.8336 -5.3491,-3.5317 -12.22761,-10.4625 -14.54719,-14.6576 -3.36867,-6.0925 -3.43388,-6.6339 -3.35708,-27.8703 0.0379,-10.4862 0.16429,-18.4949 0.28082,-17.7971 0.93048,5.5718 4.10905,11.1072 9.48737,16.5221 13.38534,13.4763 39.270804,22.9997 73.953494,27.208 3.69514,0.4484 11.78752,0.6757 24.04867,0.6757 18.82537,0 22.54862,-0.2428 35.94643,-2.344 21.0223,-3.297 41.02069,-10.2644 53.91964,-18.7854 5.05822,-3.3415 11.65641,-9.9008 14.01185,-13.9293 1.7227,-2.9464 3.16686,-6.684 3.6116,-9.3471 0.11653,-0.6978 0.2429,7.3109 0.28082,17.7971 0.0768,21.2364 0.0116,21.7778 -3.35707,27.8703 -2.31959,4.1951 -9.1981,11.1259 -14.5472,14.6576 -16.53626,10.918 -43.33537,18.7223 -71.63972,20.8625 -7.79494,0.5894 -29.5765,0.5725 -37.40117,-0.029 z m 3.47989,-49.7376 c -34.63179,-2.4163 -63.738504,-11.7063 -79.981974,-25.5279 -5.95599,-5.068 -10.33774,-11.5141 -11.62134,-17.0964 -0.3044,-1.3238 -0.50407,-9.9518 -0.4865,-21.0227 0.0275,-17.3159 0.0858,-18.5456 0.74865,-15.8004 4.5347,18.7794 33.80063,34.8163 74.127384,40.6195 19.88043,2.8609 45.93698,2.8609 65.81741,0 40.32675,-5.8032 69.59269,-21.8401 74.12738,-40.6195 0.6629,-2.7452 0.72117,-1.5155 0.74865,15.8004 0.0176,11.0709 -0.1821,19.6989 -0.4865,21.0227 -0.75212,3.2709 -3.36681,8.2572 -6.02385,11.4876 -17.51961,21.3002 -67.45084,34.5917 -116.96931,31.1367 z m -1.26571,-50.0026 c -47.393084,-3.5872 -83.880104,-20.5093 -90.075624,-41.7756 -5.8861,-20.2043 19.70796,-40.9361 61.042324,-49.4457 15.32601,-3.1552 28.64575,-4.4414 45.99394,-4.4414 17.34818,0 30.66792,1.2862 45.99393,4.4414 32.67592,6.7271 56.83044,21.6925 61.12775,37.873 5.51266,20.7566 -20.0618,40.9299 -62.83622,49.5658 -14.90816,3.0098 -22.06641,3.6748 -41.24774,3.8314 -9.60681,0.078 -18.60607,0.056 -19.99836,-0.049 z"
         style="fill:#808080;fill-opacity:1"
         inkscape:export-filename="/Users/santannajj/Desktop/a.png"
         inkscape:export-xdpi="90"
         inkscape:export-ydpi="90" />
      <text
         inkscape:export-ydpi="90"
         inkscape:export-xdpi="90"
         sodipodi:linespacing="125%"
         id="text4935"
         y="1300.5868"
         x="269.36041"
         style="font-style:normal;font-weight:normal;font-size:187.5px;line-height:125%;font-family:sans-serif;letter-spacing:-0.02px;word-spacing:0px;fill:#000000;fill-opacity:1;stroke:none;stroke-width:1px;stroke-linecap:butt;stroke-linejoin:miter;stroke-opacity:1"
         xml:space="preserve"
         inkscape:export-filename="/Users/santannajj/Desktop/a.png"><tspan
           dx="0"
           style="font-style:normal;font-variant:normal;font-weight:bold;font-stretch:normal;font-family:'DIN Alternate';-inkscape-font-specification:'DIN Alternate Bold';letter-spacing:0px;fill:#000000;fill-opacity:1"
           y="1300.5868"
           x="269.36041"
           id="tspan4937"
           sodipodi:role="line">DDoS</tspan></text>
      <g
         transform="translate(-152.85567,1013.4649)"
         style="stroke:#000000"
         id="g4979">
        <path
           d="m 1161.4885,223.25381 a 31.246111,31.045185 0 0 1 -31.1133,31.04491 31.246111,31.045185 0 0 1 -31.3778,-30.78103 31.246111,31.045185 0 0 1 30.8467,-31.30654 31.246111,31.045185 0 0 1 31.6399,30.51494"
           sodipodi:open="true"
           sodipodi:end="6.2661858"
           sodipodi:start="0"
           sodipodi:ry="31.045185"
           sodipodi:rx="31.246111"
           sodipodi:cy="223.25381"
           sodipodi:cx="1130.2424"
           sodipodi:type="arc"
           id="path4939"
           style="fill:none;fill-opacity:1;stroke:#000000;stroke-width:5.00000048;stroke-miterlimit:4;stroke-dasharray:none;stroke-dashoffset:0;stroke-opacity:1"
           inkscape:export-filename="/Users/santannajj/Desktop/a.png"
           inkscape:export-xdpi="90"
           inkscape:export-ydpi="90" />
        <path
           d="m 1003.9609,375.50919 a 49.768734,48.563213 0 0 1 -49.55719,48.56277 49.768734,48.563213 0 0 1 -49.97845,-48.15 49.768734,48.563213 0 0 1 49.13242,-48.97204 49.768734,48.563213 0 0 1 50.39602,47.73375"
           sodipodi:open="true"
           sodipodi:end="6.2661858"
           sodipodi:start="0"
           sodipodi:ry="48.563213"
           sodipodi:rx="49.768734"
           sodipodi:cy="375.50919"
           sodipodi:cx="954.1922"
           sodipodi:type="arc"
           id="path4941"
           style="fill:none;fill-opacity:1;stroke:#000000;stroke-width:10.00000095;stroke-miterlimit:4;stroke-dasharray:none;stroke-dashoffset:0;stroke-opacity:1"
           inkscape:export-filename="/Users/santannajj/Desktop/a.png"
           inkscape:export-xdpi="90"
           inkscape:export-ydpi="90" />
        <path
           style="fill:none;fill-rule:evenodd;stroke:#000000;stroke-width:5.00000048;stroke-linecap:butt;stroke-linejoin:miter;stroke-miterlimit:4;stroke-dasharray:10.00000119, 5.0000006;stroke-dashoffset:0;stroke-opacity:1"
           d="m 1004.8285,361.04803 c 9.7792,-3.34096 41.0743,-30.36209 41.0743,-30.36209"
           id="path4943"
           inkscape:connector-curvature="0"
           sodipodi:nodetypes="cc"
           inkscape:export-filename="/Users/santannajj/Desktop/a.png"
           inkscape:export-xdpi="90"
           inkscape:export-ydpi="90" />
        <path
           style="fill:none;fill-rule:evenodd;stroke:#000000;stroke-width:10.00000095;stroke-linecap:butt;stroke-linejoin:miter;stroke-miterlimit:4;stroke-dasharray:none;stroke-opacity:1"
           d="m 954.19215,328.09748 0,-114.52338"
           id="path4945"
           inkscape:connector-curvature="0"
           inkscape:export-filename="/Users/santannajj/Desktop/a.png"
           inkscape:export-xdpi="90"
           inkscape:export-ydpi="90" />
        <path
           style="fill:none;fill-opacity:1;stroke:#000000;stroke-width:5.00000048;stroke-miterlimit:4;stroke-dasharray:none;stroke-dashoffset:0;stroke-opacity:1"
           id="path4947"
           sodipodi:type="arc"
           sodipodi:cx="1068.1178"
           sodipodi:cy="308.40747"
           sodipodi:rx="31.246111"
           sodipodi:ry="31.045185"
           sodipodi:start="0"
           sodipodi:end="6.2661858"
           sodipodi:open="true"
           d="m 1099.3639,308.40747 a 31.246111,31.045185 0 0 1 -31.1133,31.04491 31.246111,31.045185 0 0 1 -31.3778,-30.78104 31.246111,31.045185 0 0 1 30.8466,-31.30653 31.246111,31.045185 0 0 1 31.64,30.51493"
           inkscape:export-filename="/Users/santannajj/Desktop/a.png"
           inkscape:export-xdpi="90"
           inkscape:export-ydpi="90" />
        <path
           sodipodi:nodetypes="cc"
           inkscape:connector-curvature="0"
           id="path4949"
           d="m 1092.3367,287.19718 c 8.2329,-8.13964 22.152,-28.71696 25.5322,-36.70261"
           style="fill:none;fill-rule:evenodd;stroke:#000000;stroke-width:5.00000048;stroke-linecap:butt;stroke-linejoin:miter;stroke-miterlimit:4;stroke-dasharray:10.00000119, 5.0000006;stroke-dashoffset:0;stroke-opacity:1"
           inkscape:export-filename="/Users/santannajj/Desktop/a.png"
           inkscape:export-xdpi="90"
           inkscape:export-ydpi="90" />
      </g>
      <path
         inkscape:export-ydpi="90"
         inkscape:export-xdpi="90"
         inkscape:export-filename="/Users/santannajj/Desktop/a.png"
         inkscape:connector-curvature="0"
         id="path4951"
         d="m 970.05467,1260.1951 c -2.3268,-0.3303 -5.6505,-1.5775 -7.6297,-2.8633 -1.7398,-1.1302 -2.9039,-3.1861 -4.0329,-7.1225 -0.8587,-2.9943 -0.8044,-4.0024 0.2583,-4.7819 0.3824,-0.2805 0.6086,-0.3198 1.385,-0.2406 0.5104,0.052 1.9881,0.2027 3.2838,0.3347 4.9139,0.5006 8.7495,0.6284 16.1572,0.5383 7.2279,-0.088 8.7992,-0.1698 13.6393,-0.7112 1.3507,-0.151 2.6147,-0.2283 2.8087,-0.1717 0.5415,0.1578 1.2161,0.9006 1.349,1.485 0.1468,0.6461 -0.1092,2.0504 -0.7914,4.3397 -1.0927,3.6671 -2.258,5.5463 -4.144,6.6829 -2.4416,1.4711 -5.873,2.5399 -8.2455,2.568 -1.7183,0.02 -2.0226,-0.1104 -3.6864,-1.5851 -1.3231,-1.1728 -2.1827,-1.5415 -3.1559,-1.3538 -0.7761,0.1497 -1.2476,0.4457 -2.4378,1.5302 -0.5498,0.5009 -1.1922,1.0048 -1.4278,1.1199 -0.613,0.2996 -2.1143,0.4039 -3.3299,0.2313 z m 1.7729,-5.4777 c 0.7946,-0.4749 1.4253,-1.4189 1.5651,-2.3428 0.081,-0.5373 0.039,-0.6806 -0.3287,-1.1077 -0.5493,-0.6379 -1.5461,-0.9605 -3.6648,-1.186 -2.2693,-0.2415 -4.2323,0.041 -4.731,0.6814 -0.5846,0.7503 0.1363,2.6119 1.3247,3.4215 1.6397,1.1169 4.4318,1.3723 5.8347,0.5336 z m 15.9205,0.038 c 1.7644,-0.7931 2.8405,-2.0778 2.8405,-3.3909 0,-0.5026 -0.072,-0.646 -0.4292,-0.8609 -1.4164,-0.8508 -6.5756,-0.5427 -7.9093,0.4725 -1.2352,0.9401 -0.1904,3.3655 1.77,4.109 0.6649,0.2521 2.867,0.057 3.728,-0.3297 z m -14.6491,-12.2482 c -11.5179,-0.2932 -21.9245,-2.3405 -23.2741,-4.5787 -0.3061,-0.5076 -0.2603,-1.1619 0.1092,-1.5639 1.0592,-1.152 4.5341,-2.3642 8.7161,-3.0406 0.8711,-0.1409 1.2931,-0.2842 1.3762,-0.4672 0.067,-0.1452 0.9712,-3.8835 2.0116,-8.3075 1.0403,-4.4239 2.0167,-8.3573 2.1698,-8.7408 0.3296,-0.8253 1.3429,-1.958 2.0821,-2.328 0.299,-0.1496 0.9283,-0.2648 1.4549,-0.2664 0.8208,0 1.2289,0.1364 3.5336,1.2023 2.8643,1.3245 4.1073,1.6632 6.1034,1.6632 1.9444,0 3.185,-0.3329 5.9992,-1.6099 1.412,-0.6407 2.8265,-1.2135 3.1435,-1.2729 0.8031,-0.1506 1.8745,0.1609 2.65,0.7704 1.2748,1.0018 1.3572,1.2451 3.4951,10.3334 1.0728,4.5607 2.004,8.411 2.069,8.5562 0.082,0.1836 0.5008,0.325 1.3749,0.4648 5.40823,0.8645 9.03753,2.4366 9.03753,3.9149 0,2.0576 -6.14933,3.9146 -15.91913,4.8075 -3.373,0.3083 -10.3761,0.6052 -12.8495,0.5449 -1.0209,-0.025 -2.4985,-0.062 -3.2837,-0.082 z"
         style="fill:#666666;fill-opacity:1" />
      <path
         style="fill:#666666;fill-opacity:1"
         d="m 913.65587,1346.5486 c -1.2379,-0.099 -2.01,-0.2241 -2.9983,-0.4879 -3.5673,-0.952 -6.8254,-3.2106 -9.397,-6.5145 -0.1737,-0.2229 -0.4059,-0.5329 -0.5163,-0.6888 l -0.2007,-0.2836 -0.065,0.066 c -0.036,0.036 -1.1976,1.2893 -2.5825,2.784 -1.3848,1.4947 -2.524,2.7195 -2.5314,2.7217 -0.01,0 -0.6088,-0.5478 -1.3361,-1.2223 l -1.3226,-1.2262 0.3571,-0.3807 c 0.5302,-0.565 5.5018,-5.9339 5.543,-5.986 0.028,-0.037 0,-0.1191 -0.1553,-0.4625 -1.1922,-2.6115 -2.0127,-5.7178 -2.2737,-8.6077 l -0.036,-0.3949 -3.1212,0 -3.1212,0 0,-1.8096 0,-1.8096 3.0836,0 3.0836,0 10e-5,-0.1086 c 8e-4,-0.3701 0.107,-1.5913 0.2055,-2.367 0.094,-0.7393 0.318,-2.0611 0.3913,-2.309 0.012,-0.039 0,-0.051 -0.059,-0.051 -0.041,0 -0.075,-0.011 -0.075,-0.023 0,-0.047 0.258,-0.9287 0.3915,-1.3374 0.2127,-0.651 0.8312,-2.3573 1.0758,-2.9677 0.71,-1.7715 1.6339,-3.4819 2.6765,-4.9551 0.1255,-0.1774 0.2283,-0.3297 0.2283,-0.3384 0,-0.01 -1.6286,-1.7723 -3.6192,-3.9192 -1.9905,-2.1469 -3.6182,-3.9164 -3.617,-3.9324 0,-0.029 2.5861,-2.4278 2.6255,-2.4372 0.012,0 1.5654,1.6623 3.4525,3.7001 1.887,2.0378 3.4636,3.7362 3.5033,3.7741 l 0.072,0.069 0.3041,-0.2771 c 1.891,-1.7236 4.0055,-2.9776 6.2539,-3.7093 3.2034,-1.0424 6.6239,-0.9872 9.7936,0.1581 0.6795,0.2455 1.0154,0.3899 1.7446,0.7501 1.7659,0.8725 3.1531,1.8436 4.4771,3.1342 l 0.3946,0.3847 3.8471,-4.1536 c 2.1159,-2.2844 3.8567,-4.1513 3.8684,-4.1486 0.034,0.01 2.6279,2.4211 2.6279,2.4448 0,0.012 -1.8096,1.9733 -4.0215,4.3589 l -4.0215,4.3375 0.3111,0.4832 c 1.4872,2.3097 2.7213,5.099 3.4744,7.8534 0.077,0.2794 0.1483,0.5628 0.1596,0.6297 0.02,0.1151 0.016,0.1217 -0.049,0.1217 l -0.069,0 0.079,0.3898 c 0.2437,1.1884 0.4447,2.7756 0.512,4.0401 l 0.021,0.3909 3.8001,0.01 3.8003,0.01 0,1.8095 0,1.8095 -3.8346,0 -3.8346,0 -0.015,0.1231 c -0.01,0.068 -0.048,0.4162 -0.089,0.7745 -0.2886,2.55 -0.902,4.9503 -1.8596,7.2769 l -0.2483,0.603 0.1153,0.1208 c 0.063,0.066 1.5263,1.6452 3.2508,3.5084 1.7245,1.8632 3.2125,3.467 3.3068,3.5639 l 0.1715,0.1764 -1.1528,1.0679 c -0.6339,0.5874 -1.2314,1.1427 -1.3276,1.2339 l -0.1748,0.166 -2.9918,-3.2271 c -1.6455,-1.7749 -3.0013,-3.2271 -3.0129,-3.2271 -0.012,0 -0.11,0.1336 -0.2186,0.2968 -1.0985,1.6505 -2.5346,3.2448 -4.024,4.4668 -1.0762,0.8829 -2.1186,1.5578 -3.3297,2.1557 -1.8552,0.9158 -3.644,1.4182 -5.6199,1.5785 -0.4732,0.038 -1.7231,0.053 -2.0818,0.025 z m -0.9121,-16.644 0,-12.4935 -6.3495,0 -6.3496,0 -0.1208,0.4994 c -0.2839,1.1743 -0.4684,2.3418 -0.5869,3.7133 -0.051,0.592 -0.068,2.4752 -0.029,3.1325 0.1919,3.218 0.9497,6.1336 2.291,8.8143 1.5164,3.031 3.7355,5.5179 6.3078,7.0691 0.8275,0.4989 1.9685,1.0217 2.8256,1.2944 0.5665,0.1803 1.7128,0.4501 1.9616,0.4617 0.048,0 0.051,-0.611 0.051,-12.4912 z m 5.0751,12.1878 c 1.2195,-0.3136 2.6629,-0.9777 3.8862,-1.7878 0.8728,-0.5781 1.5257,-1.1208 2.3898,-1.9866 1.6583,-1.6616 2.902,-3.5265 3.9208,-5.8792 1.8875,-4.3585 2.3151,-9.7187 1.1555,-14.4849 l -0.1321,-0.5428 -5.7444,0 -5.7446,0 0,12.3808 c 0,11.1088 0.01,12.3791 0.045,12.3638 0.025,-0.01 0.1254,-0.038 0.2243,-0.063 z"
         id="path4953"
         inkscape:connector-curvature="0"
         inkscape:export-filename="/Users/santannajj/Desktop/a.png"
         inkscape:export-xdpi="90"
         inkscape:export-ydpi="90" />
      <path
         inkscape:export-ydpi="90"
         inkscape:export-xdpi="90"
         inkscape:export-filename="/Users/santannajj/Desktop/a.png"
         style="fill:#666666;fill-opacity:1"
         d="m 765.90218,1370.0114 c 0.66,-2.5932 3.6496,-6.7584 5.9377,-8.2726 1.3814,-0.9142 2.2628,-1.2282 3.9851,-1.4196 1.2163,-0.1353 6.584,-0.8586 11.9282,-1.6075 9.1596,-1.2836 9.8517,-1.3307 12.0715,-0.8222 2.1176,0.4852 4.1006,1.7394 19.6865,12.4519 11.3441,7.797 18.1648,12.7346 19.7434,14.2924 1.3264,1.309 3.4058,3.9054 4.6208,5.7698 l 2.20915,3.3897 9.3158,-0.2557 9.3159,-0.2558 9.82,6.7994 9.82,6.7994 -1.437,1.9377 c -0.7904,1.0657 -1.7878,2.0905 -2.2166,2.2772 -0.4287,0.1869 -4.617,1.87 -9.3071,3.7404 -4.6902,1.8704 -8.5879,3.4879 -8.6615,3.5944 -0.074,0.1066 0.095,0.5721 0.3747,1.0345 0.4716,0.78 0.125,1.3951 -4.7834,8.4876 -4.4393,6.4145 -5.4242,7.6298 -6.1125,7.5421 -0.4513,-0.057 -4.2966,-0.8969 -8.54505,-1.8652 -4.2484,-0.9684 -7.8604,-1.7358 -8.0266,-1.7055 -0.1662,0.03 0.2461,0.7771 0.9163,1.6594 l 1.2185,1.6041 6.3815,1.3681 c 3.50985,0.7525 6.43055,1.4005 6.49055,1.4401 0.06,0.04 0.015,4.1134 -0.1005,9.0529 -0.208,8.9091 -0.2186,8.9942 -1.331,10.6452 -0.6167,0.9153 -1.2942,1.6958 -1.5054,1.7344 -0.2112,0.039 -4.70625,-2.9197 -9.98885,-6.574 l -9.6047,-6.644 -3.0236,-8.5902 c -1.663,-4.7246 -3.1792,-8.6945 -3.3694,-8.8219 -0.1903,-0.1275 -1.9477,-0.6024 -3.9056,-1.0553 -6.3822,-1.4767 -8.396,-2.6297 -26.811,-15.3511 -15.5391,-10.7347 -17.3197,-12.0701 -18.7048,-14.0289 -1.5121,-2.1381 -1.5582,-2.2825 -3.7474,-11.7254 -3.1202,-13.4584 -3.251,-14.2782 -2.6536,-16.6258 z m 91.30485,64.6175 1.1457,-1.6161 5.7327,3.7606 c 3.153,2.0684 7.0301,4.61 8.6157,5.648 1.5856,1.038 2.9029,1.9966 2.9273,2.13 0.024,0.1335 -0.3155,0.5289 -0.7552,0.8787 -0.7559,0.6014 -1.0991,0.4779 -6.2945,-2.2655 -3.0222,-1.5959 -7.0543,-3.6925 -8.9602,-4.6591 -1.906,-0.9665 -3.486,-1.8706 -3.5113,-2.0089 -0.025,-0.1383 0.4697,-0.9788 1.0998,-1.8677 z m 3.4107,-4.9354 c 0.5432,-0.7603 1.1583,-1.4135 1.3668,-1.4515 0.2085,-0.038 1.0462,0.4435 1.8616,1.0703 0.8154,0.6267 3.5351,2.6294 6.0438,4.4505 11.0464,8.0188 21.07554,15.29 21.57234,15.6401 0.7481,0.5272 0.7588,0.9202 0.05,1.8435 -0.5996,0.7811 -0.6782,0.7519 -4.1357,-1.5403 -1.93854,-1.285 -7.36774,-4.8481 -12.06474,-7.9178 -12.9678,-8.475 -15.5949,-10.2361 -15.6402,-10.4846 -0.023,-0.1254 0.4028,-0.85 0.946,-1.6102 z m 3.7067,-5.3454 c 0.8274,-1.1544 1.2414,-1.4734 1.5691,-1.2089 0.2449,0.1976 2.7714,2.4494 5.6144,5.0041 2.843,2.5547 6.1353,5.4954 7.3162,6.5349 l 2.1472,1.89 -0.6288,0.8932 -0.6288,0.8932 -4.8402,-3.4697 c -7.3299,-5.2546 -11.5761,-8.438 -11.627,-8.7173 -0.025,-0.1382 0.4598,-0.957 1.0779,-1.8195 z"
         id="path4955"
         inkscape:connector-curvature="0"
         sodipodi:nodetypes="sssssssscccccscsscscssccscscsscscsssssscscscssssssssscsssssssscccsss" />
      <g
         transform="translate(-154.85567,1013.4649)"
         style="fill:#808080;fill-opacity:1"
         id="g4973">
        <text
           inkscape:export-filename="/Users/santannajj/Desktop/a.png"
           sodipodi:linespacing="125%"
           id="text4957"
           y="287.12186"
           x="935.47888"
           style="font-style:normal;font-weight:normal;font-size:187.5px;line-height:125%;font-family:sans-serif;letter-spacing:0px;word-spacing:0px;fill:#808080;fill-opacity:1;stroke:none;stroke-width:1px;stroke-linecap:butt;stroke-linejoin:miter;stroke-opacity:1"
           xml:space="preserve"
           inkscape:export-xdpi="90"
           inkscape:export-ydpi="90"><tspan
             style="font-style:normal;font-variant:normal;font-weight:bold;font-stretch:normal;font-family:'DIN Alternate';-inkscape-font-specification:'DIN Alternate Bold';fill:#808080;fill-opacity:1"
             y="287.12186"
             x="935.47888"
             id="tspan4959"
             sodipodi:role="line">B</tspan></text>
        <text
           inkscape:export-filename="/Users/santannajj/Desktop/a.png"
           inkscape:export-ydpi="90"
           inkscape:export-xdpi="90"
           xml:space="preserve"
           style="font-style:normal;font-weight:normal;font-size:187.5px;line-height:125%;font-family:sans-serif;letter-spacing:0px;word-spacing:0px;fill:#808080;fill-opacity:1;stroke:none;stroke-width:1px;stroke-linecap:butt;stroke-linejoin:miter;stroke-opacity:1"
           x="842.66388"
           y="287.12186"
           id="text4961"
           sodipodi:linespacing="125%"><tspan
             sodipodi:role="line"
             id="tspan4963"
             x="842.66388"
             y="287.12186"
             style="font-style:normal;font-variant:normal;font-weight:bold;font-stretch:normal;font-family:'DIN Alternate';-inkscape-font-specification:'DIN Alternate Bold';fill:#808080;fill-opacity:1">D</tspan></text>
      </g>
      <text
         xml:space="preserve"
         style="font-style:normal;font-weight:normal;font-size:37.75894928px;line-height:125%;font-family:sans-serif;letter-spacing:0px;word-spacing:0px;fill:#ffffff;fill-opacity:1;stroke:none;stroke-width:1px;stroke-linecap:butt;stroke-linejoin:miter;stroke-opacity:1"
         x="671.95941"
         y="785.57611"
         id="text4965"
         sodipodi:linespacing="125%"
         transform="matrix(0.83467753,0.56178068,-0.58105851,0.80698537,0,0)"
         inkscape:export-filename="/Users/santannajj/Desktop/a.png"
         inkscape:export-xdpi="90"
         inkscape:export-ydpi="90"><tspan
           sodipodi:role="line"
           id="tspan4967"
           x="671.95941"
           y="785.57611"
           style="font-style:normal;font-variant:normal;font-weight:bold;font-stretch:normal;font-size:36.97291565px;font-family:'DIN Alternate';-inkscape-font-specification:'DIN Alternate Bold';fill:#ffffff">DDoS</tspan></text>
      <text
         inkscape:export-ydpi="90"
         inkscape:export-xdpi="90"
         inkscape:export-filename="/Users/santannajj/Desktop/a.png"
         transform="matrix(0.83467753,0.56178068,-0.58105851,0.80698537,0,0)"
         sodipodi:linespacing="125%"
         id="text4969"
         y="721.42572"
         x="1423.881"
         style="font-style:normal;font-weight:normal;font-size:37.75894928px;line-height:125%;font-family:sans-serif;letter-spacing:0px;word-spacing:0px;fill:#ffffff;fill-opacity:1;stroke:none;stroke-width:1px;stroke-linecap:butt;stroke-linejoin:miter;stroke-opacity:1"
         xml:space="preserve"><tspan
           style="font-style:normal;font-variant:normal;font-weight:bold;font-stretch:normal;font-size:36.97291565px;font-family:'DIN Alternate';-inkscape-font-specification:'DIN Alternate Bold';fill:#ffffff"
           y="721.42572"
           x="1423.881"
           id="tspan4971"
           sodipodi:role="line">DDoS</tspan></text>
    </g>
  </g>
</svg>
